@startuml
enum EEnum0 {
  a
  b
}
class test::EClass0 {
  + attr0 : str
  + attr1 : bool
}
class test::EClass1 {
  + EAttribute0 : str
}
class test::EClass2 {
  + EAttribute0 : bool
  + EAttribute1 : int
}
test::EClass0 "1..1" *-- "0..1" test::EClass1 : EReference00
test::EClass1 "1..1" -- "0..1" test::EClass2 : EReference03
test::EClass0 "1..1" *-- "0..8" test::EClass2 : EReference11
@enduml