@startuml
class AbstractDomainCS {
}
class ClassCS {
}
class ExpCS {
}
class ModelElementCS {
}
class Nameable {
}
class NamedElementCS {
}
class Relation {
}
class RootPackageCS {
}
class TemplateCS {
}
class TemplateVariableCS {
}
class TypedElementCS {
}
abstract class qvtrelationcs::AbstractDomainCS {
}
class qvtrelationcs::Class {
}
class qvtrelationcs::CollectionTemplateCS {
}
class qvtrelationcs::DefaultValueCS {
}
class qvtrelationcs::DomainCS {
  + implementedBy : str
  + isCheckonly : bool
  + isEnforce : bool
  + isReplace : bool
}
class qvtrelationcs::DomainPatternCS {
}
class qvtrelationcs::Element {
}
class qvtrelationcs::ElementTemplateCS {
}
class qvtrelationcs::ExpCS {
}
class qvtrelationcs::KeyDeclCS {
}
class qvtrelationcs::ModelDeclCS {
}
class qvtrelationcs::Namespace {
}
class qvtrelationcs::ObjectTemplateCS {
}
class qvtrelationcs::ParamDeclarationCS {
}
class qvtrelationcs::PathNameCS {
}
class qvtrelationcs::PatternCS {
}
class qvtrelationcs::PredicateCS {
}
class qvtrelationcs::PrimitiveTypeDomainCS {
}
class qvtrelationcs::Property {
}
class qvtrelationcs::PropertyTemplateCS {
}
class qvtrelationcs::QueryCS {
}
class qvtrelationcs::RelationCS {
  + isDefault : bool
  + isTop : bool
}
abstract class qvtrelationcs::TemplateCS {
}
abstract class qvtrelationcs::TemplateVariableCS {
}
class qvtrelationcs::TopLevelCS {
}
class qvtrelationcs::Transformation {
}
class qvtrelationcs::TransformationCS {
}
class qvtrelationcs::TypedModel {
}
class qvtrelationcs::TypedRefCS {
}
class qvtrelationcs::UnitCS {
}
class qvtrelationcs::VarDeclarationCS {
}
class qvtrelationcs::VarDeclarationIdCS {
}
class qvtrelationcs::Variable {
}
AbstractDomainCS <|-- qvtrelationcs::DomainCS
AbstractDomainCS <|-- qvtrelationcs::PrimitiveTypeDomainCS
ClassCS <|-- qvtrelationcs::TransformationCS
ExpCS <|-- qvtrelationcs::TemplateCS
ModelElementCS <|-- qvtrelationcs::AbstractDomainCS
ModelElementCS <|-- qvtrelationcs::DefaultValueCS
ModelElementCS <|-- qvtrelationcs::DomainPatternCS
ModelElementCS <|-- qvtrelationcs::KeyDeclCS
ModelElementCS <|-- qvtrelationcs::PatternCS
ModelElementCS <|-- qvtrelationcs::PredicateCS
ModelElementCS <|-- qvtrelationcs::PropertyTemplateCS
ModelElementCS <|-- qvtrelationcs::UnitCS
ModelElementCS <|-- qvtrelationcs::VarDeclarationCS
Nameable <|-- qvtrelationcs::AbstractDomainCS
NamedElementCS <|-- qvtrelationcs::ModelDeclCS
NamedElementCS <|-- qvtrelationcs::RelationCS
NamedElementCS <|-- qvtrelationcs::TemplateVariableCS
NamedElementCS <|-- qvtrelationcs::VarDeclarationIdCS
RootPackageCS <|-- qvtrelationcs::TopLevelCS
TemplateCS <|-- qvtrelationcs::CollectionTemplateCS
TemplateCS <|-- qvtrelationcs::ObjectTemplateCS
TemplateVariableCS <|-- qvtrelationcs::ElementTemplateCS
TemplateVariableCS <|-- qvtrelationcs::PrimitiveTypeDomainCS
TemplateVariableCS <|-- qvtrelationcs::TemplateCS
TypedElementCS <|-- qvtrelationcs::ParamDeclarationCS
TypedElementCS <|-- qvtrelationcs::QueryCS
qvtrelationcs::Class "0..1" -- "1..1" qvtrelationcs::KeyDeclCS : classId26
qvtrelationcs::Transformation "0..9999" -- "1..1" qvtrelationcs::TransformationCS : extends69
qvtrelationcs::ElementTemplateCS "1..1" -- "0..1" qvtrelationcs::Variable : identifier17
qvtrelationcs::Element "1..9999" -- "1..1" qvtrelationcs::UnitCS : identifiers83
qvtrelationcs::ModelDeclCS "1..1" -- "0..9999" qvtrelationcs::Namespace : metamodelIds28
qvtrelationcs::DomainCS "1..1" -- "0..1" qvtrelationcs::TypedModel : modelId6
Relation "0..1" -- "1..1" qvtrelationcs::RelationCS : overrides47
qvtrelationcs::ExpCS "1..1" --* "1..1" qvtrelationcs::PredicateCS : ownedCondition31
qvtrelationcs::DefaultValueCS "0..9999" --* "1..1" qvtrelationcs::DomainCS : ownedDefaultValues9
qvtrelationcs::AbstractDomainCS "0..9999" --* "1..1" qvtrelationcs::RelationCS : ownedDomains50
qvtrelationcs::ExpCS "0..1" --* "1..1" qvtrelationcs::PropertyTemplateCS : ownedExpression40
qvtrelationcs::ExpCS "0..1" --* "1..1" qvtrelationcs::QueryCS : ownedExpression44
qvtrelationcs::ExpCS "0..1" --* "1..1" qvtrelationcs::TemplateCS : ownedGuardExpression58
qvtrelationcs::DomainCS "1..1" *-- "0..1" qvtrelationcs::ExpCS : ownedImplementedBy12
qvtrelationcs::TopLevelCS "1..1" *-- "0..9999" qvtrelationcs::UnitCS : ownedImportClauses63
qvtrelationcs::DefaultValueCS "1..1" *-- "1..1" qvtrelationcs::ExpCS : ownedInitExpression3
qvtrelationcs::ExpCS "0..1" --* "1..1" qvtrelationcs::VarDeclarationCS : ownedInitExpression85
qvtrelationcs::KeyDeclCS "0..9999" --* "1..1" qvtrelationcs::TransformationCS : ownedKeyDecls71
qvtrelationcs::CollectionTemplateCS "1..1" *-- "1..9999" qvtrelationcs::TemplateVariableCS : ownedMemberIdentifiers0
qvtrelationcs::ModelDeclCS "0..9999" --* "1..1" qvtrelationcs::TransformationCS : ownedModelDecls66
qvtrelationcs::PathNameCS "0..1" --* "1..1" qvtrelationcs::PropertyTemplateCS : ownedOppositePropertyId37
qvtrelationcs::KeyDeclCS "1..1" *-- "0..9999" qvtrelationcs::PathNameCS : ownedOppositePropertyIds23
qvtrelationcs::ParamDeclarationCS "0..9999" --* "1..1" qvtrelationcs::QueryCS : ownedParameters43
qvtrelationcs::KeyDeclCS "1..1" *-- "0..1" qvtrelationcs::PathNameCS : ownedPathName20
qvtrelationcs::PathNameCS "0..1" --* "1..1" qvtrelationcs::TransformationCS : ownedPathName74
qvtrelationcs::DomainCS "1..1" *-- "0..9999" qvtrelationcs::DomainPatternCS : ownedPattern7
qvtrelationcs::PatternCS "1..1" *-- "1..9999" qvtrelationcs::PredicateCS : ownedPredicates30
qvtrelationcs::ObjectTemplateCS "1..1" *-- "0..9999" qvtrelationcs::PropertyTemplateCS : ownedPropertyTemplates29
qvtrelationcs::QueryCS "0..9999" --* "1..1" qvtrelationcs::TransformationCS : ownedQueries77
qvtrelationcs::RelationCS "0..9999" --* "1..1" qvtrelationcs::TransformationCS : ownedRelations80
qvtrelationcs::CollectionTemplateCS "1..1" *-- "0..1" qvtrelationcs::ElementTemplateCS : ownedRestIdentifier1
qvtrelationcs::DomainPatternCS "1..1" *-- "0..1" qvtrelationcs::TemplateCS : ownedTemplate15
qvtrelationcs::TopLevelCS "1..1" *-- "0..9999" qvtrelationcs::TransformationCS : ownedTransformations64
qvtrelationcs::TemplateVariableCS "1..1" *-- "0..1" qvtrelationcs::TypedRefCS : ownedType61
qvtrelationcs::TypedRefCS "0..1" --* "1..1" qvtrelationcs::VarDeclarationCS : ownedType88
qvtrelationcs::VarDeclarationCS "1..1" *-- "0..9999" qvtrelationcs::VarDeclarationIdCS : ownedVarDeclarationIds91
qvtrelationcs::RelationCS "1..1" *-- "0..9999" qvtrelationcs::VarDeclarationCS : ownedVarDeclarations48
qvtrelationcs::PatternCS "0..1" --* "1..1" qvtrelationcs::RelationCS : ownedWhen52
qvtrelationcs::PatternCS "0..1" --* "1..1" qvtrelationcs::RelationCS : ownedWhere55
qvtrelationcs::ObjectTemplateCS "0..1" -- "1..1" qvtrelationcs::PropertyTemplateCS : owningObjectTemplate34
qvtrelationcs::Property "0..1" -- "1..1" qvtrelationcs::PropertyTemplateCS : propertyId35
qvtrelationcs::DefaultValueCS "1..1" -- "1..1" qvtrelationcs::Variable : propertyId4
qvtrelationcs::KeyDeclCS "1..1" -- "0..9999" qvtrelationcs::Property : propertyIds21
@enduml