@startuml
class DocumentElt {
}
class Port {
}
class Vertex {
}
class WT::Architecture {
  + name : str
}
class WT::Component {
  + label : str
}
class WT::Connector {
}
class WT::ControlSubsystem {
  + name : str
}
abstract class WT::DocumentElt {
  + description : str
  + name : str
}
class WT::Edge {
}
class WT::InPort {
}
class WT::InitialState {
}
class WT::OutPort {
}
abstract class WT::Port {
  + isPublic : bool
  + label : str
}
class WT::SimpleState {
}
class WT::StateMachine {
  + isPublic : bool
  + name : str
}
class WT::Subsystem {
  + name : str
}
abstract class WT::Vertex {
}
class WT::WTComponents {
  + name : str
}
DocumentElt <|-- WT::Edge
DocumentElt <|-- WT::Vertex
Port <|-- WT::InPort
Port <|-- WT::OutPort
Vertex <|-- WT::InitialState
Vertex <|-- WT::SimpleState
WT::ControlSubsystem "0..9999" --* "1..1" WT::Subsystem : beh6
WT::Architecture "1..1" *-- "0..9999" WT::Connector : connectors10
WT::Architecture "1..1" *-- "0..9999" WT::Component : elements8
WT::Architecture "0..9999" --* "1..1" WT::Subsystem : ensembles4
WT::Connector "1..1" -- "0..1" WT::InPort : inPort12
WT::Edge "0..9999" -- "1..1" WT::Vertex : incoming23
WT::Connector "1..1" -- "0..1" WT::OutPort : outPort14
WT::Edge "0..9999" -- "1..1" WT::Vertex : outgoing22
WT::Component "1..1" *-- "0..9999" WT::Port : ports28
WT::Edge "1..1" -- "1..1" WT::Vertex : source25
WT::ControlSubsystem "1..1" *-- "0..9999" WT::StateMachine : states16
WT::StateMachine "1..1" *-- "0..9999" WT::Vertex : states18
WT::Component "1..1" -- "0..9999" WT::StateMachine : states30
WT::Subsystem "0..9999" --* "1..1" WT::WTComponents : subsystems0
WT::Subsystem "0..9999" --* "1..1" WT::Subsystem : subsystems2
WT::Edge "1..1" -- "1..1" WT::Vertex : target26
WT::Edge "0..9999" --* "1..1" WT::StateMachine : transitions20
@enduml