@startuml
enum Kind {
  Nice
  NotNice
}
class NamedElement {
}
abstract class test::NamedElement {
}
class test::State {
  + kind : str
}
class test::StateMachine {
  + name : str
}
class test::Transition {
  + fire() : bool
}
NamedElement <|-- test::State
NamedElement <|-- test::StateMachine
NamedElement <|-- test::Transition
test::State "1..1" -- "1..1" test::Transition : source3
test::State "0..9999" --* "1..1" test::StateMachine : states1
test::State "1..1" -- "1..1" test::Transition : target6
test::StateMachine "1..1" *-- "0..9999" test::Transition : transitions0
@enduml