@startuml
class ASTNode {
}
class AbstractMethodDeclaration {
}
class AbstractMethodInvocation {
}
class AbstractTypeDeclaration {
}
class AbstractTypeQualifiedExpression {
}
class AbstractVariablesContainer {
}
class AnnotationTypeDeclaration {
}
class AnnotationTypeMemberDeclaration {
}
enum AssignmentKind {
  ASSIGN
  BIT_AND_ASSIGN
  BIT_OR_ASSIGN
  BIT_XOR_ASSIGN
  DIVIDE_ASSIGN
  LEFT_SHIFT_ASSIGN
  MINUS_ASSIGN
  PLUS_ASSIGN
  REMAINDER_ASSIGN
  RIGHT_SHIFT_SIGNED_ASSIGN
  RIGHT_SHIFT_UNSIGNED_ASSIGN
  TIMES_ASSIGN
}
class BodyDeclaration {
}
class ClassDeclaration {
}
class Comment {
}
class EnumDeclaration {
}
class Expression {
}
enum InfixExpressionKind {
  AND
  CONDITIONAL_AND
  CONDITIONAL_OR
  DIVIDE
  EQUALS
  GREATER
  GREATER_EQUALS
  LEFT_SHIFT
  LESS
  LESS_EQUALS
  MINUS
  NOT_EQUALS
  OR
  PLUS
  REMAINDER
  RIGHT_SHIFT_SIGNED
  RIGHT_SHIFT_UNSIGNED
  TIMES
  XOR
}
enum InheritanceKind {
  abstract
  final
  none
}
class InterfaceDeclaration {
}
class LabeledStatement {
}
class MethodDeclaration {
}
class NamedElement {
}
class NamespaceAccess {
}
enum PostfixExpressionKind {
  DECREMENT
  INCREMENT
}
enum PrefixExpressionKind {
  COMPLEMENT
  DECREMENT
  INCREMENT
  MINUS
  NOT
  PLUS
}
class PrimitiveType {
}
class SingleVariableDeclaration {
}
class Statement {
}
class Type {
}
class TypeDeclaration {
}
class UnresolvedItem {
}
class VariableDeclaration {
}
class VariableDeclarationFragment {
}
enum VisibilityKind {
  none
  private
  protected
  public
}
abstract class javaMM::ASTNode {
}
abstract class javaMM::AbstractMethodDeclaration {
}
abstract class javaMM::AbstractMethodInvocation {
}
abstract class javaMM::AbstractTypeDeclaration {
  + implements(type : any) : str
}
abstract class javaMM::AbstractTypeQualifiedExpression {
}
abstract class javaMM::AbstractVariablesContainer {
}
class javaMM::Annotation {
}
class javaMM::AnnotationMemberValuePair {
}
class javaMM::AnnotationTypeDeclaration {
}
class javaMM::AnnotationTypeMemberDeclaration {
}
class javaMM::AnonymousClassDeclaration {
}
class javaMM::Archive {
  + originalFilePath : str
}
class javaMM::ArrayAccess {
}
class javaMM::ArrayCreation {
}
class javaMM::ArrayInitializer {
}
class javaMM::ArrayLengthAccess {
}
class javaMM::ArrayType {
  + dimensions : int
}
class javaMM::AssertStatement {
}
class javaMM::Assignment {
  + operator : str
}
class javaMM::Block {
}
class javaMM::BlockComment {
}
abstract class javaMM::BodyDeclaration {
}
class javaMM::BooleanLiteral {
  + value : bool
}
class javaMM::BreakStatement {
}
class javaMM::CastExpression {
}
class javaMM::CatchClause {
}
class javaMM::CharacterLiteral {
  + escapedValue : str
}
class javaMM::ClassDeclaration {
  + getMethods() : str
  + hasCompareTo() : str
  + hasEquals() : str
  + hasHashcode() : str
}
class javaMM::ClassFile {
  + originalFilePath : str
}
class javaMM::ClassInstanceCreation {
}
abstract class javaMM::Comment {
  + content : str
  + enclosedByParent : bool
  + prefixOfParent : bool
}
class javaMM::CompilationUnit {
  + originalFilePath : str
}
class javaMM::ConditionalExpression {
}
class javaMM::ConstructorDeclaration {
}
class javaMM::ConstructorInvocation {
}
class javaMM::ContinueStatement {
}
class javaMM::DoStatement {
}
class javaMM::EmptyStatement {
}
class javaMM::EnhancedForStatement {
}
class javaMM::EnumConstantDeclaration {
}
class javaMM::EnumDeclaration {
}
abstract class javaMM::Expression {
}
class javaMM::ExpressionStatement {
}
class javaMM::FieldAccess {
}
class javaMM::FieldDeclaration {
}
class javaMM::ForStatement {
}
class javaMM::IfStatement {
}
class javaMM::ImportDeclaration {
  + static : bool
}
class javaMM::InfixExpression {
  + operator : str
  + operatorIsEquality() : str
}
class javaMM::Initializer {
}
class javaMM::InstanceofExpression {
}
class javaMM::InterfaceDeclaration {
}
class javaMM::Javadoc {
}
class javaMM::LabeledStatement {
}
class javaMM::LineComment {
}
class javaMM::Manifest {
}
class javaMM::ManifestAttribute {
  + key : str
  + value : str
}
class javaMM::ManifestEntry {
  + name : str
}
class javaMM::MemberRef {
}
class javaMM::MethodDeclaration {
  + extraArrayDimensions : int
}
class javaMM::MethodInvocation {
}
class javaMM::MethodRef {
}
class javaMM::MethodRefParameter {
  + name : str
  + varargs : bool
}
class javaMM::Model {
  + name : str
}
class javaMM::Modifier {
  + inheritance : str
  + native : bool
  + static : bool
  + strictfp : bool
  + synchronized : bool
  + transient : bool
  + visibility : str
  + volatile : bool
  + isLocal() : str
}
abstract class javaMM::NamedElement {
  + name : str
  + proxy : bool
}
abstract class javaMM::NamespaceAccess {
}
class javaMM::NullLiteral {
}
class javaMM::NumberLiteral {
  + tokenValue : str
}
class javaMM::Package {
}
class javaMM::PackageAccess {
}
class javaMM::ParameterizedType {
}
class javaMM::ParenthesizedExpression {
}
class javaMM::PostfixExpression {
  + operator : str
}
class javaMM::PrefixExpression {
  + operator : str
}
class javaMM::PrimitiveType {
}
class javaMM::PrimitiveTypeBoolean {
}
class javaMM::PrimitiveTypeByte {
}
class javaMM::PrimitiveTypeChar {
}
class javaMM::PrimitiveTypeDouble {
}
class javaMM::PrimitiveTypeFloat {
}
class javaMM::PrimitiveTypeInt {
}
class javaMM::PrimitiveTypeLong {
}
class javaMM::PrimitiveTypeShort {
}
class javaMM::PrimitiveTypeVoid {
}
class javaMM::ReturnStatement {
}
class javaMM::SingleVariableAccess {
}
class javaMM::SingleVariableDeclaration {
  + varargs : bool
}
abstract class javaMM::Statement {
}
class javaMM::StringLiteral {
  + escapedValue : str
}
class javaMM::SuperConstructorInvocation {
}
class javaMM::SuperFieldAccess {
}
class javaMM::SuperMethodInvocation {
}
class javaMM::SwitchCase {
  + default : bool
}
class javaMM::SwitchStatement {
}
class javaMM::SynchronizedStatement {
}
class javaMM::TagElement {
  + tagName : str
}
class javaMM::TextElement {
  + text : str
}
class javaMM::ThisExpression {
}
class javaMM::ThrowStatement {
}
class javaMM::TryStatement {
}
abstract class javaMM::Type {
}
class javaMM::TypeAccess {
}
abstract class javaMM::TypeDeclaration {
}
class javaMM::TypeDeclarationStatement {
}
class javaMM::TypeLiteral {
}
class javaMM::TypeParameter {
}
class javaMM::UnresolvedAnnotationDeclaration {
}
class javaMM::UnresolvedAnnotationTypeMemberDeclaration {
}
class javaMM::UnresolvedClassDeclaration {
}
class javaMM::UnresolvedEnumDeclaration {
}
class javaMM::UnresolvedInterfaceDeclaration {
}
class javaMM::UnresolvedItem {
}
class javaMM::UnresolvedItemAccess {
}
class javaMM::UnresolvedLabeledStatement {
}
class javaMM::UnresolvedMethodDeclaration {
}
class javaMM::UnresolvedSingleVariableDeclaration {
}
class javaMM::UnresolvedType {
}
class javaMM::UnresolvedTypeDeclaration {
}
class javaMM::UnresolvedVariableDeclarationFragment {
}
abstract class javaMM::VariableDeclaration {
  + extraArrayDimensions : int
}
class javaMM::VariableDeclarationExpression {
}
class javaMM::VariableDeclarationFragment {
}
class javaMM::VariableDeclarationStatement {
  + extraArrayDimensions : int
}
class javaMM::WhileStatement {
}
class javaMM::WildCardType {
  + upperBound : bool
}
ASTNode <|-- javaMM::AbstractMethodInvocation
ASTNode <|-- javaMM::AbstractVariablesContainer
ASTNode <|-- javaMM::AnonymousClassDeclaration
ASTNode <|-- javaMM::Comment
ASTNode <|-- javaMM::Expression
ASTNode <|-- javaMM::ImportDeclaration
ASTNode <|-- javaMM::MemberRef
ASTNode <|-- javaMM::MethodRef
ASTNode <|-- javaMM::MethodRefParameter
ASTNode <|-- javaMM::Modifier
ASTNode <|-- javaMM::NamedElement
ASTNode <|-- javaMM::NamespaceAccess
ASTNode <|-- javaMM::Statement
ASTNode <|-- javaMM::TagElement
ASTNode <|-- javaMM::TextElement
AbstractMethodDeclaration <|-- javaMM::ConstructorDeclaration
AbstractMethodDeclaration <|-- javaMM::MethodDeclaration
AbstractMethodInvocation <|-- javaMM::ClassInstanceCreation
AbstractMethodInvocation <|-- javaMM::ConstructorInvocation
AbstractMethodInvocation <|-- javaMM::MethodInvocation
AbstractMethodInvocation <|-- javaMM::SuperConstructorInvocation
AbstractMethodInvocation <|-- javaMM::SuperMethodInvocation
AbstractTypeDeclaration <|-- javaMM::AnnotationTypeDeclaration
AbstractTypeDeclaration <|-- javaMM::EnumDeclaration
AbstractTypeDeclaration <|-- javaMM::TypeDeclaration
AbstractTypeDeclaration <|-- javaMM::UnresolvedTypeDeclaration
AbstractTypeQualifiedExpression <|-- javaMM::SuperFieldAccess
AbstractTypeQualifiedExpression <|-- javaMM::SuperMethodInvocation
AbstractTypeQualifiedExpression <|-- javaMM::ThisExpression
AbstractVariablesContainer <|-- javaMM::FieldDeclaration
AbstractVariablesContainer <|-- javaMM::VariableDeclarationExpression
AbstractVariablesContainer <|-- javaMM::VariableDeclarationStatement
AnnotationTypeDeclaration <|-- javaMM::UnresolvedAnnotationDeclaration
AnnotationTypeMemberDeclaration <|-- javaMM::UnresolvedAnnotationTypeMemberDeclaration
BodyDeclaration <|-- javaMM::AbstractMethodDeclaration
BodyDeclaration <|-- javaMM::AbstractTypeDeclaration
BodyDeclaration <|-- javaMM::AnnotationTypeMemberDeclaration
BodyDeclaration <|-- javaMM::EnumConstantDeclaration
BodyDeclaration <|-- javaMM::FieldDeclaration
BodyDeclaration <|-- javaMM::Initializer
ClassDeclaration <|-- javaMM::UnresolvedClassDeclaration
Comment <|-- javaMM::BlockComment
Comment <|-- javaMM::Javadoc
Comment <|-- javaMM::LineComment
EnumDeclaration <|-- javaMM::UnresolvedEnumDeclaration
Expression <|-- javaMM::AbstractTypeQualifiedExpression
Expression <|-- javaMM::Annotation
Expression <|-- javaMM::ArrayAccess
Expression <|-- javaMM::ArrayCreation
Expression <|-- javaMM::ArrayInitializer
Expression <|-- javaMM::ArrayLengthAccess
Expression <|-- javaMM::Assignment
Expression <|-- javaMM::BooleanLiteral
Expression <|-- javaMM::CastExpression
Expression <|-- javaMM::CharacterLiteral
Expression <|-- javaMM::ClassInstanceCreation
Expression <|-- javaMM::ConditionalExpression
Expression <|-- javaMM::FieldAccess
Expression <|-- javaMM::InfixExpression
Expression <|-- javaMM::InstanceofExpression
Expression <|-- javaMM::MethodInvocation
Expression <|-- javaMM::NullLiteral
Expression <|-- javaMM::NumberLiteral
Expression <|-- javaMM::ParenthesizedExpression
Expression <|-- javaMM::PostfixExpression
Expression <|-- javaMM::PrefixExpression
Expression <|-- javaMM::SingleVariableAccess
Expression <|-- javaMM::StringLiteral
Expression <|-- javaMM::TypeAccess
Expression <|-- javaMM::TypeLiteral
Expression <|-- javaMM::UnresolvedItemAccess
Expression <|-- javaMM::VariableDeclarationExpression
InterfaceDeclaration <|-- javaMM::UnresolvedInterfaceDeclaration
LabeledStatement <|-- javaMM::UnresolvedLabeledStatement
MethodDeclaration <|-- javaMM::UnresolvedMethodDeclaration
NamedElement <|-- javaMM::AnnotationMemberValuePair
NamedElement <|-- javaMM::Archive
NamedElement <|-- javaMM::BodyDeclaration
NamedElement <|-- javaMM::ClassFile
NamedElement <|-- javaMM::CompilationUnit
NamedElement <|-- javaMM::LabeledStatement
NamedElement <|-- javaMM::Package
NamedElement <|-- javaMM::Type
NamedElement <|-- javaMM::UnresolvedItem
NamedElement <|-- javaMM::VariableDeclaration
NamespaceAccess <|-- javaMM::PackageAccess
NamespaceAccess <|-- javaMM::TypeAccess
NamespaceAccess <|-- javaMM::UnresolvedItemAccess
PrimitiveType <|-- javaMM::PrimitiveTypeBoolean
PrimitiveType <|-- javaMM::PrimitiveTypeByte
PrimitiveType <|-- javaMM::PrimitiveTypeChar
PrimitiveType <|-- javaMM::PrimitiveTypeDouble
PrimitiveType <|-- javaMM::PrimitiveTypeFloat
PrimitiveType <|-- javaMM::PrimitiveTypeInt
PrimitiveType <|-- javaMM::PrimitiveTypeLong
PrimitiveType <|-- javaMM::PrimitiveTypeShort
PrimitiveType <|-- javaMM::PrimitiveTypeVoid
SingleVariableDeclaration <|-- javaMM::UnresolvedSingleVariableDeclaration
Statement <|-- javaMM::AssertStatement
Statement <|-- javaMM::Block
Statement <|-- javaMM::BreakStatement
Statement <|-- javaMM::CatchClause
Statement <|-- javaMM::ConstructorInvocation
Statement <|-- javaMM::ContinueStatement
Statement <|-- javaMM::DoStatement
Statement <|-- javaMM::EmptyStatement
Statement <|-- javaMM::EnhancedForStatement
Statement <|-- javaMM::ExpressionStatement
Statement <|-- javaMM::ForStatement
Statement <|-- javaMM::IfStatement
Statement <|-- javaMM::LabeledStatement
Statement <|-- javaMM::ReturnStatement
Statement <|-- javaMM::SuperConstructorInvocation
Statement <|-- javaMM::SwitchCase
Statement <|-- javaMM::SwitchStatement
Statement <|-- javaMM::SynchronizedStatement
Statement <|-- javaMM::ThrowStatement
Statement <|-- javaMM::TryStatement
Statement <|-- javaMM::TypeDeclarationStatement
Statement <|-- javaMM::VariableDeclarationStatement
Statement <|-- javaMM::WhileStatement
Type <|-- javaMM::AbstractTypeDeclaration
Type <|-- javaMM::ArrayType
Type <|-- javaMM::ParameterizedType
Type <|-- javaMM::PrimitiveType
Type <|-- javaMM::TypeParameter
Type <|-- javaMM::UnresolvedType
Type <|-- javaMM::WildCardType
TypeDeclaration <|-- javaMM::ClassDeclaration
TypeDeclaration <|-- javaMM::InterfaceDeclaration
UnresolvedItem <|-- javaMM::UnresolvedAnnotationDeclaration
UnresolvedItem <|-- javaMM::UnresolvedAnnotationTypeMemberDeclaration
UnresolvedItem <|-- javaMM::UnresolvedClassDeclaration
UnresolvedItem <|-- javaMM::UnresolvedEnumDeclaration
UnresolvedItem <|-- javaMM::UnresolvedInterfaceDeclaration
UnresolvedItem <|-- javaMM::UnresolvedLabeledStatement
UnresolvedItem <|-- javaMM::UnresolvedMethodDeclaration
UnresolvedItem <|-- javaMM::UnresolvedSingleVariableDeclaration
UnresolvedItem <|-- javaMM::UnresolvedType
UnresolvedItem <|-- javaMM::UnresolvedTypeDeclaration
UnresolvedItem <|-- javaMM::UnresolvedVariableDeclarationFragment
VariableDeclaration <|-- javaMM::EnumConstantDeclaration
VariableDeclaration <|-- javaMM::SingleVariableDeclaration
VariableDeclaration <|-- javaMM::VariableDeclarationFragment
VariableDeclarationFragment <|-- javaMM::UnresolvedVariableDeclarationFragment
javaMM::AbstractTypeDeclaration "0..1" -- "1..1" javaMM::BodyDeclaration : abstractTypeDeclaration85
javaMM::Annotation "0..9999" --* "1..1" javaMM::SingleVariableDeclaration : annotations297
javaMM::Annotation "0..9999" --* "1..1" javaMM::VariableDeclarationExpression : annotations356
javaMM::Annotation "0..9999" --* "1..1" javaMM::VariableDeclarationStatement : annotations361
javaMM::Annotation "0..9999" --* "1..1" javaMM::BodyDeclaration : annotations86
javaMM::AnonymousClassDeclaration "0..1" --* "1..1" javaMM::ClassInstanceCreation : anonymousClassDeclaration111
javaMM::AnonymousClassDeclaration "0..1" --* "1..1" javaMM::EnumConstantDeclaration : anonymousClassDeclaration153
javaMM::AnonymousClassDeclaration "0..1" -- "1..1" javaMM::BodyDeclaration : anonymousClassDeclarationOwner88
javaMM::Archive "0..9999" --* "1..1" javaMM::Model : archives246
javaMM::AbstractMethodInvocation "1..1" *-- "0..9999" javaMM::Expression : arguments10
javaMM::EnumConstantDeclaration "1..1" *-- "0..9999" javaMM::Expression : arguments154
javaMM::ArrayAccess "1..1" *-- "1..1" javaMM::Expression : array61
javaMM::ArrayLengthAccess "1..1" *-- "1..1" javaMM::Expression : array76
javaMM::ClassFile "1..1" -- "0..1" javaMM::CompilationUnit : attachedSource106
javaMM::ManifestAttribute "0..9999" --* "1..1" javaMM::ManifestEntry : attributes210
javaMM::AbstractMethodDeclaration "1..1" *-- "0..1" javaMM::Block : body0
javaMM::Block "1..1" --* "1..1" javaMM::CatchClause : body101
javaMM::DoStatement "1..1" *-- "1..1" javaMM::Statement : body143
javaMM::EnhancedForStatement "1..1" *-- "1..1" javaMM::Statement : body146
javaMM::ForStatement "1..1" *-- "1..1" javaMM::Statement : body173
javaMM::Block "1..1" --* "1..1" javaMM::Initializer : body193
javaMM::LabeledStatement "1..1" *-- "1..1" javaMM::Statement : body201
javaMM::Block "1..1" --* "1..1" javaMM::SynchronizedStatement : body315
javaMM::Block "1..1" --* "1..1" javaMM::TryStatement : body325
javaMM::Statement "1..1" --* "1..1" javaMM::WhileStatement : body367
javaMM::BodyDeclaration "0..1" -- "1..1" javaMM::Modifier : bodyDeclaration249
javaMM::AbstractTypeDeclaration "1..1" *-- "0..9999" javaMM::BodyDeclaration : bodyDeclarations14
javaMM::AnonymousClassDeclaration "1..1" *-- "0..9999" javaMM::BodyDeclaration : bodyDeclarations58
javaMM::TypeAccess "0..1" --* "1..1" javaMM::WildCardType : bound363
javaMM::TypeAccess "0..9999" --* "1..1" javaMM::TypeParameter : bounds343
javaMM::CatchClause "0..1" -- "1..1" javaMM::SingleVariableDeclaration : catchClause302
javaMM::CatchClause "0..9999" --* "1..1" javaMM::TryStatement : catchClauses330
javaMM::ClassFile "0..9999" --* "1..1" javaMM::Model : classFiles243
javaMM::Archive "1..1" *-- "0..9999" javaMM::ClassFile : classFiles32
javaMM::AnonymousClassDeclaration "1..1" -- "0..1" javaMM::ClassInstanceCreation : classInstanceCreation60
javaMM::Comment "0..9999" -- "1..1" javaMM::CompilationUnit : commentList128
javaMM::ASTNode "1..1" *-- "0..9999" javaMM::Comment : comments40
javaMM::AbstractTypeDeclaration "1..1" *-- "0..9999" javaMM::Comment : commentsAfterBody16
javaMM::AbstractTypeDeclaration "1..1" *-- "0..9999" javaMM::Comment : commentsBeforeBody15
javaMM::CompilationUnit "0..9999" --* "1..1" javaMM::Model : compilationUnits240
javaMM::AbstractTypeDeclaration "1..1" --* "1..1" javaMM::TypeDeclarationStatement : declaration339
javaMM::AnnotationTypeMemberDeclaration "1..1" *-- "0..1" javaMM::Expression : default52
javaMM::ArrayCreation "1..1" *-- "0..9999" javaMM::Expression : dimensions66
javaMM::UnresolvedItem "0..1" -- "1..1" javaMM::UnresolvedItemAccess : element346
javaMM::ArrayType "1..1" *-- "1..1" javaMM::TypeAccess : elementType78
javaMM::ConditionalExpression "1..1" *-- "1..1" javaMM::Expression : elseExpression118
javaMM::IfStatement "1..1" *-- "0..1" javaMM::Statement : elseStatement181
javaMM::EnhancedForStatement "0..1" -- "1..1" javaMM::SingleVariableDeclaration : enhancedForStatement303
javaMM::Manifest "1..1" *-- "0..9999" javaMM::ManifestEntry : entryAttributes208
javaMM::EnumConstantDeclaration "0..9999" --* "1..1" javaMM::EnumDeclaration : enumConstants157
javaMM::CatchClause "1..1" *-- "1..1" javaMM::SingleVariableDeclaration : exception99
javaMM::ClassInstanceCreation "1..1" *-- "0..1" javaMM::Expression : expression113
javaMM::ConditionalExpression "1..1" *-- "1..1" javaMM::Expression : expression120
javaMM::DoStatement "1..1" *-- "1..1" javaMM::Expression : expression141
javaMM::EnhancedForStatement "1..1" *-- "1..1" javaMM::Expression : expression148
javaMM::Expression "1..1" --* "1..1" javaMM::ExpressionStatement : expression159
javaMM::Expression "1..1" --* "1..1" javaMM::FieldAccess : expression162
javaMM::Expression "0..1" --* "1..1" javaMM::ForStatement : expression165
javaMM::Expression "1..1" --* "1..1" javaMM::IfStatement : expression176
javaMM::Expression "0..1" --* "1..1" javaMM::MethodInvocation : expression224
javaMM::Expression "1..1" --* "1..1" javaMM::ParenthesizedExpression : expression281
javaMM::Expression "0..1" --* "1..1" javaMM::ReturnStatement : expression287
javaMM::Expression "0..1" --* "1..1" javaMM::SuperConstructorInvocation : expression304
javaMM::Expression "0..1" --* "1..1" javaMM::SwitchCase : expression308
javaMM::Expression "1..1" --* "1..1" javaMM::SwitchStatement : expression310
javaMM::Expression "1..1" --* "1..1" javaMM::SynchronizedStatement : expression317
javaMM::Expression "1..1" --* "1..1" javaMM::ThrowStatement : expression323
javaMM::Expression "1..1" --* "1..1" javaMM::WhileStatement : expression365
javaMM::AssertStatement "1..1" *-- "1..1" javaMM::Expression : expression37
javaMM::CastExpression "1..1" *-- "1..1" javaMM::Expression : expression94
javaMM::ArrayInitializer "1..1" *-- "0..9999" javaMM::Expression : expressions73
javaMM::Expression "0..9999" --* "1..1" javaMM::InfixExpression : extendedOperands190
javaMM::FieldAccess "1..1" *-- "1..1" javaMM::SingleVariableAccess : field161
javaMM::SingleVariableAccess "1..1" --* "1..1" javaMM::SuperFieldAccess : field306
javaMM::Block "0..1" --* "1..1" javaMM::TryStatement : finally327
javaMM::AbstractVariablesContainer "1..1" *-- "0..9999" javaMM::VariableDeclarationFragment : fragments27
javaMM::ASTNode "0..9999" --* "1..1" javaMM::TagElement : fragments320
javaMM::ImportDeclaration "1..1" -- "1..1" javaMM::NamedElement : importedElement184
javaMM::CompilationUnit "1..1" *-- "0..9999" javaMM::ImportDeclaration : imports131
javaMM::ArrayAccess "1..1" *-- "1..1" javaMM::Expression : index63
javaMM::Expression "0..1" --* "1..1" javaMM::VariableDeclaration : initializer351
javaMM::ArrayCreation "1..1" *-- "0..1" javaMM::ArrayInitializer : initializer68
javaMM::Expression "0..9999" --* "1..1" javaMM::ForStatement : initializers170
javaMM::ContinueStatement "1..1" -- "0..1" javaMM::LabeledStatement : label139
javaMM::BreakStatement "1..1" -- "0..1" javaMM::LabeledStatement : label93
javaMM::Assignment "1..1" *-- "1..1" javaMM::Expression : leftHandSide80
javaMM::Expression "1..1" --* "1..1" javaMM::InfixExpression : leftOperand187
javaMM::Expression "1..1" --* "1..1" javaMM::InstanceofExpression : leftOperand197
javaMM::Manifest "1..1" *-- "0..9999" javaMM::ManifestAttribute : mainAttributes206
javaMM::Archive "1..1" *-- "0..1" javaMM::Manifest : manifest33
javaMM::MemberRef "1..1" -- "1..1" javaMM::NamedElement : member213
javaMM::AnnotationMemberValuePair "1..1" -- "0..1" javaMM::AnnotationTypeMemberDeclaration : member47
javaMM::AssertStatement "1..1" *-- "0..1" javaMM::Expression : message35
javaMM::AbstractMethodDeclaration "1..1" -- "1..1" javaMM::MethodRef : method226
javaMM::AbstractMethodDeclaration "1..1" -- "1..1" javaMM::AbstractMethodInvocation : method9
javaMM::AbstractMethodDeclaration "0..1" -- "1..1" javaMM::SingleVariableDeclaration : methodDeclaration300
javaMM::Model "0..1" -- "1..1" javaMM::Package : model261
javaMM::Modifier "0..1" --* "1..1" javaMM::SingleVariableDeclaration : modifier293
javaMM::Modifier "0..1" --* "1..1" javaMM::VariableDeclarationExpression : modifier354
javaMM::Modifier "0..1" --* "1..1" javaMM::VariableDeclarationStatement : modifier359
javaMM::BodyDeclaration "1..1" *-- "0..1" javaMM::Modifier : modifier90
javaMM::Expression "1..1" --* "1..1" javaMM::PostfixExpression : operand283
javaMM::Expression "1..1" --* "1..1" javaMM::PrefixExpression : operand285
javaMM::ASTNode "1..1" -- "0..1" javaMM::ClassFile : originalClassFile44
javaMM::ASTNode "1..1" -- "0..1" javaMM::CompilationUnit : originalCompilationUnit42
javaMM::Model "1..1" *-- "0..9999" javaMM::Type : orphanTypes237
javaMM::Model "1..1" *-- "0..9999" javaMM::Package : ownedElements235
javaMM::AbstractTypeDeclaration "0..9999" --* "1..1" javaMM::Package : ownedElements259
javaMM::Package "1..1" *-- "0..9999" javaMM::Package : ownedPackages264
javaMM::ClassFile "1..1" -- "0..1" javaMM::Package : package109
javaMM::CompilationUnit "1..1" -- "0..1" javaMM::Package : package133
javaMM::AbstractTypeDeclaration "1..1" -- "0..1" javaMM::Package : package19
javaMM::Package "1..1" -- "0..1" javaMM::Package : package268
javaMM::Package "1..1" -- "1..1" javaMM::PackageAccess : package272
javaMM::EnhancedForStatement "1..1" *-- "1..1" javaMM::SingleVariableDeclaration : parameter151
javaMM::AbstractMethodDeclaration "1..1" *-- "0..9999" javaMM::SingleVariableDeclaration : parameters1
javaMM::MethodRef "1..1" *-- "0..9999" javaMM::MethodRefParameter : parameters230
javaMM::MemberRef "1..1" *-- "0..1" javaMM::TypeAccess : qualifier214
javaMM::MethodRef "1..1" *-- "0..1" javaMM::TypeAccess : qualifier228
javaMM::AbstractTypeQualifiedExpression "1..1" *-- "0..1" javaMM::TypeAccess : qualifier23
javaMM::PackageAccess "1..1" *-- "0..1" javaMM::PackageAccess : qualifier275
javaMM::Expression "0..1" --* "1..1" javaMM::SingleVariableAccess : qualifier290
javaMM::NamespaceAccess "0..1" --* "1..1" javaMM::TypeAccess : qualifier335
javaMM::ASTNode "0..1" --* "1..1" javaMM::UnresolvedItemAccess : qualifier348
javaMM::MethodDeclaration "1..1" -- "0..1" javaMM::MethodDeclaration : redefinedMethodDeclaration220
javaMM::MethodDeclaration "1..1" -- "0..9999" javaMM::MethodDeclaration : redefinitions222
javaMM::MethodDeclaration "1..1" *-- "0..1" javaMM::TypeAccess : returnType217
javaMM::Assignment "1..1" *-- "1..1" javaMM::Expression : rightHandSide82
javaMM::Expression "1..1" --* "1..1" javaMM::InfixExpression : rightOperand185
javaMM::InstanceofExpression "1..1" *-- "1..1" javaMM::TypeAccess : rightOperand195
javaMM::Modifier "1..1" -- "0..1" javaMM::SingleVariableDeclaration : singleVariableDeclaration251
javaMM::Statement "0..9999" --* "1..1" javaMM::SwitchStatement : statements312
javaMM::Block "1..1" *-- "0..9999" javaMM::Statement : statements91
javaMM::ClassDeclaration "1..1" *-- "0..1" javaMM::TypeAccess : superClass126
javaMM::AbstractTypeDeclaration "1..1" *-- "0..9999" javaMM::TypeAccess : superInterfaces20
javaMM::Javadoc "1..1" *-- "0..9999" javaMM::TagElement : tags200
javaMM::ConditionalExpression "1..1" *-- "1..1" javaMM::Expression : thenExpression123
javaMM::IfStatement "1..1" *-- "1..1" javaMM::Statement : thenStatement178
javaMM::AbstractMethodDeclaration "1..1" *-- "0..9999" javaMM::TypeAccess : thrownExceptions2
javaMM::AbstractTypeDeclaration "0..1" -- "1..1" javaMM::ClassFile : type103
javaMM::ClassInstanceCreation "1..1" *-- "1..1" javaMM::TypeAccess : type115
javaMM::MethodRefParameter "1..1" *-- "1..1" javaMM::TypeAccess : type232
javaMM::AbstractVariablesContainer "1..1" *-- "0..1" javaMM::TypeAccess : type25
javaMM::ParameterizedType "1..1" *-- "1..1" javaMM::TypeAccess : type276
javaMM::Annotation "1..1" *-- "1..1" javaMM::TypeAccess : type28
javaMM::SingleVariableDeclaration "1..1" *-- "1..1" javaMM::TypeAccess : type295
javaMM::Type "1..1" -- "1..1" javaMM::TypeAccess : type334
javaMM::TypeAccess "1..1" --* "1..1" javaMM::TypeLiteral : type341
javaMM::AnnotationTypeMemberDeclaration "1..1" *-- "1..1" javaMM::TypeAccess : type54
javaMM::ArrayCreation "1..1" *-- "1..1" javaMM::TypeAccess : type70
javaMM::CastExpression "1..1" *-- "1..1" javaMM::TypeAccess : type96
javaMM::AbstractMethodInvocation "1..1" *-- "0..9999" javaMM::TypeAccess : typeArguments11
javaMM::ParameterizedType "1..1" *-- "0..9999" javaMM::TypeAccess : typeArguments278
javaMM::TypeDeclaration "1..1" *-- "0..9999" javaMM::TypeParameter : typeParameters337
javaMM::AbstractMethodDeclaration "1..1" *-- "0..9999" javaMM::TypeParameter : typeParameters4
javaMM::AbstractTypeDeclaration "0..9999" -- "1..1" javaMM::CompilationUnit : types136
javaMM::Model "1..1" *-- "0..9999" javaMM::UnresolvedItem : unresolvedItems238
javaMM::Expression "0..9999" --* "1..1" javaMM::ForStatement : updaters167
javaMM::SingleVariableAccess "0..9999" -- "1..1" javaMM::VariableDeclaration : usageInVariableAccess353
javaMM::AnnotationMemberValuePair "0..9999" -- "1..1" javaMM::AnnotationTypeMemberDeclaration : usages57
javaMM::AbstractMethodDeclaration "1..1" -- "0..9999" javaMM::AbstractMethodInvocation : usages7
javaMM::BreakStatement "0..9999" -- "1..1" javaMM::LabeledStatement : usagesInBreakStatements203
javaMM::ContinueStatement "0..9999" -- "1..1" javaMM::LabeledStatement : usagesInContinueStatements204
javaMM::AbstractMethodDeclaration "1..1" -- "0..9999" javaMM::MethodRef : usagesInDocComments6
javaMM::ImportDeclaration "0..9999" -- "1..1" javaMM::NamedElement : usagesInImports258
javaMM::Package "1..1" -- "0..9999" javaMM::PackageAccess : usagesInPackageAccess270
javaMM::Type "1..1" -- "0..9999" javaMM::TypeAccess : usagesInTypeAccess333
javaMM::AnnotationMemberValuePair "1..1" *-- "1..1" javaMM::Expression : value49
javaMM::Annotation "1..1" *-- "0..9999" javaMM::AnnotationMemberValuePair : values30
javaMM::SingleVariableAccess "1..1" -- "1..1" javaMM::VariableDeclaration : variable289
javaMM::Modifier "1..1" -- "0..1" javaMM::VariableDeclarationExpression : variableDeclarationExpression256
javaMM::Modifier "1..1" -- "0..1" javaMM::VariableDeclarationStatement : variableDeclarationStatement254
javaMM::AbstractVariablesContainer "0..1" -- "1..1" javaMM::VariableDeclarationFragment : variablesContainer358
@enduml