@startuml
class Company::Category {
  + name : str
}
class Company::Client {
}
class Company::CompanyModel {
}
abstract class Company::Division {
  + name : str
}
class Company::Employee {
}
class Company::Organisation {
  + city : str
  + completeAddress : str
  + name : str
}
abstract class Company::Person {
  + fullName : str
}
class Company::Project {
  + budget : int
  + name : str
}
class Company::ServiceLine {
}
class Company::Topic {
  + id : str
}
class Company::Unit {
}
class Division {
}
class Person {
}
Division <|-- Company::ServiceLine
Division <|-- Company::Unit
Person <|-- Company::Client
Person <|-- Company::Employee
Company::Person "1..1" -- "0..9999" Company::Project : assignedTo0
Company::Category "0..9999" --* "1..1" Company::CompanyModel : categories16
Company::Category "1..1" -- "1..1" Company::Topic : category13
Company::CompanyModel "1..1" *-- "1..1" Company::Organisation : company14
Company::CompanyModel "1..1" *-- "0..9999" Company::Division : division21
Company::Person "1..1" -- "0..1" Company::Unit : employed1
Company::Division "0..9999" --* "1..1" Company::Organisation : lines8
Company::Organisation "1..1" *-- "0..9999" Company::Person : persons3
Company::Organisation "1..1" *-- "0..9999" Company::Project : projects5
Company::Project "1..1" -- "1..1" Company::Topic : related10
Company::Category "1..1" -- "0..9999" Company::Topic : topics12
Company::CompanyModel "1..1" *-- "0..9999" Company::Topic : topics18
@enduml