@startuml
class Error {
}
class errors::CheckError {
  + nameCk : str
  + nameTable : str
  + porcent : str
}
class errors::ColumnCk {
  + columnName : str
}
class errors::ColumnFk {
  + nameColumn : str
}
class errors::Error {
}
class errors::Errores {
}
class errors::ForeignError {
  + nameFk : str
  + porcent : str
}
class errors::Table {
  + nameTable : str
}
class errors::ValueCk {
  + value : str
}
Error <|-- errors::CheckError
Error <|-- errors::ForeignError
errors::ColumnFk "0..9999" --* "1..1" errors::Table : columnCont5
errors::CheckError "1..1" *-- "0..9999" errors::ColumnCk : columns7
errors::Error "0..9999" --* "1..1" errors::Errores : errores0
errors::ForeignError "1..1" *-- "0..1" errors::Table : tableCont1
errors::ForeignError "1..1" *-- "0..1" errors::Table : tableRef2
errors::ColumnCk "1..1" *-- "0..9999" errors::ValueCk : values8
@enduml