@startuml
class BinaryExp {
}
class Expression {
}
class rules::core::BinaryExp {
}
class rules::core::Constant {
  + integerValue : int
}
class rules::core::Div {
}
class rules::core::Equals {
}
abstract class rules::core::Expression {
}
class rules::core::Filter {
}
class rules::core::Greater {
}
class rules::core::If {
}
class rules::core::Lower {
}
class rules::core::Max {
}
class rules::core::Min {
}
class rules::core::Minus {
}
class rules::core::Mult {
}
class rules::core::Plus {
}
class rules::core::Rule {
}
BinaryExp <|-- rules::core::Div
BinaryExp <|-- rules::core::Equals
BinaryExp <|-- rules::core::Greater
BinaryExp <|-- rules::core::Lower
BinaryExp <|-- rules::core::Max
BinaryExp <|-- rules::core::Min
BinaryExp <|-- rules::core::Minus
BinaryExp <|-- rules::core::Mult
BinaryExp <|-- rules::core::Plus
Expression <|-- rules::core::BinaryExp
Expression <|-- rules::core::Constant
Expression <|-- rules::core::If
rules::core::Expression "1..1" --* "1..1" rules::core::Rule : condition0
rules::core::Expression "0..1" --* "1..1" rules::core::If : condition6
rules::core::Expression "0..1" --* "1..1" rules::core::If : elsePart11
rules::core::BinaryExp "1..1" *-- "1..1" rules::core::Expression : lhs3
rules::core::BinaryExp "1..1" *-- "1..1" rules::core::Expression : rhs1
rules::core::Expression "0..1" --* "1..1" rules::core::If : thenPart8
@enduml