@startuml
class AddAccessorDeclaration {
}
class Argument {
}
class ArrayType {
}
class AttributeSection {
}
class BuiltInClassType {
}
class BuiltInType {
}
class ClassBase {
}
class ConstantDeclaration {
}
class ConstructorInitializer {
}
class DelegateDeclaration {
}
class EventDeclaration {
}
class FieldDeclaration {
}
class FormalParameterList {
}
class GetAccessorDeclaration {
}
class IntegralType {
}
class MaybeEmptyBlock {
}
class OperatorDeclarator {
}
class PropertyDeclaration {
}
class RemoveAccessorDeclaration {
}
class ResourceAquisition {
}
class SetAccessorDeclaration {
}
class TypeOrVoid {
}
class VariableInitializer {
}
class cSharp::AccessorDeclarations {
}
class cSharp::AddAccessorDeclaration {
}
class cSharp::Argument {
}
class cSharp::ArgumentList {
}
class cSharp::ArrayInitializer {
}
class cSharp::ArrayType {
}
class cSharp::Attribute {
}
class cSharp::AttributeArguments {
}
class cSharp::AttributeList {
}
class cSharp::AttributeName {
}
class cSharp::AttributeSection {
}
class cSharp::Attributes {
}
class cSharp::BinaryOperatorDeclarator {
  + overBinOperator : str
}
class cSharp::Block {
}
class cSharp::Bool {
}
class cSharp::BreakStatement {
}
class cSharp::BuiltInClassType {
}
class cSharp::BuiltInType {
}
class cSharp::Byte {
}
class cSharp::CatchClauses {
}
class cSharp::Char {
}
class cSharp::ClassBase {
}
class cSharp::ClassBody {
}
class cSharp::ClassDeclaration {
  + classModifier : str
}
class cSharp::ClassMemberDeclaration {
}
class cSharp::CompilationUnit {
}
class cSharp::ConstantDeclaration {
}
class cSharp::ConstantDeclarator {
}
class cSharp::ConstructorDeclaration {
  + constModifier : str
}
class cSharp::ConstructorDeclarator {
}
class cSharp::ConstructorInitializer {
}
class cSharp::ContinueStatement {
}
class cSharp::ConversionOperatorDeclarator {
}
class cSharp::Decimal {
}
class cSharp::DeclarationStatment {
}
class cSharp::DelegateDeclaration {
}
class cSharp::DestructorDeclaration {
}
class cSharp::DoStatement {
}
class cSharp::Double {
}
class cSharp::ElsePart {
}
class cSharp::EmbeddedStatement {
}
class cSharp::EnumBody {
}
class cSharp::EnumDeclaration {
}
class cSharp::EnumMemberDeclaration {
}
class cSharp::EventAccessorDeclarations {
}
class cSharp::EventDeclaration {
}
class cSharp::Expression {
}
class cSharp::Expression2 {
}
class cSharp::ExpressionList {
}
class cSharp::FieldDeclaration {
}
class cSharp::FinallyClause {
}
class cSharp::FixedParameter {
}
class cSharp::FixedParameters {
}
class cSharp::Float {
}
class cSharp::ForInitializer {
}
class cSharp::ForStatement {
}
class cSharp::ForeachStatement {
}
class cSharp::FormalParameterList {
}
class cSharp::GeneralCatchclause {
}
class cSharp::GetAccessorDeclaration {
}
class cSharp::GlobalAttributeSection {
}
class cSharp::GlobalAttributes {
}
class cSharp::GotoStatement {
}
class cSharp::Identifier {
}
class cSharp::IfStatement {
}
class cSharp::IndexerDeclaration {
  + idModifier : str
}
class cSharp::IndexerDeclarator {
}
class cSharp::Int {
}
class cSharp::IntegralType {
}
class cSharp::InterfaceAccessors {
}
class cSharp::InterfaceBody {
}
class cSharp::InterfaceDeclaration {
}
class cSharp::InterfaceEventDeclaration {
}
class cSharp::InterfaceIndexerDeclaration {
}
class cSharp::InterfaceMemberDeclaration {
}
class cSharp::InterfaceMethodDeclaration {
}
class cSharp::InterfacePropertyDeclaration {
}
class cSharp::IterationStatement {
}
class cSharp::JumpStatement {
}
class cSharp::LabeledStatement {
}
class cSharp::LocalVariableDeclaration {
}
class cSharp::LocalconstantDeclaration {
}
class cSharp::LockStatement {
}
class cSharp::Long {
}
class cSharp::MaybeEmptyBlock {
}
class cSharp::MethodDeclaration {
}
class cSharp::MethodHeader {
  + modifier : str
}
class cSharp::NamespaceBody {
}
class cSharp::NamespaceDeclaration {
}
class cSharp::NamespaceMemberDeclaration {
}
class cSharp::NonArrayType {
}
class cSharp::Object {
}
class cSharp::OperatorDeclaration {
  + opModifier : str
}
class cSharp::OperatorDeclarator {
}
class cSharp::ParameterArray {
}
class cSharp::PrimaryExpression {
  + literal : str
  + predefinedType : str
  + rankSpecifier : str
}
class cSharp::PrimaryExpression2 {
  + incrementeDecrement : str
}
class cSharp::PropertyDeclaration {
}
class cSharp::QualifiedIdentifier {
}
class cSharp::QualifiedIdentifierList {
}
class cSharp::RemoveAccessorDeclaration {
}
class cSharp::ResourceAquisition {
}
class cSharp::ReturnStatement {
}
class cSharp::SByte {
}
class cSharp::SelectionStatement {
}
class cSharp::SetAccessorDeclaration {
}
class cSharp::Short {
}
class cSharp::SpecificCatchClause {
}
class cSharp::Statement {
}
class cSharp::StatementExpression {
  + assignementOperator : str
  + incrimentDecrement : str
}
class cSharp::StatementExpressionList {
}
class cSharp::StaticConstructorDeclaration {
  + staticCosntModifier : str
}
class cSharp::String {
}
class cSharp::SwitchLabel {
}
class cSharp::SwitchSection {
}
class cSharp::SwitchStatement {
}
class cSharp::ThrowStatement {
}
class cSharp::TryStatement {
}
class cSharp::Type {
}
class cSharp::TypeDeclaration {
}
class cSharp::TypeOrVoid {
}
class cSharp::UInt {
}
class cSharp::ULong {
}
class cSharp::UShort {
}
class cSharp::UnaryExpression {
  + expUnaryOperator : str
}
class cSharp::UnaryOperatorDeclarator {
}
class cSharp::UsingDirective {
}
class cSharp::UsingStatement {
}
class cSharp::VariableDeclarator {
}
class cSharp::VariableInitializer {
}
class cSharp::Void {
}
class cSharp::WhileStatement {
}
AddAccessorDeclaration <|-- cSharp::Block
Argument <|-- cSharp::Expression
ArrayType <|-- cSharp::NonArrayType
AttributeSection <|-- cSharp::AttributeList
BuiltInClassType <|-- cSharp::Object
BuiltInClassType <|-- cSharp::String
BuiltInType <|-- cSharp::Bool
BuiltInType <|-- cSharp::BuiltInClassType
BuiltInType <|-- cSharp::Decimal
BuiltInType <|-- cSharp::Double
BuiltInType <|-- cSharp::Float
BuiltInType <|-- cSharp::IntegralType
ClassBase <|-- cSharp::BuiltInClassType
ConstantDeclaration <|-- cSharp::Type
ConstructorInitializer <|-- cSharp::ArgumentList
DelegateDeclaration <|-- cSharp::TypeOrVoid
EventDeclaration <|-- cSharp::Type
FieldDeclaration <|-- cSharp::Type
FormalParameterList <|-- cSharp::FixedParameters
GetAccessorDeclaration <|-- cSharp::MaybeEmptyBlock
IntegralType <|-- cSharp::Byte
IntegralType <|-- cSharp::Char
IntegralType <|-- cSharp::Int
IntegralType <|-- cSharp::Long
IntegralType <|-- cSharp::SByte
IntegralType <|-- cSharp::Short
IntegralType <|-- cSharp::UInt
IntegralType <|-- cSharp::ULong
IntegralType <|-- cSharp::UShort
MaybeEmptyBlock <|-- cSharp::Block
OperatorDeclarator <|-- cSharp::BinaryOperatorDeclarator
OperatorDeclarator <|-- cSharp::ConversionOperatorDeclarator
OperatorDeclarator <|-- cSharp::UnaryOperatorDeclarator
PropertyDeclaration <|-- cSharp::Type
RemoveAccessorDeclaration <|-- cSharp::Block
ResourceAquisition <|-- cSharp::Expression
ResourceAquisition <|-- cSharp::LocalVariableDeclaration
SetAccessorDeclaration <|-- cSharp::MaybeEmptyBlock
TypeOrVoid <|-- cSharp::Void
VariableInitializer <|-- cSharp::ArrayInitializer
VariableInitializer <|-- cSharp::Expression
cSharp::Attributes "0..1" --* "1..1" cSharp::FixedParameter : Att468
cSharp::AccessorDeclarations "0..1" --* "1..1" cSharp::Type : accDeclarate187
cSharp::AccessorDeclarations "0..1" --* "1..1" cSharp::IndexerDeclaration : accDeclaration407
cSharp::AddAccessorDeclaration "0..1" --* "1..1" cSharp::EventAccessorDeclarations : addAccessor422
cSharp::Expression2 "0..1" --* "1..1" cSharp::Expression2 : ampExp271
cSharp::Expression "0..1" --* "1..1" cSharp::Expression2 : ampExp67
cSharp::Argument "0..1" --* "1..1" cSharp::ArgumentList : arg371
cSharp::Argument "0..9999" --* "1..1" cSharp::ArgumentList : args373
cSharp::ArgumentList "0..1" --* "1..1" cSharp::PrimaryExpression : argumentList139
cSharp::ArgumentList "0..9999" --* "1..1" cSharp::PrimaryExpression2 : argumentList154
cSharp::ArgumentList "0..1" --* "1..1" cSharp::StatementExpression : argumentList672
cSharp::ArrayType "0..1" --* "1..1" cSharp::ParameterArray : array458
cSharp::ArrayInitializer "0..9999" --* "1..1" cSharp::PrimaryExpression : arrayInitializer129
cSharp::ArrayInitializer "0..1" --* "1..1" cSharp::PrimaryExpression : arrayInitializer2133
cSharp::ArrayType "0..1" --* "1..1" cSharp::PrimaryExpression : arrayType131
cSharp::Attributes "0..1" --* "1..1" cSharp::EventAccessorDeclarations : att1419
cSharp::AccessorDeclarations "1..1" *-- "0..1" cSharp::Attributes : att2434
cSharp::Attributes "0..1" --* "1..1" cSharp::EnumMemberDeclaration : att248
cSharp::Attributes "0..1" --* "1..1" cSharp::InterfaceAccessors : att294
cSharp::Attributes "0..1" --* "1..1" cSharp::EventAccessorDeclarations : att424
cSharp::AccessorDeclarations "1..1" *-- "0..1" cSharp::Attributes : att429
cSharp::Attributes "0..1" --* "1..1" cSharp::ParameterArray : att455
cSharp::Attribute "1..1" *-- "0..1" cSharp::AttributeArguments : attArguments21
cSharp::Attribute "0..1" --* "1..1" cSharp::AttributeList : attribute14
cSharp::AttributeList "0..1" --* "1..1" cSharp::GlobalAttributeSection : attributes11
cSharp::AttributeSection "0..9999" --* "1..1" cSharp::Attributes : attributes13
cSharp::Attribute "0..9999" --* "1..1" cSharp::AttributeList : attributes16
cSharp::Expression2 "0..1" --* "1..1" cSharp::Expression2 : barExp259
cSharp::Expression "0..1" --* "1..1" cSharp::Expression2 : barExp55
cSharp::BinaryOperatorDeclarator "1..1" *-- "0..1" cSharp::Type : binType389
cSharp::Block "0..1" --* "1..1" cSharp::EmbeddedStatement : block544
cSharp::Block "0..1" --* "1..1" cSharp::TryStatement : block570
cSharp::Block "0..1" --* "1..1" cSharp::FinallyClause : block580
cSharp::Block "0..1" --* "1..1" cSharp::GeneralCatchclause : block590
cSharp::Block "0..1" --* "1..1" cSharp::SpecificCatchClause : block602
cSharp::BreakStatement "0..1" --* "1..1" cSharp::JumpStatement : breakStat605
cSharp::BuiltInType "0..1" --* "1..1" cSharp::Expression2 : buildInType85
cSharp::BuiltInType "0..1" --* "1..1" cSharp::NonArrayType : builtType200
cSharp::CatchClauses "0..1" --* "1..1" cSharp::TryStatement : catchClauses573
cSharp::Attributes "0..9999" --* "1..1" cSharp::ClassBody : classAtt319
cSharp::ClassBase "0..1" --* "1..1" cSharp::ClassDeclaration : classBase315
cSharp::ClassBody "0..1" --* "1..1" cSharp::ClassDeclaration : classBody317
cSharp::ClassDeclaration "0..1" --* "1..1" cSharp::TypeDeclaration : classDeclaration228
cSharp::ClassBody "1..1" *-- "0..9999" cSharp::ClassMemberDeclaration : classDeclaration322
cSharp::ClassDeclaration "1..1" *-- "0..1" cSharp::Identifier : className312
cSharp::ConstructorDeclarator "1..1" *-- "0..1" cSharp::Identifier : className363
cSharp::BuiltInClassType "0..1" --* "1..1" cSharp::SpecificCatchClause : classType593
cSharp::ClassMemberDeclaration "1..1" *-- "0..1" cSharp::ConstantDeclaration : constDeclaration328
cSharp::ConstantDeclarator "0..1" --* "1..1" cSharp::Type : constDeclarator195
cSharp::ConstantDeclarator "0..1" --* "1..1" cSharp::LocalconstantDeclaration : constDeclarator519
cSharp::ConstantDeclarator "0..9999" --* "1..1" cSharp::Type : constDeclarators197
cSharp::ConstantDeclarator "0..9999" --* "1..1" cSharp::LocalconstantDeclaration : constDeclarators522
cSharp::ConstructorDeclarator "1..1" *-- "0..1" cSharp::ConstructorInitializer : constInitializer369
cSharp::ConstructorDeclaration "1..1" *-- "0..1" cSharp::ConstructorDeclarator : constrDeclarator358
cSharp::ClassMemberDeclaration "1..1" *-- "0..1" cSharp::ConstructorDeclaration : constructorDeclaration341
cSharp::ContinueStatement "0..1" --* "1..1" cSharp::JumpStatement : continueStat607
cSharp::ConversionOperatorDeclarator "1..1" *-- "0..1" cSharp::Identifier : conversionName386
cSharp::DeclarationStatment "0..1" --* "1..1" cSharp::Statement : declareStat508
cSharp::DelegateDeclaration "0..1" --* "1..1" cSharp::TypeDeclaration : delegateDeclaration234
cSharp::ClassMemberDeclaration "1..1" *-- "0..1" cSharp::DestructorDeclaration : destructorDeclaration343
cSharp::Expression "0..1" --* "1..1" cSharp::Expression2 : divExp105
cSharp::Expression2 "0..1" --* "1..1" cSharp::Expression2 : divExp2109
cSharp::DoStatement "0..1" --* "1..1" cSharp::IterationStatement : doStatement629
cSharp::ElsePart "0..1" --* "1..1" cSharp::IfStatement : elsePart719
cSharp::EmbeddedStatement "0..1" --* "1..1" cSharp::Statement : embeddedStat510
cSharp::EmbeddedStatement "0..1" --* "1..1" cSharp::UsingStatement : embeddedStat552
cSharp::EmbeddedStatement "0..1" --* "1..1" cSharp::LockStatement : embeddedStat567
cSharp::EmbeddedStatement "0..1" --* "1..1" cSharp::ForeachStatement : embeddedStatement644
cSharp::EmbeddedStatement "0..1" --* "1..1" cSharp::ForStatement : embeddedStatement654
cSharp::DoStatement "1..1" *-- "0..1" cSharp::EmbeddedStatement : embeddedStatement684
cSharp::EmbeddedStatement "0..1" --* "1..1" cSharp::WhileStatement : embeddedStatement693
cSharp::EmbeddedStatement "0..1" --* "1..1" cSharp::IfStatement : embeddedStatement716
cSharp::ElsePart "1..1" *-- "0..1" cSharp::EmbeddedStatement : embeddedStatement721
cSharp::MaybeEmptyBlock "0..1" --* "1..1" cSharp::StaticConstructorDeclaration : emptyBlock350
cSharp::DestructorDeclaration "1..1" *-- "0..1" cSharp::MaybeEmptyBlock : emptyBlock355
cSharp::ConstructorDeclaration "1..1" *-- "0..1" cSharp::MaybeEmptyBlock : emptyBlock360
cSharp::MaybeEmptyBlock "0..1" --* "1..1" cSharp::OperatorDeclaration : emptyBlock378
cSharp::EnumBody "0..1" --* "1..1" cSharp::EnumDeclaration : enumBody241
cSharp::EnumDeclaration "0..1" --* "1..1" cSharp::TypeDeclaration : enumDeclaration232
cSharp::EnumBody "1..1" *-- "0..1" cSharp::EnumMemberDeclaration : enumDeclaration243
cSharp::EnumBody "1..1" *-- "0..9999" cSharp::EnumMemberDeclaration : enumDeclarations245
cSharp::Expression2 "0..1" --* "1..1" cSharp::Expression2 : equalityExp277
cSharp::Expression "0..1" --* "1..1" cSharp::Expression2 : equalityExp73
cSharp::EventAccessorDeclarations "0..1" --* "1..1" cSharp::Type : eventAccessorDeclarations182
cSharp::ClassMemberDeclaration "1..1" *-- "0..1" cSharp::EventDeclaration : eventDeclaration332
cSharp::Expression "1..1" *-- "0..1" cSharp::Expression2 : exp235
cSharp::EnumMemberDeclaration "1..1" *-- "0..1" cSharp::Expression : exp254
cSharp::Expression2 "0..1" --* "1..1" cSharp::Expression2 : exp265
cSharp::Expression "0..1" --* "1..1" cSharp::Expression : exp33
cSharp::ConstantDeclarator "1..1" *-- "0..1" cSharp::Expression : exp495
cSharp::Expression "0..1" --* "1..1" cSharp::LockStatement : exp564
cSharp::Expression "0..1" --* "1..1" cSharp::Expression2 : exp61
cSharp::AttributeArguments "1..1" *-- "0..1" cSharp::ExpressionList : expresionList23
cSharp::Expression "0..1" --* "1..1" cSharp::PrimaryExpression : expression144
cSharp::Expression "0..1" --* "1..1" cSharp::ExpressionList : expression25
cSharp::Expression "0..1" --* "1..1" cSharp::ThrowStatement : expression615
cSharp::Expression "0..1" --* "1..1" cSharp::ReturnStatement : expression618
cSharp::Expression "0..1" --* "1..1" cSharp::GotoStatement : expression624
cSharp::Expression "0..1" --* "1..1" cSharp::ForeachStatement : expression641
cSharp::Expression "0..9999" --* "1..1" cSharp::ForStatement : expression649
cSharp::Expression "0..1" --* "1..1" cSharp::StatementExpression : expression681
cSharp::DoStatement "1..1" *-- "0..1" cSharp::Expression : expression687
cSharp::Expression "0..1" --* "1..1" cSharp::WhileStatement : expression690
cSharp::Expression "0..1" --* "1..1" cSharp::SwitchStatement : expression700
cSharp::Expression "0..1" --* "1..1" cSharp::SwitchLabel : expression710
cSharp::Expression "0..1" --* "1..1" cSharp::IfStatement : expression713
cSharp::ExpressionList "0..1" --* "1..1" cSharp::PrimaryExpression : expressionList126
cSharp::ExpressionList "0..9999" --* "1..1" cSharp::PrimaryExpression2 : expressionList157
cSharp::Expression "0..9999" --* "1..1" cSharp::ExpressionList : expressions27
cSharp::ClassMemberDeclaration "1..1" *-- "0..1" cSharp::FieldDeclaration : fieldDeclaration324
cSharp::FinallyClause "0..1" --* "1..1" cSharp::TryStatement : finally575
cSharp::FinallyClause "0..1" --* "1..1" cSharp::TryStatement : finallyClause577
cSharp::ConversionOperatorDeclarator "1..1" *-- "0..1" cSharp::Type : firstType384
cSharp::FixedParameter "0..1" --* "1..1" cSharp::FixedParameters : fixParameter464
cSharp::FixedParameter "0..9999" --* "1..1" cSharp::FixedParameters : fixParameters465
cSharp::ForInitializer "0..9999" --* "1..1" cSharp::ForStatement : forInitializer647
cSharp::ForStatement "0..1" --* "1..1" cSharp::IterationStatement : forStatement631
cSharp::ForeachStatement "0..1" --* "1..1" cSharp::IterationStatement : foreachStatement633
cSharp::ConstructorDeclarator "1..1" *-- "0..1" cSharp::FormalParameterList : formalList366
cSharp::FormalParameterList "0..1" --* "1..1" cSharp::IndexerDeclarator : formalList413
cSharp::FormalParameterList "0..1" --* "1..1" cSharp::MethodHeader : formalParameters450
cSharp::FormalParameterList "0..1" --* "1..1" cSharp::TypeOrVoid : formalParameters480
cSharp::CatchClauses "1..1" *-- "0..1" cSharp::GeneralCatchclause : genCatchClause585
cSharp::AccessorDeclarations "1..1" *-- "0..1" cSharp::GetAccessorDeclaration : getAcc432
cSharp::CompilationUnit "1..1" *-- "0..1" cSharp::GlobalAttributes : globalAtt1
cSharp::GlobalAttributeSection "0..9999" --* "1..1" cSharp::GlobalAttributes : globalAttSections9
cSharp::GotoStatement "0..1" --* "1..1" cSharp::JumpStatement : gotoStat609
cSharp::Identifier "0..1" --* "1..1" cSharp::PrimaryExpression : id141
cSharp::Identifier "0..9999" --* "1..1" cSharp::PrimaryExpression2 : id151
cSharp::Identifier "0..1" --* "1..1" cSharp::QualifiedIdentifier : id207
cSharp::QualifiedIdentifier "0..1" --* "1..1" cSharp::QualifiedIdentifierList : id501
cSharp::Identifier "0..1" --* "1..1" cSharp::LabeledStatement : id525
cSharp::Identifier "0..1" --* "1..1" cSharp::SpecificCatchClause : id599
cSharp::GotoStatement "1..1" *-- "0..1" cSharp::Identifier : id621
cSharp::ForeachStatement "1..1" *-- "0..1" cSharp::Identifier : id638
cSharp::Identifier "0..9999" --* "1..1" cSharp::QualifiedIdentifier : ids210
cSharp::QualifiedIdentifier "0..9999" --* "1..1" cSharp::QualifiedIdentifierList : ids504
cSharp::IfStatement "0..1" --* "1..1" cSharp::SelectionStatement : ifStatement696
cSharp::Expression2 "0..1" --* "1..1" cSharp::Expression2 : inExp253
cSharp::Expression "0..1" --* "1..1" cSharp::Expression2 : inExp49
cSharp::ClassMemberDeclaration "1..1" *-- "0..1" cSharp::IndexerDeclaration : indexDeclaration334
cSharp::IndexerDeclaration "1..1" *-- "0..1" cSharp::IndexerDeclarator : indexerDeclarator405
cSharp::EnumDeclaration "1..1" *-- "0..1" cSharp::IntegralType : intType239
cSharp::InterfaceAccessors "0..1" --* "1..1" cSharp::InterfacePropertyDeclaration : interAccessor291
cSharp::InterfaceAccessors "0..1" --* "1..1" cSharp::InterfaceIndexerDeclaration : interAccessors280
cSharp::InterfaceBody "0..1" --* "1..1" cSharp::InterfaceDeclaration : interBody263
cSharp::InterfaceEventDeclaration "0..1" --* "1..1" cSharp::InterfaceMemberDeclaration : interEventDeclaration269
cSharp::Expression2 "0..1" --* "1..1" cSharp::Expression2 : interExp241
cSharp::Expression "0..1" --* "1..1" cSharp::Expression2 : interExp37
cSharp::InterfaceMemberDeclaration "1..1" *-- "0..1" cSharp::InterfacePropertyDeclaration : interProperty276
cSharp::InterfaceDeclaration "0..1" --* "1..1" cSharp::TypeDeclaration : interfaceDeclaration230
cSharp::InterfaceIndexerDeclaration "0..1" --* "1..1" cSharp::InterfaceMemberDeclaration : interfaceIndexerDecla274
cSharp::InterfaceBody "1..1" *-- "0..9999" cSharp::InterfaceMemberDeclaration : interfaceMemberDeclarations265
cSharp::InterfaceMemberDeclaration "1..1" *-- "0..1" cSharp::InterfaceMethodDeclaration : intermethodDeclaration267
cSharp::EmbeddedStatement "1..1" *-- "0..1" cSharp::IterationStatement : iterationStat538
cSharp::EmbeddedStatement "1..1" *-- "0..1" cSharp::JumpStatement : jumpStat540
cSharp::LabeledStatement "0..1" --* "1..1" cSharp::Statement : labelStat507
cSharp::StatementExpression "0..1" --* "1..1" cSharp::StatementExpressionList : list663
cSharp::StatementExpression "0..9999" --* "1..1" cSharp::StatementExpressionList : lists666
cSharp::DeclarationStatment "1..1" *-- "0..1" cSharp::LocalconstantDeclaration : localCOnstant514
cSharp::DeclarationStatment "1..1" *-- "0..1" cSharp::LocalVariableDeclaration : localVariableDeclaration512
cSharp::ForInitializer "1..1" *-- "0..1" cSharp::LocalVariableDeclaration : localVariableDeclaration657
cSharp::EmbeddedStatement "1..1" *-- "0..1" cSharp::LockStatement : lockStat546
cSharp::MaybeEmptyBlock "0..1" --* "1..1" cSharp::MethodDeclaration : maybeEmpty441
cSharp::EmbeddedStatement "1..1" *-- "0..1" cSharp::MaybeEmptyBlock : maybeEmpty531
cSharp::ClassMemberDeclaration "1..1" *-- "0..1" cSharp::MethodDeclaration : methodDeclaration326
cSharp::MethodDeclaration "1..1" *-- "0..1" cSharp::MethodHeader : methodHeader439
cSharp::Expression "0..1" --* "1..1" cSharp::Expression2 : modExp111
cSharp::Expression2 "0..1" --* "1..1" cSharp::Expression2 : modExp2115
cSharp::Expression2 "0..1" --* "1..1" cSharp::Expression2 : multipExp2103
cSharp::Expression "0..1" --* "1..1" cSharp::Expression2 : multipExp99
cSharp::Attribute "1..1" *-- "0..1" cSharp::AttributeName : name19
cSharp::EnumDeclaration "1..1" *-- "0..1" cSharp::Identifier : name236
cSharp::EnumMemberDeclaration "1..1" *-- "0..1" cSharp::Identifier : name251
cSharp::Identifier "0..1" --* "1..1" cSharp::InterfaceDeclaration : name257
cSharp::Identifier "0..1" --* "1..1" cSharp::InterfaceEventDeclaration : name285
cSharp::Identifier "0..1" --* "1..1" cSharp::InterfacePropertyDeclaration : name288
cSharp::Identifier "0..1" --* "1..1" cSharp::InterfaceMethodDeclaration : name306
cSharp::Identifier "0..1" --* "1..1" cSharp::StaticConstructorDeclaration : name347
cSharp::DestructorDeclaration "1..1" *-- "0..1" cSharp::Identifier : name352
cSharp::Identifier "0..1" --* "1..1" cSharp::UnaryOperatorDeclarator : name402
cSharp::Identifier "0..1" --* "1..1" cSharp::ParameterArray : name461
cSharp::FixedParameter "1..1" *-- "0..1" cSharp::Identifier : name474
cSharp::Identifier "0..1" --* "1..1" cSharp::TypeOrVoid : name477
cSharp::ConstantDeclarator "1..1" *-- "0..1" cSharp::Identifier : name492
cSharp::Identifier "0..1" --* "1..1" cSharp::UsingDirective : name5
cSharp::NamespaceBody "0..1" --* "1..1" cSharp::NamespaceDeclaration : nameBody220
cSharp::NamespaceDeclaration "0..1" --* "1..1" cSharp::NamespaceMemberDeclaration : nameDeclaretion213
cSharp::NamespaceBody "1..1" *-- "0..9999" cSharp::NamespaceMemberDeclaration : nameSpaces225
cSharp::CompilationUnit "1..1" *-- "0..9999" cSharp::NamespaceMemberDeclaration : nameSpaces3
cSharp::Attributes "0..1" --* "1..1" cSharp::InterfaceAccessors : newAtt297
cSharp::NonArrayType "0..1" --* "1..1" cSharp::Type : nonArray171
cSharp::NonArrayType "0..1" --* "1..1" cSharp::PrimaryExpression : nonArrayType124
cSharp::ClassMemberDeclaration "1..1" *-- "0..1" cSharp::OperatorDeclaration : opDeclaration339
cSharp::OperatorDeclaration "1..1" *-- "0..1" cSharp::OperatorDeclarator : opDeclarator376
cSharp::Expression2 "0..1" --* "1..1" cSharp::Expression2 : operatorExp297
cSharp::Expression "0..1" --* "1..1" cSharp::Expression2 : operatorExp93
cSharp::Attributes "0..1" --* "1..1" cSharp::InterfaceAccessors : otherAtt300
cSharp::BinaryOperatorDeclarator "1..1" *-- "0..1" cSharp::Identifier : otherName391
cSharp::Type "0..1" --* "1..1" cSharp::UnaryOperatorDeclarator : otherType400
cSharp::FormalParameterList "1..1" *-- "0..1" cSharp::ParameterArray : parameterArray453
cSharp::FormalParameterList "0..1" --* "1..1" cSharp::InterfaceIndexerDeclaration : parameterList278
cSharp::FormalParameterList "0..1" --* "1..1" cSharp::InterfaceMethodDeclaration : parameterList309
cSharp::Expression2 "0..1" --* "1..1" cSharp::Expression2 : pipelineExp247
cSharp::Expression "0..1" --* "1..1" cSharp::Expression2 : pipelineExp43
cSharp::PrimaryExpression "1..1" *-- "0..1" cSharp::PrimaryExpression2 : primaryExoression2149
cSharp::PrimaryExpression "0..1" --* "1..1" cSharp::UnaryExpression : primaryExp122
cSharp::PrimaryExpression2 "0..9999" --* "1..1" cSharp::PrimaryExpression2 : primaryExpression2161
cSharp::PrimaryExpression "0..1" --* "1..1" cSharp::StatementExpression : primaryExpression675
cSharp::ClassMemberDeclaration "1..1" *-- "0..1" cSharp::PropertyDeclaration : propertyDeclaration330
cSharp::BuiltInClassType "1..1" *-- "0..1" cSharp::QualifiedIdentifierList : qID2206
cSharp::ClassBase "1..1" *-- "0..1" cSharp::QualifiedIdentifierList : qIDs498
cSharp::NamespaceDeclaration "1..1" *-- "0..1" cSharp::QualifiedIdentifier : qId217
cSharp::QualifiedIdentifier "0..1" --* "1..1" cSharp::Type : qIdent179
cSharp::InterfaceDeclaration "1..1" *-- "0..1" cSharp::QualifiedIdentifierList : qIdentifiers260
cSharp::QualifiedIdentifier "0..1" --* "1..1" cSharp::SpecificCatchClause : qualiId596
cSharp::NonArrayType "1..1" *-- "0..1" cSharp::QualifiedIdentifier : qualified203
cSharp::AttributeName "1..1" *-- "0..1" cSharp::QualifiedIdentifier : qualifiedId168
cSharp::QualifiedIdentifier "0..1" --* "1..1" cSharp::Type : qualifiedId184
cSharp::IndexerDeclarator "1..1" *-- "0..1" cSharp::QualifiedIdentifier : qualifiedId416
cSharp::MethodHeader "1..1" *-- "0..1" cSharp::QualifiedIdentifier : qualifiedIdentifier447
cSharp::Expression2 "0..1" --* "1..1" cSharp::Expression2 : relopExp283
cSharp::Expression "0..1" --* "1..1" cSharp::Expression2 : relopExp79
cSharp::EventAccessorDeclarations "1..1" *-- "0..1" cSharp::RemoveAccessorDeclaration : removAccessor427
cSharp::ResourceAquisition "0..1" --* "1..1" cSharp::UsingStatement : resourcAquisition550
cSharp::JumpStatement "1..1" *-- "0..1" cSharp::ReturnStatement : returnStat611
cSharp::BinaryOperatorDeclarator "1..1" *-- "0..1" cSharp::Identifier : secondName397
cSharp::BinaryOperatorDeclarator "1..1" *-- "0..1" cSharp::Type : secondType394
cSharp::EmbeddedStatement "1..1" *-- "0..1" cSharp::SelectionStatement : selectionStat536
cSharp::AccessorDeclarations "1..1" *-- "0..1" cSharp::SetAccessorDeclaration : setAcc437
cSharp::Expression2 "0..1" --* "1..1" cSharp::Expression2 : shiftExp291
cSharp::Expression "0..1" --* "1..1" cSharp::Expression2 : shiftExp87
cSharp::CatchClauses "1..1" *-- "0..9999" cSharp::SpecificCatchClause : specCatchClause587
cSharp::CatchClauses "1..1" *-- "0..9999" cSharp::SpecificCatchClause : speciCatchClause583
cSharp::LabeledStatement "1..1" *-- "0..1" cSharp::Statement : stat528
cSharp::EmbeddedStatement "1..1" *-- "0..1" cSharp::StatementExpression : statExp534
cSharp::Statement "0..9999" --* "1..1" cSharp::SwitchSection : statement707
cSharp::Block "1..1" *-- "0..9999" cSharp::Statement : statement724
cSharp::ForStatement "1..1" *-- "0..9999" cSharp::StatementExpressionList : statementExpressionList652
cSharp::ForInitializer "1..1" *-- "0..1" cSharp::StatementExpressionList : statementExpressionList660
cSharp::ClassMemberDeclaration "1..1" *-- "0..1" cSharp::StaticConstructorDeclaration : staticDeclaration345
cSharp::SwitchSection "0..9999" --* "1..1" cSharp::SwitchStatement : switchSection703
cSharp::SelectionStatement "1..1" *-- "0..1" cSharp::SwitchStatement : switchStatement698
cSharp::SwitchLabel "0..9999" --* "1..1" cSharp::SwitchSection : switchlabel705
cSharp::JumpStatement "1..1" *-- "0..1" cSharp::ThrowStatement : throwStat613
cSharp::PrimaryExpression "1..1" *-- "0..1" cSharp::Type : tipo136
cSharp::LocalconstantDeclaration "1..1" *-- "0..1" cSharp::Type : tipo516
cSharp::LocalVariableDeclaration "1..1" *-- "0..1" cSharp::Type : tipo555
cSharp::ForeachStatement "1..1" *-- "0..1" cSharp::Type : tipo635
cSharp::StatementExpression "1..1" *-- "0..1" cSharp::Type : tipo669
cSharp::EmbeddedStatement "1..1" *-- "0..1" cSharp::TryStatement : tryStat542
cSharp::Type "0..1" --* "1..1" cSharp::UnaryExpression : type117
cSharp::InterfaceMemberDeclaration "1..1" *-- "0..1" cSharp::Type : type1271
cSharp::InterfaceEventDeclaration "1..1" *-- "0..1" cSharp::Type : type282
cSharp::InterfaceMethodDeclaration "1..1" *-- "0..1" cSharp::TypeOrVoid : type303
cSharp::OperatorDeclarator "1..1" *-- "0..1" cSharp::Type : type381
cSharp::IndexerDeclarator "1..1" *-- "0..1" cSharp::Type : type410
cSharp::FixedParameter "1..1" *-- "0..1" cSharp::Type : type471
cSharp::Type "0..1" --* "1..1" cSharp::TypeOrVoid : type483
cSharp::NamespaceMemberDeclaration "1..1" *-- "0..1" cSharp::TypeDeclaration : typeDeclaration215
cSharp::ClassMemberDeclaration "1..1" *-- "0..1" cSharp::TypeDeclaration : typeDeclaration336
cSharp::PrimaryExpression "1..1" *-- "0..1" cSharp::TypeOrVoid : typeOrVoid147
cSharp::MethodHeader "1..1" *-- "0..1" cSharp::TypeOrVoid : typeOrVoid444
cSharp::Expression "1..1" *-- "0..1" cSharp::UnaryExpression : unary30
cSharp::UnaryExpression "0..1" --* "1..1" cSharp::UnaryExpression : unaryExp120
cSharp::StatementExpression "1..1" *-- "0..1" cSharp::UnaryExpression : unaryExpression678
cSharp::CompilationUnit "1..1" *-- "0..9999" cSharp::UsingDirective : usingDirectives0
cSharp::NamespaceBody "1..1" *-- "0..9999" cSharp::UsingDirective : usingDirectives222
cSharp::EmbeddedStatement "1..1" *-- "0..1" cSharp::UsingStatement : usingStat548
cSharp::QualifiedIdentifier "0..1" --* "1..1" cSharp::UsingDirective : usings7
cSharp::Type "1..1" *-- "0..1" cSharp::VariableDeclarator : variable189
cSharp::VariableDeclarator "1..1" *-- "0..1" cSharp::VariableInitializer : variable489
cSharp::LocalVariableDeclaration "1..1" *-- "0..1" cSharp::VariableDeclarator : variable558
cSharp::Type "1..1" *-- "0..1" cSharp::VariableDeclarator : variableDeclarator174
cSharp::Type "1..1" *-- "0..9999" cSharp::VariableDeclarator : variableDeclarators176
cSharp::ArrayInitializer "1..1" *-- "0..1" cSharp::VariableInitializer : variableInitalizer163
cSharp::ArrayInitializer "1..1" *-- "0..9999" cSharp::VariableInitializer : variableInitalizers165
cSharp::Identifier "0..1" --* "1..1" cSharp::VariableDeclarator : variableName486
cSharp::Type "1..1" *-- "0..9999" cSharp::VariableDeclarator : variables192
cSharp::LocalVariableDeclaration "1..1" *-- "0..9999" cSharp::VariableDeclarator : variables561
cSharp::IterationStatement "1..1" *-- "0..1" cSharp::WhileStatement : whileStatement627
@enduml