@startuml
class BooleanLiteralExpCS {
}
class CallExpCS {
}
class ExpCS {
}
class LiteralExpCS {
}
class LogicExpCS {
}
class LoopExpCS {
}
class NavigationExpCS {
}
class NavigationPathCS {
}
class PathCS {
}
class PrimaryExpCS {
}
class miniOCL::AccVarCS {
  + accVarName : str
}
class miniOCL::BooleanExpCS {
  + boolSymbol : bool
}
class miniOCL::BooleanLiteralExpCS {
}
class miniOCL::CallExpCS {
}
class miniOCL::ClassCS {
  + name : str
}
class miniOCL::CollectExpCS {
}
class miniOCL::ConstraintCS {
}
class miniOCL::EStructuralFeature {
}
class miniOCL::ExistsExpCS {
}
class miniOCL::ExpCS {
}
class miniOCL::ForAllExpCS {
}
class miniOCL::IntLiteralExpCS {
  + intSymbol : int
}
class miniOCL::InvariantCS {
}
class miniOCL::IterateExpCS {
}
class miniOCL::IteratorVarCS {
  + itName : str
}
class miniOCL::LiteralExpCS {
}
class miniOCL::LogicExpCS {
  + op : str
}
class miniOCL::LoopExpCS {
  + logicOp : str
}
class miniOCL::NameExpCS {
}
class miniOCL::NavigationExpCS {
}
class miniOCL::NavigationNameExpCS {
}
class miniOCL::NavigationPathCS {
}
class miniOCL::NavigationPathElementCS {
}
class miniOCL::NavigationPathNameCS {
}
class miniOCL::NavigationPathVariableCS {
  + varName : str
}
class miniOCL::OperationCS {
  + name : str
}
class miniOCL::PackageCS {
  + name : str
}
class miniOCL::ParameterCS {
  + name : str
}
class miniOCL::PathCS {
}
class miniOCL::PathElementCS {
}
class miniOCL::PathNameCS {
}
class miniOCL::PathVariableCS {
  + varName : str
}
class miniOCL::PrimaryExpCS {
}
class miniOCL::PropertyCS {
  + name : str
}
class miniOCL::RootCS {
}
class miniOCL::RoundedBracketClauseCS {
}
class miniOCL::StringLiteralExpCS {
  + stringSymbol : str
}
BooleanLiteralExpCS <|-- miniOCL::BooleanExpCS
CallExpCS <|-- miniOCL::PrimaryExpCS
ExpCS <|-- miniOCL::LogicExpCS
LiteralExpCS <|-- miniOCL::BooleanLiteralExpCS
LiteralExpCS <|-- miniOCL::IntLiteralExpCS
LiteralExpCS <|-- miniOCL::StringLiteralExpCS
LogicExpCS <|-- miniOCL::CallExpCS
LoopExpCS <|-- miniOCL::CollectExpCS
LoopExpCS <|-- miniOCL::ExistsExpCS
LoopExpCS <|-- miniOCL::ForAllExpCS
LoopExpCS <|-- miniOCL::IterateExpCS
NavigationExpCS <|-- miniOCL::LoopExpCS
NavigationExpCS <|-- miniOCL::NameExpCS
NavigationExpCS <|-- miniOCL::NavigationNameExpCS
NavigationPathCS <|-- miniOCL::NavigationPathElementCS
NavigationPathCS <|-- miniOCL::NavigationPathVariableCS
PathCS <|-- miniOCL::PathElementCS
PathCS <|-- miniOCL::PathVariableCS
PrimaryExpCS <|-- miniOCL::LiteralExpCS
PrimaryExpCS <|-- miniOCL::NavigationExpCS
miniOCL::AccVarCS "1..1" *-- "0..1" miniOCL::ExpCS : accInitExp62
miniOCL::AccVarCS "1..1" *-- "0..1" miniOCL::PathNameCS : accType59
miniOCL::AccVarCS "0..1" --* "1..1" miniOCL::IterateExpCS : accVar58
miniOCL::AccVarCS "0..9999" --* "1..1" miniOCL::ExistsExpCS : accVars71
miniOCL::AccVarCS "0..9999" --* "1..1" miniOCL::ForAllExpCS : accVars84
miniOCL::ExpCS "0..9999" --* "1..1" miniOCL::RoundedBracketClauseCS : args65
miniOCL::ExpCS "0..1" --* "1..1" miniOCL::OperationCS : body22
miniOCL::CallExpCS "0..1" --* "1..1" miniOCL::NameExpCS : callExp48
miniOCL::CallExpCS "0..1" --* "1..1" miniOCL::NavigationNameExpCS : callExp77
miniOCL::ClassCS "0..9999" --* "1..1" miniOCL::PackageCS : classes6
miniOCL::ConstraintCS "0..9999" --* "1..1" miniOCL::RootCS : contraints1
miniOCL::ExpCS "0..1" --* "1..1" miniOCL::InvariantCS : exp32
miniOCL::ExpCS "0..9999" --* "1..1" miniOCL::LoopExpCS : exp52
miniOCL::NameExpCS "1..1" *-- "0..1" miniOCL::PathNameCS : expName44
miniOCL::NavigationNameExpCS "1..1" *-- "0..1" miniOCL::NavigationPathNameCS : expName73
miniOCL::ClassCS "1..1" *-- "0..1" miniOCL::PathNameCS : extends8
miniOCL::ConstraintCS "1..1" *-- "0..9999" miniOCL::InvariantCS : invariants30
miniOCL::IteratorVarCS "1..1" *-- "0..1" miniOCL::PathNameCS : itType55
miniOCL::IteratorVarCS "0..1" --* "1..1" miniOCL::LoopExpCS : itVar51
miniOCL::LogicExpCS "1..1" *-- "0..1" miniOCL::LogicExpCS : left36
miniOCL::CallExpCS "1..1" *-- "0..1" miniOCL::NavigationExpCS : navExp42
miniOCL::ClassCS "1..1" *-- "0..9999" miniOCL::OperationCS : operations12
miniOCL::PackageCS "0..9999" --* "1..1" miniOCL::RootCS : packages0
miniOCL::PackageCS "0..9999" --* "1..1" miniOCL::PackageCS : packages4
miniOCL::OperationCS "1..1" *-- "0..9999" miniOCL::ParameterCS : params17
miniOCL::PathCS "0..9999" --* "1..1" miniOCL::PathNameCS : path68
miniOCL::NavigationPathCS "0..9999" --* "1..1" miniOCL::NavigationPathNameCS : path80
miniOCL::EStructuralFeature "0..1" -- "1..1" miniOCL::PathElementCS : pathName70
miniOCL::EStructuralFeature "0..1" -- "1..1" miniOCL::NavigationPathElementCS : pathName82
miniOCL::ClassCS "1..1" *-- "0..9999" miniOCL::PropertyCS : properties10
miniOCL::OperationCS "1..1" *-- "0..1" miniOCL::PathNameCS : resultRef19
miniOCL::CallExpCS "0..1" --* "1..1" miniOCL::LogicExpCS : right37
miniOCL::NameExpCS "1..1" *-- "0..1" miniOCL::RoundedBracketClauseCS : roundedBrackets46
miniOCL::NavigationNameExpCS "1..1" *-- "0..1" miniOCL::RoundedBracketClauseCS : roundedBrackets74
miniOCL::CallExpCS "0..1" --* "1..1" miniOCL::CallExpCS : source40
miniOCL::PathNameCS "0..1" --* "1..1" miniOCL::PropertyCS : typeRef14
miniOCL::ParameterCS "1..1" *-- "0..1" miniOCL::PathNameCS : typeRef24
miniOCL::ConstraintCS "1..1" *-- "0..1" miniOCL::PathNameCS : typeRef27
@enduml