@startuml
class Attribute {
}
class AttributeBlock {
}
class Declaration {
}
class Else {
}
class Equation {
}
class Expr {
}
class FunctionRef {
}
class Statement {
}
class Type {
}
class TypeDeclaration {
}
class VarBlock {
}
class VariableRef {
}
class limp::AbstractType {
}
class limp::AbstractTypeDef {
}
class limp::ArrayAccessExpr {
}
class limp::ArrayExpr {
}
class limp::ArrayType {
}
class limp::ArrayTypeDef {
  + size : str
}
class limp::ArrayUpdateExpr {
}
class limp::AssignmentStatement {
}
class limp::Attribute {
}
class limp::AttributeBlock {
}
class limp::BinaryExpr {
  + op : str
}
class limp::BoolType {
}
class limp::BooleanLiteralExpr {
  + boolVal : str
}
class limp::BreakStatement {
}
class limp::ChoiceExpr {
}
class limp::Comment {
  + comment : str
}
class limp::ConstantDeclaration {
}
class limp::ContinueStatement {
}
class limp::Declaration {
}
class limp::Define {
}
class limp::DefineUseRef {
}
class limp::Else {
}
class limp::ElseBlock {
}
class limp::ElseIf {
}
class limp::EnumType {
}
class limp::EnumTypeDef {
}
class limp::EnumValue {
}
class limp::Equation {
}
class limp::EquationBlock {
}
class limp::Expr {
}
class limp::ExprList {
}
class limp::ExternalFunction {
  + name : str
}
class limp::ExternalProcedure {
  + name : str
}
class limp::FcnCallExpr {
}
class limp::ForStatement {
}
class limp::FreshVariable {
  + value : str
}
class limp::FunctionRef {
}
class limp::GlobalDeclaration {
}
class limp::GotoStatement {
}
class limp::IdExpr {
}
class limp::IdList {
}
class limp::IfThenElseExpr {
}
class limp::IfThenElseStatement {
}
class limp::Import {
  + importURI : str
}
class limp::InitExpr {
}
class limp::InputArg {
}
class limp::InputArgList {
}
class limp::IntegerLiteralExpr {
  + intVal : str
}
class limp::IntegerType {
}
class limp::IntegerWildCardExpr {
}
class limp::LabelStatement {
  + name : str
}
class limp::LocalArg {
}
class limp::LocalFunction {
  + name : str
}
class limp::LocalProcedure {
  + name : str
}
class limp::NamedType {
}
class limp::NoAttributeBlock {
}
class limp::NoElse {
}
class limp::NoVarBlock {
}
class limp::OutputArg {
}
class limp::OutputArgList {
}
class limp::Postcondition {
  + name : str
}
class limp::Precondition {
  + name : str
}
class limp::RealLiteralExpr {
  + realVal : str
}
class limp::RealType {
}
class limp::RecordAccessExpr {
  + field : str
}
class limp::RecordExpr {
}
class limp::RecordFieldExpr {
  + fieldName : str
}
class limp::RecordFieldType {
  + fieldName : str
}
class limp::RecordType {
}
class limp::RecordTypeDef {
}
class limp::RecordUpdateExpr {
  + field : str
}
class limp::ReturnStatement {
}
class limp::SecondInit {
}
class limp::SomeAttributeBlock {
}
class limp::SomeVarBlock {
}
class limp::Specification {
}
class limp::Statement {
}
class limp::StatementBlock {
}
class limp::StringLiteralExpr {
  + stringVal : str
}
class limp::StringType {
}
class limp::TupleType {
}
class limp::Type {
}
class limp::TypeAlias {
}
class limp::TypeDeclaration {
  + name : str
}
class limp::UnaryMinusExpr {
}
class limp::UnaryNegationExpr {
}
class limp::Uses {
}
class limp::VarBlock {
}
class limp::VariableRef {
  + name : str
}
class limp::VoidStatement {
}
class limp::VoidType {
}
class limp::WhileStatement {
}
Attribute <|-- limp::Define
Attribute <|-- limp::Postcondition
Attribute <|-- limp::Precondition
Attribute <|-- limp::Uses
AttributeBlock <|-- limp::NoAttributeBlock
AttributeBlock <|-- limp::SomeAttributeBlock
Declaration <|-- limp::Comment
Declaration <|-- limp::ConstantDeclaration
Declaration <|-- limp::ExternalFunction
Declaration <|-- limp::ExternalProcedure
Declaration <|-- limp::GlobalDeclaration
Declaration <|-- limp::Import
Declaration <|-- limp::LocalFunction
Declaration <|-- limp::LocalProcedure
Declaration <|-- limp::TypeDeclaration
Else <|-- limp::ElseBlock
Else <|-- limp::ElseIf
Else <|-- limp::NoElse
Equation <|-- limp::AssignmentStatement
Equation <|-- limp::VoidStatement
Expr <|-- limp::ArrayAccessExpr
Expr <|-- limp::ArrayExpr
Expr <|-- limp::ArrayUpdateExpr
Expr <|-- limp::BinaryExpr
Expr <|-- limp::BooleanLiteralExpr
Expr <|-- limp::ChoiceExpr
Expr <|-- limp::FcnCallExpr
Expr <|-- limp::FreshVariable
Expr <|-- limp::IdExpr
Expr <|-- limp::IfThenElseExpr
Expr <|-- limp::InitExpr
Expr <|-- limp::IntegerLiteralExpr
Expr <|-- limp::IntegerWildCardExpr
Expr <|-- limp::RealLiteralExpr
Expr <|-- limp::RecordAccessExpr
Expr <|-- limp::RecordExpr
Expr <|-- limp::RecordUpdateExpr
Expr <|-- limp::SecondInit
Expr <|-- limp::StringLiteralExpr
Expr <|-- limp::UnaryMinusExpr
Expr <|-- limp::UnaryNegationExpr
FunctionRef <|-- limp::ExternalFunction
FunctionRef <|-- limp::ExternalProcedure
FunctionRef <|-- limp::LocalFunction
FunctionRef <|-- limp::LocalProcedure
Statement <|-- limp::AssignmentStatement
Statement <|-- limp::BreakStatement
Statement <|-- limp::ContinueStatement
Statement <|-- limp::ForStatement
Statement <|-- limp::GotoStatement
Statement <|-- limp::IfThenElseStatement
Statement <|-- limp::LabelStatement
Statement <|-- limp::ReturnStatement
Statement <|-- limp::VoidStatement
Statement <|-- limp::WhileStatement
Type <|-- limp::AbstractType
Type <|-- limp::ArrayType
Type <|-- limp::BoolType
Type <|-- limp::EnumType
Type <|-- limp::IntegerType
Type <|-- limp::NamedType
Type <|-- limp::RealType
Type <|-- limp::RecordType
Type <|-- limp::StringType
Type <|-- limp::TupleType
Type <|-- limp::VoidType
TypeDeclaration <|-- limp::AbstractTypeDef
TypeDeclaration <|-- limp::ArrayTypeDef
TypeDeclaration <|-- limp::EnumTypeDef
TypeDeclaration <|-- limp::RecordTypeDef
TypeDeclaration <|-- limp::TypeAlias
VarBlock <|-- limp::NoVarBlock
VarBlock <|-- limp::SomeVarBlock
VariableRef <|-- limp::ConstantDeclaration
VariableRef <|-- limp::EnumValue
VariableRef <|-- limp::GlobalDeclaration
VariableRef <|-- limp::InputArg
VariableRef <|-- limp::LocalArg
VariableRef <|-- limp::OutputArg
limp::AbstractType "1..1" -- "0..1" limp::AbstractTypeDef : abstractDef130
limp::ArrayAccessExpr "0..1" --* "1..1" limp::ArrayUpdateExpr : access172
limp::NamedType "1..1" -- "0..1" limp::TypeAlias : alias131
limp::ArrayAccessExpr "1..1" *-- "0..1" limp::Expr : array167
limp::ArrayType "1..1" -- "0..1" limp::ArrayTypeDef : arrayDef128
limp::ArrayExpr "1..1" -- "0..1" limp::ArrayTypeDef : arrayDefinition106
limp::AttributeBlock "0..1" --* "1..1" limp::LocalProcedure : attributeBlock27
limp::AttributeBlock "0..1" --* "1..1" limp::ExternalProcedure : attributeBlock8
limp::Attribute "0..9999" --* "1..1" limp::SomeAttributeBlock : attributeList133
limp::ArrayTypeDef "1..1" *-- "0..1" limp::Type : baseType34
limp::ElseBlock "1..1" *-- "0..1" limp::StatementBlock : block134
limp::StatementBlock "0..1" --* "1..1" limp::WhileStatement : block84
limp::ForStatement "1..1" *-- "0..1" limp::StatementBlock : block95
limp::Expr "0..1" --* "1..1" limp::IfThenElseStatement : cond75
limp::Expr "0..1" --* "1..1" limp::WhileStatement : cond82
limp::Expr "0..1" --* "1..1" limp::IfThenElseExpr : condExpr138
limp::Declaration "0..9999" --* "1..1" limp::Specification : declarations0
limp::Define "1..1" *-- "0..9999" limp::DefineUseRef : elements63
limp::DefineUseRef "0..9999" --* "1..1" limp::Uses : elements65
limp::Else "0..1" --* "1..1" limp::IfThenElseStatement : else80
limp::Expr "0..1" --* "1..1" limp::IfThenElseExpr : elseExpr143
limp::EnumType "1..1" -- "0..1" limp::EnumTypeDef : enumDef124
limp::EnumTypeDef "1..1" *-- "0..9999" limp::EnumValue : enumerations32
limp::EquationBlock "0..1" --* "1..1" limp::LocalFunction : equationBlock17
limp::Equation "0..9999" --* "1..1" limp::EquationBlock : equations102
limp::Expr "0..1" --* "1..1" limp::UnaryNegationExpr : expr156
limp::Expr "0..1" --* "1..1" limp::UnaryMinusExpr : expr158
limp::ConstantDeclaration "1..1" *-- "0..1" limp::Expr : expr40
limp::Expr "0..1" --* "1..1" limp::Precondition : expr57
limp::Expr "0..1" --* "1..1" limp::Postcondition : expr59
limp::Expr "0..1" --* "1..1" limp::VoidStatement : expr69
limp::ArrayExpr "1..1" *-- "0..9999" limp::Expr : exprList108
limp::Expr "0..9999" --* "1..1" limp::ExprList : exprList118
limp::ExprList "0..1" --* "1..1" limp::FcnCallExpr : exprs184
limp::Expr "0..1" --* "1..1" limp::RecordFieldExpr : fieldExpr115
limp::RecordExpr "1..1" *-- "0..9999" limp::RecordFieldExpr : fieldExprList113
limp::RecordFieldType "1..1" *-- "0..1" limp::Type : fieldType35
limp::RecordFieldType "0..9999" --* "1..1" limp::RecordTypeDef : fields33
limp::ChoiceExpr "1..1" *-- "0..1" limp::Expr : first146
limp::InitExpr "1..1" -- "0..1" limp::VariableRef : id177
limp::SecondInit "1..1" -- "0..1" limp::VariableRef : id179
limp::IdExpr "1..1" -- "0..1" limp::VariableRef : id181
limp::FcnCallExpr "1..1" -- "0..1" limp::FunctionRef : id183
limp::IdList "1..1" -- "0..9999" limp::VariableRef : ids104
limp::AssignmentStatement "1..1" *-- "0..1" limp::IdList : ids71
limp::ElseIf "1..1" *-- "0..1" limp::IfThenElseStatement : ifThenElse136
limp::AssignmentStatement "0..1" --* "1..1" limp::ForStatement : incrementStatement92
limp::ArrayAccessExpr "1..1" *-- "0..1" limp::Expr : index169
limp::AssignmentStatement "0..1" --* "1..1" limp::ForStatement : initStatement87
limp::InputArg "0..9999" --* "1..1" limp::InputArgList : inputArgs44
limp::ExternalFunction "1..1" *-- "0..1" limp::InputArgList : inputs1
limp::InputArgList "0..1" --* "1..1" limp::LocalFunction : inputs10
limp::InputArgList "0..1" --* "1..1" limp::LocalProcedure : inputs19
limp::ExternalProcedure "1..1" *-- "0..1" limp::InputArgList : inputs4
limp::GotoStatement "1..1" -- "0..1" limp::LabelStatement : label98
limp::BinaryExpr "1..1" *-- "0..1" limp::Expr : left151
limp::Expr "0..1" --* "1..1" limp::ForStatement : limitExpr89
limp::LocalArg "0..9999" --* "1..1" limp::SomeVarBlock : locals122
limp::LocalFunction "1..1" *-- "0..1" limp::OutputArg : output12
limp::ExternalFunction "1..1" *-- "0..1" limp::OutputArg : output2
limp::OutputArg "0..9999" --* "1..1" limp::OutputArgList : outputArgs51
limp::LocalProcedure "1..1" *-- "0..1" limp::OutputArgList : outputs21
limp::ExternalProcedure "1..1" *-- "0..1" limp::OutputArgList : outputs6
limp::Expr "0..1" --* "1..1" limp::RecordAccessExpr : record160
limp::Expr "0..1" --* "1..1" limp::RecordUpdateExpr : record162
limp::RecordType "1..1" -- "0..1" limp::RecordTypeDef : recordDef126
limp::RecordExpr "1..1" -- "0..1" limp::RecordTypeDef : recordDefinition111
limp::DefineUseRef "1..1" *-- "0..1" limp::Expr : referenceExpr61
limp::AssignmentStatement "1..1" *-- "0..1" limp::Expr : rhs72
limp::BinaryExpr "1..1" *-- "0..1" limp::Expr : right153
limp::ChoiceExpr "1..1" *-- "0..1" limp::Expr : second148
limp::LocalProcedure "1..1" *-- "0..1" limp::StatementBlock : statementblock30
limp::Statement "0..9999" --* "1..1" limp::StatementBlock : statements67
limp::IfThenElseStatement "1..1" *-- "0..1" limp::StatementBlock : thenBlock77
limp::Expr "0..1" --* "1..1" limp::IfThenElseExpr : thenExpr140
limp::Type "0..1" --* "1..1" limp::TypeAlias : type120
limp::ConstantDeclaration "1..1" *-- "0..1" limp::Type : type38
limp::GlobalDeclaration "1..1" *-- "0..1" limp::Type : type42
limp::InputArg "1..1" *-- "0..1" limp::Type : type46
limp::LocalArg "1..1" *-- "0..1" limp::Type : type49
limp::OutputArg "1..1" *-- "0..1" limp::Type : type54
limp::TupleType "1..1" *-- "0..9999" limp::Type : typeList187
limp::Expr "0..1" --* "1..1" limp::RecordUpdateExpr : value164
limp::ArrayUpdateExpr "1..1" *-- "0..1" limp::Expr : value174
limp::LocalFunction "1..1" *-- "0..1" limp::VarBlock : varBlock15
limp::LocalProcedure "1..1" *-- "0..1" limp::VarBlock : varBlock24
limp::Expr "0..1" --* "1..1" limp::GotoStatement : whenExpr99
@enduml