@startuml
class Arc {
}
class Element {
}
class PetriNet {
}
class PetriNet::Arc {
  + name : str
  + weight : str
}
abstract class PetriNet::Element {
}
class PetriNet::NonReferencedClass {
}
class PetriNet::PetriNet {
  + name : str
}
class PetriNet::Place {
  + name : str
}
class PetriNet::PlaceToTransArc {
}
class PetriNet::TransToPlaceArc {
}
class PetriNet::Transition {
  + name : str
}
class PetriNet::WeightedArc {
}
class Place {
}
class PlaceToTransArc {
}
class TransToPlaceArc {
}
class Transition {
}
Arc <|-- PetriNet::PlaceToTransArc
Arc <|-- PetriNet::TransToPlaceArc
Arc <|-- PetriNet::WeightedArc
Element <|-- PetriNet::PetriNet
Element <|-- PetriNet::Place
Element <|-- PetriNet::Transition
Arc "0..9999" --* "1..1" PetriNet::PetriNet : arcs3
PetriNet::Transition "1..1" -- "1..9999" PlaceToTransArc : incoming10
PetriNet::Place "1..1" -- "0..9999" TransToPlaceArc : incoming5
PetriNet "1..1" -- "1..1" PetriNet::Place : net9
PetriNet::Transition "1..1" -- "1..9999" TransToPlaceArc : outgoing13
PetriNet::Place "1..1" -- "0..9999" PlaceToTransArc : outgoing6
PetriNet::PetriNet "1..1" *-- "1..9999" Place : places0
PetriNet::PlaceToTransArc "1..1" -- "1..1" Place : source16
PetriNet::TransToPlaceArc "1..1" -- "1..1" Transition : source22
PetriNet::PlaceToTransArc "1..1" -- "1..1" Transition : target19
PetriNet::TransToPlaceArc "1..1" -- "1..1" Place : target25
PetriNet::PetriNet "1..1" *-- "0..9999" Transition : transitions1
@enduml