@startuml
class petrinet::Arc {
  + toPlace : bool
  + weight : int
}
class petrinet::PetriNet {
  + name : str
}
class petrinet::Place {
  + name : str
  + token : int
}
class petrinet::Transition {
  + name : str
}
petrinet::Arc "0..9999" --* "1..1" petrinet::PetriNet : arcs8
petrinet::Place "1..1" -- "0..9999" petrinet::Transition : inhibitorArc0
petrinet::Arc "1..1" -- "1..1" petrinet::Place : place3
petrinet::PetriNet "1..1" *-- "0..9999" petrinet::Place : places6
petrinet::Arc "1..1" -- "1..1" petrinet::Transition : transition1
petrinet::PetriNet "1..1" *-- "0..9999" petrinet::Transition : transitions11
@enduml