@startuml
class DAG::Edge {
  + ID : int
  + name : str
}
class DAG::Graph {
  + name : str
}
class DAG::Node {
  + ID : int
  + level : int
  + name : str
}
class DAG::Revision {
}
DAG::Node "1..1" -- "0..9999" DAG::Node : children4
DAG::Edge "1..1" -- "0..1" DAG::Node : from11
DAG::Edge "0..9999" -- "1..1" DAG::Node : incoming7
DAG::Graph "1..1" *-- "0..9999" DAG::Node : nodes0
DAG::Edge "0..9999" -- "1..1" DAG::Node : outgoing6
DAG::Node "1..1" -- "0..9999" DAG::Node : parents2
DAG::Node "1..1" -- "0..1" DAG::Revision : revision9
DAG::Edge "1..1" -- "0..1" DAG::Node : to13
@enduml