@startuml
class Abstractions::BlockedElement {
}
class Abstractions::NamedElement {
}
class Access {
}
class ArithmeticExpression {
}
enum BinaryOperatorKind {
  DIVIDED_BY
  MINUS
  MODULE
  PLUS
  TIMES
}
class BlockedElement {
}
abstract class C::Abstractions::BlockedElement {
}
abstract class C::Abstractions::NamedElement {
  + name : str
}
class C::Commands::Assignment {
}
class C::Commands::CaseOption {
}
abstract class C::Commands::Command {
}
class C::Commands::DecisionCommand {
}
class C::Commands::DefaultOption {
}
class C::Commands::ExpressionCommand {
}
abstract class C::Commands::FlowControlCommand {
}
class C::Commands::ForCommand {
}
class C::Commands::IfCommand {
}
abstract class C::Commands::IterativeCommand {
}
class C::Commands::LabelCommand {
}
class C::Commands::ReturnCommand {
}
class C::Commands::SwitchCommand {
}
class C::Commands::WhileCommand {
}
abstract class C::CompilationDirectiveDeclarations::CompilationDirectiveDeclaration {
}
abstract class C::CompilationDirectiveDeclarations::ComplexDirectiveDeclaration {
}
class C::CompilationDirectiveDeclarations::Define {
  + value : str
}
class C::CompilationDirectiveDeclarations::Elif {
}
class C::CompilationDirectiveDeclarations::ElseDirective {
}
class C::CompilationDirectiveDeclarations::Endif {
}
class C::CompilationDirectiveDeclarations::IfDirective {
}
class C::CompilationDirectiveDeclarations::Ifdef {
}
class C::CompilationDirectiveDeclarations::Ifndef {
}
class C::CompilationDirectiveDeclarations::Include {
}
abstract class C::CompilationDirectiveDeclarations::SimpleDirectiveDeclaration {
}
class C::Declarations::ArrayDeclaration {
  + dimensions : str
}
abstract class C::Declarations::CompositeVariableDeclaration {
}
class C::Declarations::ConstantDeclaration {
}
abstract class C::Declarations::Declaration {
  + modifier : str
}
class C::Declarations::EnumDeclaration {
}
class C::Declarations::FragmentVariableDeclaration {
}
class C::Declarations::PrototypeFunctionDeclaration {
  + functionModifier : str
  + isAPointer : str
}
class C::Declarations::SimpleVariableDeclaration {
}
class C::Declarations::StructDeclaration {
}
class C::Declarations::TypeDefDeclaration {
}
class C::Declarations::VariableDeclaration {
  + isAPointer : str
  + numberOfPointers : str
}
abstract class C::Expressions::Access {
}
abstract class C::Expressions::ArithmeticExpression {
}
class C::Expressions::ArrayAccess {
}
class C::Expressions::AtomicConditionalExpression {
}
class C::Expressions::BinaryArithmeticExpression {
  + operator : str
}
class C::Expressions::CastExpression {
}
class C::Expressions::CharLiteral {
  + value : str
}
class C::Expressions::ComposedConditionalExpression {
  + operator : str
}
abstract class C::Expressions::ConditionalExpression {
  + conector : str
}
class C::Expressions::ConstantAccess {
}
class C::Expressions::ConstantExpression {
}
class C::Expressions::Construction {
}
class C::Expressions::DisplacementLogicExpression {
  + operator : str
}
class C::Expressions::DoubleLiteral {
  + value : float
}
abstract class C::Expressions::Expression {
}
class C::Expressions::FloatLiteral {
  + value : float
}
class C::Expressions::FunctionCall {
}
class C::Expressions::IntLiteral {
  + value : str
}
abstract class C::Expressions::Literal {
}
abstract class C::Expressions::LogicExpression {
}
class C::Expressions::PointerVariableAccess {
}
class C::Expressions::PrototypeAccess {
}
class C::Expressions::ShortLiteral {
  + value : int
}
class C::Expressions::SimpleLogicExpression {
  + operator : str
}
class C::Expressions::StringLiteral {
  + value : str
}
class C::Expressions::UnaryArithmeticExpression {
  + operator : str
}
class C::Expressions::VariableAccess {
}
class C::Main::Block {
}
class C::Main::C::Unit {
}
class C::Main::Comment {
}
class C::Main::DeclarationsBlock {
}
class C::Main::Element {
}
class C::Main::Function {
  + functionModifier : str
  + modifier : str
}
class C::Main::FunctionsBlock {
}
class C::Main::H::Unit {
}
class C::Main::Program {
  + description : str
}
abstract class C::Main::Unit {
}
class C::Sequencers::Break {
}
class C::Sequencers::Goto {
}
abstract class C::Sequencers::Sequencer {
}
class C::Types::Array {
}
class C::Types::Char {
}
abstract class C::Types::CompositeType {
}
class C::Types::Double {
}
class C::Types::Enum {
}
class C::Types::Float {
}
class C::Types::FromHeader {
}
class C::Types::Int {
}
abstract class C::Types::PrimitiveType {
}
class C::Types::Short {
}
class C::Types::Struct {
}
abstract class C::Types::Type {
}
class C::Types::Typedef {
}
class C::Types::Void {
}
class Command {
}
class Commands::CaseOption {
}
class Commands::Command {
}
class Commands::DefaultOption {
}
class Commands::LabelCommand {
}
class CompilationDirectiveDeclaration {
}
class CompilationDirectiveDeclarations::CompilationDirectiveDeclaration {
}
class CompilationDirectiveDeclarations::ComplexDirectiveDeclaration {
}
class CompilationDirectiveDeclarations::Endif {
}
class ComplexDirectiveDeclaration {
}
class CompositeType {
}
class CompositeVariableDeclaration {
}
class ConditionalExpression {
}
class DecisionCommand {
}
class Declaration {
}
class Declarations::ArrayDeclaration {
}
class Declarations::CompositeVariableDeclaration {
}
class Declarations::ConstantDeclaration {
}
class Declarations::Declaration {
}
class Declarations::FragmentVariableDeclaration {
}
class Declarations::PrototypeFunctionDeclaration {
}
class Declarations::SimpleVariableDeclaration {
}
class Declarations::VariableDeclaration {
}
enum DisplacementLogicOperatorKind {
  LEFT_DISPLACEMENT
  RIGHT_DISPLACEMENT
}
class Element {
}
class Expression {
}
class Expressions::Access {
}
class Expressions::ConditionalExpression {
}
class Expressions::ConstantExpression {
}
class Expressions::Construction {
}
class Expressions::Expression {
}
class Expressions::Literal {
}
class Expressions::VariableAccess {
}
class FlowControlCommand {
}
enum FunctionModifierKind {
  cdecl
  interrupt
  none
  pascal
}
class IfDirective {
}
class IterativeCommand {
}
class Literal {
}
class LogicExpression {
}
class Main::Block {
}
class Main::Comment {
}
class Main::DeclarationsBlock {
}
class Main::Element {
}
class Main::Function {
}
class Main::Unit {
}
enum ModifierKind {
  none
  register
  static
  volatile
}
class NamedElement {
}
class PrimitiveType {
}
enum RelationalConectorKind {
  AND
  NOT
  OR
  none
}
enum RelationalOperatorKind {
  EQUALS
  GREATER
  GREATER_EQUALS
  LESS
  LESS_EQUALS
  NOT_EQUALS
  none
}
class Sequencer {
}
class SimpleDirectiveDeclaration {
}
enum SimpleLogicOperatorKind {
  AND
  NOT
  OR
  XOR
}
class Type {
}
class Types::Array {
}
class Types::PrimitiveType {
}
class Types::Type {
}
enum UnaryOperatorKind {
  DIVIDED_BY_EQUALS
  MINUS
  MINUS_EQUALS
  MINUS_MINUS
  PLUS_EQUALS
  PLUS_PLUS
  TIMES_EQUALS
}
class Unit {
}
class VariableAccess {
}
class VariableDeclaration {
}
Abstractions::BlockedElement <|-- C::Declarations::ArrayDeclaration
Abstractions::BlockedElement <|-- C::Declarations::SimpleVariableDeclaration
Abstractions::NamedElement <|-- C::Commands::LabelCommand
Abstractions::NamedElement <|-- C::CompilationDirectiveDeclarations::Ifdef
Abstractions::NamedElement <|-- C::CompilationDirectiveDeclarations::SimpleDirectiveDeclaration
Abstractions::NamedElement <|-- C::Declarations::FragmentVariableDeclaration
Abstractions::NamedElement <|-- C::Expressions::Access
Abstractions::NamedElement <|-- C::Expressions::AtomicConditionalExpression
Abstractions::NamedElement <|-- C::Expressions::FunctionCall
Abstractions::NamedElement <|-- C::Types::FromHeader
Access <|-- C::Expressions::ArrayAccess
Access <|-- C::Expressions::ConstantAccess
Access <|-- C::Expressions::PrototypeAccess
Access <|-- C::Expressions::VariableAccess
ArithmeticExpression <|-- C::Expressions::BinaryArithmeticExpression
ArithmeticExpression <|-- C::Expressions::UnaryArithmeticExpression
BlockedElement <|-- C::Commands::Command
BlockedElement <|-- C::Sequencers::Sequencer
Command <|-- C::Commands::Assignment
Command <|-- C::Commands::ExpressionCommand
Command <|-- C::Commands::FlowControlCommand
Command <|-- C::Commands::IterativeCommand
Commands::Command <|-- C::Commands::LabelCommand
CompilationDirectiveDeclaration <|-- C::CompilationDirectiveDeclarations::ComplexDirectiveDeclaration
CompilationDirectiveDeclarations::CompilationDirectiveDeclaration <|-- C::CompilationDirectiveDeclarations::SimpleDirectiveDeclaration
CompilationDirectiveDeclarations::ComplexDirectiveDeclaration <|-- C::CompilationDirectiveDeclarations::Ifdef
ComplexDirectiveDeclaration <|-- C::CompilationDirectiveDeclarations::ElseDirective
ComplexDirectiveDeclaration <|-- C::CompilationDirectiveDeclarations::IfDirective
ComplexDirectiveDeclaration <|-- C::CompilationDirectiveDeclarations::Ifndef
CompositeType <|-- C::Types::Array
CompositeType <|-- C::Types::Enum
CompositeType <|-- C::Types::Struct
CompositeType <|-- C::Types::Typedef
CompositeVariableDeclaration <|-- C::Declarations::EnumDeclaration
CompositeVariableDeclaration <|-- C::Declarations::StructDeclaration
CompositeVariableDeclaration <|-- C::Declarations::TypeDefDeclaration
ConditionalExpression <|-- C::Expressions::ComposedConditionalExpression
DecisionCommand <|-- C::Commands::IfCommand
DecisionCommand <|-- C::Commands::SwitchCommand
Declaration <|-- C::Declarations::ConstantDeclaration
Declaration <|-- C::Declarations::PrototypeFunctionDeclaration
Declaration <|-- C::Declarations::VariableDeclaration
Declarations::CompositeVariableDeclaration <|-- C::Declarations::ArrayDeclaration
Declarations::VariableDeclaration <|-- C::Declarations::FragmentVariableDeclaration
Declarations::VariableDeclaration <|-- C::Declarations::SimpleVariableDeclaration
Element <|-- C::Main::DeclarationsBlock
Element <|-- C::Main::Function
Element <|-- C::Main::FunctionsBlock
Expression <|-- C::Expressions::ArithmeticExpression
Expression <|-- C::Expressions::CastExpression
Expression <|-- C::Expressions::ConditionalExpression
Expression <|-- C::Expressions::ConstantExpression
Expression <|-- C::Expressions::Construction
Expression <|-- C::Expressions::Literal
Expression <|-- C::Expressions::LogicExpression
Expressions::ConditionalExpression <|-- C::Expressions::AtomicConditionalExpression
Expressions::Expression <|-- C::Expressions::Access
Expressions::Expression <|-- C::Expressions::FunctionCall
FlowControlCommand <|-- C::Commands::DecisionCommand
FlowControlCommand <|-- C::Commands::ReturnCommand
IfDirective <|-- C::CompilationDirectiveDeclarations::Elif
IterativeCommand <|-- C::Commands::ForCommand
IterativeCommand <|-- C::Commands::WhileCommand
Literal <|-- C::Expressions::CharLiteral
Literal <|-- C::Expressions::DoubleLiteral
Literal <|-- C::Expressions::FloatLiteral
Literal <|-- C::Expressions::IntLiteral
Literal <|-- C::Expressions::ShortLiteral
Literal <|-- C::Expressions::StringLiteral
LogicExpression <|-- C::Expressions::DisplacementLogicExpression
LogicExpression <|-- C::Expressions::SimpleLogicExpression
NamedElement <|-- C::Declarations::Declaration
NamedElement <|-- C::Main::Comment
NamedElement <|-- C::Main::Element
NamedElement <|-- C::Main::Unit
PrimitiveType <|-- C::Types::Char
PrimitiveType <|-- C::Types::Double
PrimitiveType <|-- C::Types::Float
PrimitiveType <|-- C::Types::Short
PrimitiveType <|-- C::Types::Void
Sequencer <|-- C::Sequencers::Break
Sequencer <|-- C::Sequencers::Goto
SimpleDirectiveDeclaration <|-- C::CompilationDirectiveDeclarations::Define
SimpleDirectiveDeclaration <|-- C::CompilationDirectiveDeclarations::Include
Type <|-- C::Types::CompositeType
Type <|-- C::Types::PrimitiveType
Types::Array <|-- C::Types::Int
Types::PrimitiveType <|-- C::Types::Int
Types::Type <|-- C::Types::FromHeader
Unit <|-- C::Main::C::Unit
Unit <|-- C::Main::H::Unit
VariableAccess <|-- C::Expressions::PointerVariableAccess
VariableDeclaration <|-- C::Declarations::CompositeVariableDeclaration
C::Expressions::FunctionCall "1..1" *-- "0..9999" Expressions::Expression : argument88
C::Expressions::ArrayAccess "1..1" *-- "0..1" Declarations::ArrayDeclaration : array108
C::Main::Function "1..1" *-- "0..1" Main::Block : body6
C::Commands::CaseOption "1..1" *-- "0..1" Main::Block : body69
C::Commands::DefaultOption "1..1" *-- "0..1" Main::Block : body72
C::Commands::IterativeCommand "1..1" *-- "0..1" Main::Block : body74
C::Commands::SwitchCommand "1..1" *-- "1..9999" Commands::CaseOption : case63
C::Main::Block "1..1" -- "0..9999" Main::Comment : comment12
C::Main::Unit "1..1" -- "0..9999" Main::Comment : comment2
C::Commands::IfCommand "1..1" *-- "0..1" Expressions::ConditionalExpression : condition55
C::Commands::WhileCommand "1..1" -- "0..1" Expressions::ConditionalExpression : condition84
C::Expressions::ConstantAccess "1..1" -- "0..1" Declarations::ConstantDeclaration : constant105
C::Main::DeclarationsBlock "1..1" *-- "0..9999" Declarations::Declaration : declaration15
C::Main::H::Unit "1..1" *-- "0..9999" Main::DeclarationsBlock : declaration4
C::CompilationDirectiveDeclarations::CompilationDirectiveDeclaration "1..1" *-- "0..9999" Declarations::Declaration : declaration40
C::Commands::SwitchCommand "1..1" *-- "0..1" Commands::DefaultOption : default65
C::Main::DeclarationsBlock "1..1" *-- "0..9999" CompilationDirectiveDeclarations::CompilationDirectiveDeclaration : directive17
C::Abstractions::BlockedElement "1..1" *-- "0..9999" Main::Block : element0
Abstractions::BlockedElement "0..9999" --* "1..1" C::Main::Block : element11
C::Declarations::StructDeclaration "1..1" -- "0..9999" Declarations::SimpleVariableDeclaration : element37
C::Expressions::Construction "1..1" *-- "0..9999" Expressions::Expression : element86
C::Declarations::ArrayDeclaration "1..1" -- "0..1" Types::Type : elementType34
C::Main::C::Unit "1..1" *-- "0..9999" Main::Element : elements3
C::Commands::IfCommand "1..1" *-- "0..1" Main::Block : elseBlock59
C::CompilationDirectiveDeclarations::Ifdef "1..1" -- "0..1" CompilationDirectiveDeclarations::Endif : end42
C::CompilationDirectiveDeclarations::Ifndef "1..1" -- "0..1" CompilationDirectiveDeclarations::Endif : end43
C::Expressions::LogicExpression "1..1" -- "0..1" Expressions::Expression : expression101
C::Expressions::ArrayAccess "1..1" -- "0..1" Expressions::Expression : expression112
C::CompilationDirectiveDeclarations::IfDirective "1..1" *-- "0..1" Expressions::ConstantExpression : expression45
C::Commands::Assignment "1..1" *-- "0..1" Expressions::Expression : expression48
C::Commands::ReturnCommand "1..1" *-- "0..1" Expressions::Expression : expression51
C::Commands::ExpressionCommand "1..1" -- "0..1" Expressions::Expression : expression53
C::Commands::ForCommand "1..1" *-- "0..1" Expressions::Expression : expression78
C::Expressions::CastExpression "1..1" *-- "0..1" Expressions::Expression : expression92
C::Expressions::BinaryArithmeticExpression "1..1" *-- "0..1" Expressions::Expression : extraOperand97
C::Main::Program "1..1" *-- "1..9999" Main::Unit : file1
C::Declarations::SimpleVariableDeclaration "1..1" *-- "0..9999" Declarations::FragmentVariableDeclaration : fragment23
C::Main::FunctionsBlock "1..1" *-- "0..9999" Main::Function : function19
C::Commands::Assignment "1..1" *-- "0..1" Expressions::Access : id47
C::Expressions::ArrayAccess "1..1" *-- "1..9999" Expressions::Expression : index109
C::Declarations::ArrayDeclaration "1..1" -- "0..1" Expressions::Construction : inicializer33
C::Commands::ForCommand "1..1" *-- "0..9999" Expressions::Expression : inicializer76
C::Declarations::ConstantDeclaration "1..1" *-- "0..1" Expressions::Expression : initializer20
C::Declarations::SimpleVariableDeclaration "1..1" *-- "0..1" Expressions::Expression : initializer25
C::Declarations::EnumDeclaration "1..1" *-- "0..9999" Expressions::Literal : literal32
C::Expressions::DisplacementLogicExpression "1..1" -- "0..1" Expressions::Expression : numberOfDisplacement103
C::Expressions::ArithmeticExpression "1..1" *-- "0..1" Expressions::Expression : operand95
C::Declarations::PrototypeFunctionDeclaration "1..1" *-- "0..9999" Declarations::VariableDeclaration : ownedParameter28
C::Main::Function "1..1" *-- "0..9999" Declarations::Declaration : ownedParameter9
C::Expressions::PrototypeAccess "1..1" -- "0..1" Declarations::PrototypeFunctionDeclaration : prototype115
C::Sequencers::Goto "1..1" -- "0..1" Commands::LabelCommand : refersTo116
C::Commands::LabelCommand "1..1" -- "0..1" Commands::Command : refersTo46
C::Main::Function "1..1" -- "0..1" Types::Type : return5
C::Expressions::ComposedConditionalExpression "1..1" *-- "2..2" Expressions::Expression : term99
C::Commands::IfCommand "1..1" *-- "0..1" Main::Block : thenBlock56
C::Declarations::SimpleVariableDeclaration "1..1" -- "0..1" Types::Type : type21
C::Declarations::PrototypeFunctionDeclaration "1..1" -- "0..1" Types::Type : type29
C::Declarations::TypeDefDeclaration "1..1" -- "0..1" Types::Type : type38
C::Expressions::CastExpression "1..1" -- "0..1" Types::Type : type90
C::Commands::ForCommand "1..1" *-- "0..1" Expressions::Expression : updater81
C::Commands::CaseOption "1..1" *-- "0..1" Expressions::Literal : value67
C::Expressions::VariableAccess "1..1" -- "0..1" Declarations::VariableDeclaration : variable106
C::Commands::SwitchCommand "1..1" *-- "1..1" Expressions::VariableAccess : variable62
@enduml