@startuml
class ASTNode {
}
class AbstractMethodDeclaration {
}
class AbstractMethodInvocation {
}
class AbstractTypeDeclaration {
}
class AbstractTypeQualifiedExpression {
}
class AbstractVariablesContainer {
}
class AnnotationTypeDeclaration {
}
class AnnotationTypeMemberDeclaration {
}
enum AssignmentKind {
  ASSIGN
  BIT_AND_ASSIGN
  BIT_OR_ASSIGN
  BIT_XOR_ASSIGN
  DIVIDE_ASSIGN
  LEFT_SHIFT_ASSIGN
  MINUS_ASSIGN
  PLUS_ASSIGN
  REMAINDER_ASSIGN
  RIGHT_SHIFT_SIGNED_ASSIGN
  RIGHT_SHIFT_UNSIGNED_ASSIGN
  TIMES_ASSIGN
}
class BodyDeclaration {
}
class ClassDeclaration {
}
class Comment {
}
class EnumDeclaration {
}
class Expression {
}
enum InfixExpressionKind {
  AND
  CONDITIONAL_AND
  CONDITIONAL_OR
  DIVIDE
  EQUALS
  GREATER
  GREATER_EQUALS
  LEFT_SHIFT
  LESS
  LESS_EQUALS
  MINUS
  NOT_EQUALS
  OR
  PLUS
  REMAINDER
  RIGHT_SHIFT_SIGNED
  RIGHT_SHIFT_UNSIGNED
  TIMES
  XOR
}
enum InheritanceKind {
  abstract
  final
  none
}
class InterfaceDeclaration {
}
class LabeledStatement {
}
class MethodDeclaration {
}
class NamedElement {
}
class NamespaceAccess {
}
enum PostfixExpressionKind {
  DECREMENT
  INCREMENT
}
enum PrefixExpressionKind {
  COMPLEMENT
  DECREMENT
  INCREMENT
  MINUS
  NOT
  PLUS
}
class PrimitiveType {
}
class SingleVariableDeclaration {
}
class Statement {
}
class Type {
}
class TypeDeclaration {
}
class UnresolvedItem {
}
class VariableDeclaration {
}
class VariableDeclarationFragment {
}
enum VisibilityKind {
  none
  private
  protected
  public
}
abstract class java::::ASTNode {
}
abstract class java::::AbstractMethodDeclaration {
}
abstract class java::::AbstractMethodInvocation {
}
abstract class java::::AbstractTypeDeclaration {
}
abstract class java::::AbstractTypeQualifiedExpression {
}
abstract class java::::AbstractVariablesContainer {
}
class java::::Annotation {
}
class java::::AnnotationMemberValuePair {
}
class java::::AnnotationTypeDeclaration {
}
class java::::AnnotationTypeMemberDeclaration {
}
class java::::AnonymousClassDeclaration {
}
class java::::Archive {
  + originalFilePath : str
}
class java::::ArrayAccess {
}
class java::::ArrayCreation {
}
class java::::ArrayInitializer {
}
class java::::ArrayLengthAccess {
}
class java::::ArrayType {
  + dimensions : int
}
class java::::AssertStatement {
}
class java::::Assignment {
  + operator : str
}
class java::::Block {
}
class java::::BlockComment {
}
abstract class java::::BodyDeclaration {
}
class java::::BooleanLiteral {
  + value : bool
}
class java::::BreakStatement {
}
class java::::CastExpression {
}
class java::::CatchClause {
}
class java::::CharacterLiteral {
  + escapedValue : str
}
class java::::ClassDeclaration {
}
class java::::ClassFile {
  + originalFilePath : str
}
class java::::ClassInstanceCreation {
}
abstract class java::::Comment {
  + content : str
  + enclosedByParent : bool
  + prefixOfParent : bool
}
class java::::CompilationUnit {
  + originalFilePath : str
}
class java::::ConditionalExpression {
}
class java::::ConstructorDeclaration {
}
class java::::ConstructorInvocation {
}
class java::::ContinueStatement {
}
class java::::DoStatement {
}
class java::::EmptyStatement {
}
class java::::EnhancedForStatement {
}
class java::::EnumConstantDeclaration {
}
class java::::EnumDeclaration {
}
abstract class java::::Expression {
}
class java::::ExpressionStatement {
}
class java::::FieldAccess {
}
class java::::FieldDeclaration {
}
class java::::ForStatement {
}
class java::::IfStatement {
}
class java::::ImportDeclaration {
  + static : bool
}
class java::::InfixExpression {
  + operator : str
}
class java::::Initializer {
}
class java::::InstanceofExpression {
}
class java::::InterfaceDeclaration {
}
class java::::Javadoc {
}
class java::::LabeledStatement {
}
class java::::LineComment {
}
class java::::Manifest {
}
class java::::ManifestAttribute {
  + key : str
  + value : str
}
class java::::ManifestEntry {
  + name : str
}
class java::::MemberRef {
}
class java::::MethodDeclaration {
  + extraArrayDimensions : int
}
class java::::MethodInvocation {
}
class java::::MethodRef {
}
class java::::MethodRefParameter {
  + name : str
  + varargs : bool
}
class java::::Model {
  + name : str
}
class java::::Modifier {
  + inheritance : str
  + native : bool
  + static : bool
  + strictfp : bool
  + synchronized : bool
  + transient : bool
  + visibility : str
  + volatile : bool
}
abstract class java::::NamedElement {
  + name : str
  + proxy : bool
}
abstract class java::::NamespaceAccess {
}
class java::::NullLiteral {
}
class java::::NumberLiteral {
  + tokenValue : str
}
class java::::Package {
}
class java::::PackageAccess {
}
class java::::ParameterizedType {
}
class java::::ParenthesizedExpression {
}
class java::::PostfixExpression {
  + operator : str
}
class java::::PrefixExpression {
  + operator : str
}
class java::::PrimitiveType {
}
class java::::PrimitiveTypeBoolean {
}
class java::::PrimitiveTypeByte {
}
class java::::PrimitiveTypeChar {
}
class java::::PrimitiveTypeDouble {
}
class java::::PrimitiveTypeFloat {
}
class java::::PrimitiveTypeInt {
}
class java::::PrimitiveTypeLong {
}
class java::::PrimitiveTypeShort {
}
class java::::PrimitiveTypeVoid {
}
class java::::ReturnStatement {
}
class java::::SingleVariableAccess {
}
class java::::SingleVariableDeclaration {
  + varargs : bool
}
abstract class java::::Statement {
}
class java::::StringLiteral {
  + escapedValue : str
}
class java::::SuperConstructorInvocation {
}
class java::::SuperFieldAccess {
}
class java::::SuperMethodInvocation {
}
class java::::SwitchCase {
  + default : bool
}
class java::::SwitchStatement {
}
class java::::SynchronizedStatement {
}
class java::::TagElement {
  + tagName : str
}
class java::::TextElement {
  + text : str
}
class java::::ThisExpression {
}
class java::::ThrowStatement {
}
class java::::TryStatement {
}
abstract class java::::Type {
}
class java::::TypeAccess {
}
abstract class java::::TypeDeclaration {
}
class java::::TypeDeclarationStatement {
}
class java::::TypeLiteral {
}
class java::::TypeParameter {
}
class java::::UnresolvedAnnotationDeclaration {
}
class java::::UnresolvedAnnotationTypeMemberDeclaration {
}
class java::::UnresolvedClassDeclaration {
}
class java::::UnresolvedEnumDeclaration {
}
class java::::UnresolvedInterfaceDeclaration {
}
class java::::UnresolvedItem {
}
class java::::UnresolvedItemAccess {
}
class java::::UnresolvedLabeledStatement {
}
class java::::UnresolvedMethodDeclaration {
}
class java::::UnresolvedSingleVariableDeclaration {
}
class java::::UnresolvedType {
}
class java::::UnresolvedTypeDeclaration {
}
class java::::UnresolvedVariableDeclarationFragment {
}
abstract class java::::VariableDeclaration {
  + extraArrayDimensions : int
}
class java::::VariableDeclarationExpression {
}
class java::::VariableDeclarationFragment {
}
class java::::VariableDeclarationStatement {
  + extraArrayDimensions : int
}
class java::::WhileStatement {
}
class java::::WildCardType {
  + upperBound : bool
}
ASTNode <|-- java::::AbstractMethodInvocation
ASTNode <|-- java::::AbstractVariablesContainer
ASTNode <|-- java::::AnonymousClassDeclaration
ASTNode <|-- java::::Comment
ASTNode <|-- java::::Expression
ASTNode <|-- java::::ImportDeclaration
ASTNode <|-- java::::MemberRef
ASTNode <|-- java::::MethodRef
ASTNode <|-- java::::MethodRefParameter
ASTNode <|-- java::::Modifier
ASTNode <|-- java::::NamedElement
ASTNode <|-- java::::NamespaceAccess
ASTNode <|-- java::::Statement
ASTNode <|-- java::::TagElement
ASTNode <|-- java::::TextElement
AbstractMethodDeclaration <|-- java::::ConstructorDeclaration
AbstractMethodDeclaration <|-- java::::MethodDeclaration
AbstractMethodInvocation <|-- java::::ClassInstanceCreation
AbstractMethodInvocation <|-- java::::ConstructorInvocation
AbstractMethodInvocation <|-- java::::MethodInvocation
AbstractMethodInvocation <|-- java::::SuperConstructorInvocation
AbstractMethodInvocation <|-- java::::SuperMethodInvocation
AbstractTypeDeclaration <|-- java::::AnnotationTypeDeclaration
AbstractTypeDeclaration <|-- java::::EnumDeclaration
AbstractTypeDeclaration <|-- java::::TypeDeclaration
AbstractTypeDeclaration <|-- java::::UnresolvedTypeDeclaration
AbstractTypeQualifiedExpression <|-- java::::SuperFieldAccess
AbstractTypeQualifiedExpression <|-- java::::SuperMethodInvocation
AbstractTypeQualifiedExpression <|-- java::::ThisExpression
AbstractVariablesContainer <|-- java::::FieldDeclaration
AbstractVariablesContainer <|-- java::::VariableDeclarationExpression
AbstractVariablesContainer <|-- java::::VariableDeclarationStatement
AnnotationTypeDeclaration <|-- java::::UnresolvedAnnotationDeclaration
AnnotationTypeMemberDeclaration <|-- java::::UnresolvedAnnotationTypeMemberDeclaration
BodyDeclaration <|-- java::::AbstractMethodDeclaration
BodyDeclaration <|-- java::::AbstractTypeDeclaration
BodyDeclaration <|-- java::::AnnotationTypeMemberDeclaration
BodyDeclaration <|-- java::::EnumConstantDeclaration
BodyDeclaration <|-- java::::FieldDeclaration
BodyDeclaration <|-- java::::Initializer
ClassDeclaration <|-- java::::UnresolvedClassDeclaration
Comment <|-- java::::BlockComment
Comment <|-- java::::Javadoc
Comment <|-- java::::LineComment
EnumDeclaration <|-- java::::UnresolvedEnumDeclaration
Expression <|-- java::::AbstractTypeQualifiedExpression
Expression <|-- java::::Annotation
Expression <|-- java::::ArrayAccess
Expression <|-- java::::ArrayCreation
Expression <|-- java::::ArrayInitializer
Expression <|-- java::::ArrayLengthAccess
Expression <|-- java::::Assignment
Expression <|-- java::::BooleanLiteral
Expression <|-- java::::CastExpression
Expression <|-- java::::CharacterLiteral
Expression <|-- java::::ClassInstanceCreation
Expression <|-- java::::ConditionalExpression
Expression <|-- java::::FieldAccess
Expression <|-- java::::InfixExpression
Expression <|-- java::::InstanceofExpression
Expression <|-- java::::MethodInvocation
Expression <|-- java::::NullLiteral
Expression <|-- java::::NumberLiteral
Expression <|-- java::::ParenthesizedExpression
Expression <|-- java::::PostfixExpression
Expression <|-- java::::PrefixExpression
Expression <|-- java::::SingleVariableAccess
Expression <|-- java::::StringLiteral
Expression <|-- java::::TypeAccess
Expression <|-- java::::TypeLiteral
Expression <|-- java::::UnresolvedItemAccess
Expression <|-- java::::VariableDeclarationExpression
InterfaceDeclaration <|-- java::::UnresolvedInterfaceDeclaration
LabeledStatement <|-- java::::UnresolvedLabeledStatement
MethodDeclaration <|-- java::::UnresolvedMethodDeclaration
NamedElement <|-- java::::AnnotationMemberValuePair
NamedElement <|-- java::::Archive
NamedElement <|-- java::::BodyDeclaration
NamedElement <|-- java::::ClassFile
NamedElement <|-- java::::CompilationUnit
NamedElement <|-- java::::LabeledStatement
NamedElement <|-- java::::Package
NamedElement <|-- java::::Type
NamedElement <|-- java::::UnresolvedItem
NamedElement <|-- java::::VariableDeclaration
NamespaceAccess <|-- java::::PackageAccess
NamespaceAccess <|-- java::::TypeAccess
NamespaceAccess <|-- java::::UnresolvedItemAccess
PrimitiveType <|-- java::::PrimitiveTypeBoolean
PrimitiveType <|-- java::::PrimitiveTypeByte
PrimitiveType <|-- java::::PrimitiveTypeChar
PrimitiveType <|-- java::::PrimitiveTypeDouble
PrimitiveType <|-- java::::PrimitiveTypeFloat
PrimitiveType <|-- java::::PrimitiveTypeInt
PrimitiveType <|-- java::::PrimitiveTypeLong
PrimitiveType <|-- java::::PrimitiveTypeShort
PrimitiveType <|-- java::::PrimitiveTypeVoid
SingleVariableDeclaration <|-- java::::UnresolvedSingleVariableDeclaration
Statement <|-- java::::AssertStatement
Statement <|-- java::::Block
Statement <|-- java::::BreakStatement
Statement <|-- java::::CatchClause
Statement <|-- java::::ConstructorInvocation
Statement <|-- java::::ContinueStatement
Statement <|-- java::::DoStatement
Statement <|-- java::::EmptyStatement
Statement <|-- java::::EnhancedForStatement
Statement <|-- java::::ExpressionStatement
Statement <|-- java::::ForStatement
Statement <|-- java::::IfStatement
Statement <|-- java::::LabeledStatement
Statement <|-- java::::ReturnStatement
Statement <|-- java::::SuperConstructorInvocation
Statement <|-- java::::SwitchCase
Statement <|-- java::::SwitchStatement
Statement <|-- java::::SynchronizedStatement
Statement <|-- java::::ThrowStatement
Statement <|-- java::::TryStatement
Statement <|-- java::::TypeDeclarationStatement
Statement <|-- java::::VariableDeclarationStatement
Statement <|-- java::::WhileStatement
Type <|-- java::::AbstractTypeDeclaration
Type <|-- java::::ArrayType
Type <|-- java::::ParameterizedType
Type <|-- java::::PrimitiveType
Type <|-- java::::TypeParameter
Type <|-- java::::UnresolvedType
Type <|-- java::::WildCardType
TypeDeclaration <|-- java::::ClassDeclaration
TypeDeclaration <|-- java::::InterfaceDeclaration
UnresolvedItem <|-- java::::UnresolvedAnnotationDeclaration
UnresolvedItem <|-- java::::UnresolvedAnnotationTypeMemberDeclaration
UnresolvedItem <|-- java::::UnresolvedClassDeclaration
UnresolvedItem <|-- java::::UnresolvedEnumDeclaration
UnresolvedItem <|-- java::::UnresolvedInterfaceDeclaration
UnresolvedItem <|-- java::::UnresolvedLabeledStatement
UnresolvedItem <|-- java::::UnresolvedMethodDeclaration
UnresolvedItem <|-- java::::UnresolvedSingleVariableDeclaration
UnresolvedItem <|-- java::::UnresolvedType
UnresolvedItem <|-- java::::UnresolvedTypeDeclaration
UnresolvedItem <|-- java::::UnresolvedVariableDeclarationFragment
VariableDeclaration <|-- java::::EnumConstantDeclaration
VariableDeclaration <|-- java::::SingleVariableDeclaration
VariableDeclaration <|-- java::::VariableDeclarationFragment
VariableDeclarationFragment <|-- java::::UnresolvedVariableDeclarationFragment
java::::AbstractTypeDeclaration "0..1" -- "1..1" java::::BodyDeclaration : abstractTypeDeclaration85
java::::Annotation "0..9999" --* "1..1" java::::SingleVariableDeclaration : annotations297
java::::Annotation "0..9999" --* "1..1" java::::VariableDeclarationExpression : annotations356
java::::Annotation "0..9999" --* "1..1" java::::VariableDeclarationStatement : annotations361
java::::Annotation "0..9999" --* "1..1" java::::BodyDeclaration : annotations86
java::::AnonymousClassDeclaration "0..1" --* "1..1" java::::ClassInstanceCreation : anonymousClassDeclaration111
java::::AnonymousClassDeclaration "0..1" --* "1..1" java::::EnumConstantDeclaration : anonymousClassDeclaration153
java::::AnonymousClassDeclaration "0..1" -- "1..1" java::::BodyDeclaration : anonymousClassDeclarationOwner88
java::::Archive "0..9999" --* "1..1" java::::Model : archives246
java::::AbstractMethodInvocation "1..1" *-- "0..9999" java::::Expression : arguments10
java::::EnumConstantDeclaration "1..1" *-- "0..9999" java::::Expression : arguments154
java::::ArrayAccess "1..1" *-- "1..1" java::::Expression : array61
java::::ArrayLengthAccess "1..1" *-- "1..1" java::::Expression : array76
java::::ClassFile "1..1" -- "0..1" java::::CompilationUnit : attachedSource106
java::::ManifestAttribute "0..9999" --* "1..1" java::::ManifestEntry : attributes210
java::::AbstractMethodDeclaration "1..1" *-- "0..1" java::::Block : body0
java::::Block "1..1" --* "1..1" java::::CatchClause : body101
java::::DoStatement "1..1" *-- "1..1" java::::Statement : body143
java::::EnhancedForStatement "1..1" *-- "1..1" java::::Statement : body146
java::::ForStatement "1..1" *-- "1..1" java::::Statement : body173
java::::Block "1..1" --* "1..1" java::::Initializer : body193
java::::LabeledStatement "1..1" *-- "1..1" java::::Statement : body201
java::::Block "1..1" --* "1..1" java::::SynchronizedStatement : body315
java::::Block "1..1" --* "1..1" java::::TryStatement : body325
java::::Statement "1..1" --* "1..1" java::::WhileStatement : body367
java::::BodyDeclaration "0..1" -- "1..1" java::::Modifier : bodyDeclaration249
java::::AbstractTypeDeclaration "1..1" *-- "0..9999" java::::BodyDeclaration : bodyDeclarations14
java::::AnonymousClassDeclaration "1..1" *-- "0..9999" java::::BodyDeclaration : bodyDeclarations58
java::::TypeAccess "0..1" --* "1..1" java::::WildCardType : bound363
java::::TypeAccess "0..9999" --* "1..1" java::::TypeParameter : bounds343
java::::CatchClause "0..1" -- "1..1" java::::SingleVariableDeclaration : catchClause302
java::::CatchClause "0..9999" --* "1..1" java::::TryStatement : catchClauses330
java::::ClassFile "0..9999" --* "1..1" java::::Model : classFiles243
java::::Archive "1..1" *-- "0..9999" java::::ClassFile : classFiles32
java::::AnonymousClassDeclaration "1..1" -- "0..1" java::::ClassInstanceCreation : classInstanceCreation60
java::::Comment "0..9999" -- "1..1" java::::CompilationUnit : commentList128
java::::ASTNode "1..1" *-- "0..9999" java::::Comment : comments40
java::::AbstractTypeDeclaration "1..1" *-- "0..9999" java::::Comment : commentsAfterBody16
java::::AbstractTypeDeclaration "1..1" *-- "0..9999" java::::Comment : commentsBeforeBody15
java::::CompilationUnit "0..9999" --* "1..1" java::::Model : compilationUnits240
java::::AbstractTypeDeclaration "1..1" --* "1..1" java::::TypeDeclarationStatement : declaration339
java::::AnnotationTypeMemberDeclaration "1..1" *-- "0..1" java::::Expression : default52
java::::ArrayCreation "1..1" *-- "0..9999" java::::Expression : dimensions66
java::::UnresolvedItem "0..1" -- "1..1" java::::UnresolvedItemAccess : element346
java::::ArrayType "1..1" *-- "1..1" java::::TypeAccess : elementType78
java::::ConditionalExpression "1..1" *-- "1..1" java::::Expression : elseExpression118
java::::IfStatement "1..1" *-- "0..1" java::::Statement : elseStatement181
java::::EnhancedForStatement "0..1" -- "1..1" java::::SingleVariableDeclaration : enhancedForStatement303
java::::Manifest "1..1" *-- "0..9999" java::::ManifestEntry : entryAttributes208
java::::EnumConstantDeclaration "0..9999" --* "1..1" java::::EnumDeclaration : enumConstants157
java::::CatchClause "1..1" *-- "1..1" java::::SingleVariableDeclaration : exception99
java::::ClassInstanceCreation "1..1" *-- "0..1" java::::Expression : expression113
java::::ConditionalExpression "1..1" *-- "1..1" java::::Expression : expression120
java::::DoStatement "1..1" *-- "1..1" java::::Expression : expression141
java::::EnhancedForStatement "1..1" *-- "1..1" java::::Expression : expression148
java::::Expression "1..1" --* "1..1" java::::ExpressionStatement : expression159
java::::Expression "1..1" --* "1..1" java::::FieldAccess : expression162
java::::Expression "0..1" --* "1..1" java::::ForStatement : expression165
java::::Expression "1..1" --* "1..1" java::::IfStatement : expression176
java::::Expression "0..1" --* "1..1" java::::MethodInvocation : expression224
java::::Expression "1..1" --* "1..1" java::::ParenthesizedExpression : expression281
java::::Expression "0..1" --* "1..1" java::::ReturnStatement : expression287
java::::Expression "0..1" --* "1..1" java::::SuperConstructorInvocation : expression304
java::::Expression "0..1" --* "1..1" java::::SwitchCase : expression308
java::::Expression "1..1" --* "1..1" java::::SwitchStatement : expression310
java::::Expression "1..1" --* "1..1" java::::SynchronizedStatement : expression317
java::::Expression "1..1" --* "1..1" java::::ThrowStatement : expression323
java::::Expression "1..1" --* "1..1" java::::WhileStatement : expression365
java::::AssertStatement "1..1" *-- "1..1" java::::Expression : expression37
java::::CastExpression "1..1" *-- "1..1" java::::Expression : expression94
java::::ArrayInitializer "1..1" *-- "0..9999" java::::Expression : expressions73
java::::Expression "0..9999" --* "1..1" java::::InfixExpression : extendedOperands190
java::::FieldAccess "1..1" *-- "1..1" java::::SingleVariableAccess : field161
java::::SingleVariableAccess "1..1" --* "1..1" java::::SuperFieldAccess : field306
java::::Block "0..1" --* "1..1" java::::TryStatement : finally327
java::::AbstractVariablesContainer "1..1" *-- "0..9999" java::::VariableDeclarationFragment : fragments27
java::::ASTNode "0..9999" --* "1..1" java::::TagElement : fragments320
java::::ImportDeclaration "1..1" -- "1..1" java::::NamedElement : importedElement184
java::::CompilationUnit "1..1" *-- "0..9999" java::::ImportDeclaration : imports131
java::::ArrayAccess "1..1" *-- "1..1" java::::Expression : index63
java::::Expression "0..1" --* "1..1" java::::VariableDeclaration : initializer351
java::::ArrayCreation "1..1" *-- "0..1" java::::ArrayInitializer : initializer68
java::::Expression "0..9999" --* "1..1" java::::ForStatement : initializers170
java::::ContinueStatement "1..1" -- "0..1" java::::LabeledStatement : label139
java::::BreakStatement "1..1" -- "0..1" java::::LabeledStatement : label93
java::::Assignment "1..1" *-- "1..1" java::::Expression : leftHandSide80
java::::Expression "1..1" --* "1..1" java::::InfixExpression : leftOperand187
java::::Expression "1..1" --* "1..1" java::::InstanceofExpression : leftOperand197
java::::Manifest "1..1" *-- "0..9999" java::::ManifestAttribute : mainAttributes206
java::::Archive "1..1" *-- "0..1" java::::Manifest : manifest33
java::::MemberRef "1..1" -- "1..1" java::::NamedElement : member213
java::::AnnotationMemberValuePair "1..1" -- "0..1" java::::AnnotationTypeMemberDeclaration : member47
java::::AssertStatement "1..1" *-- "0..1" java::::Expression : message35
java::::AbstractMethodDeclaration "1..1" -- "1..1" java::::MethodRef : method226
java::::AbstractMethodDeclaration "1..1" -- "1..1" java::::AbstractMethodInvocation : method9
java::::AbstractMethodDeclaration "0..1" -- "1..1" java::::SingleVariableDeclaration : methodDeclaration300
java::::Model "0..1" -- "1..1" java::::Package : model261
java::::Modifier "0..1" --* "1..1" java::::SingleVariableDeclaration : modifier293
java::::Modifier "0..1" --* "1..1" java::::VariableDeclarationExpression : modifier354
java::::Modifier "0..1" --* "1..1" java::::VariableDeclarationStatement : modifier359
java::::BodyDeclaration "1..1" *-- "0..1" java::::Modifier : modifier90
java::::Expression "1..1" --* "1..1" java::::PostfixExpression : operand283
java::::Expression "1..1" --* "1..1" java::::PrefixExpression : operand285
java::::ASTNode "1..1" -- "0..1" java::::ClassFile : originalClassFile44
java::::ASTNode "1..1" -- "0..1" java::::CompilationUnit : originalCompilationUnit42
java::::Model "1..1" *-- "0..9999" java::::Type : orphanTypes237
java::::Model "1..1" *-- "0..9999" java::::Package : ownedElements235
java::::AbstractTypeDeclaration "0..9999" --* "1..1" java::::Package : ownedElements259
java::::Package "1..1" *-- "0..9999" java::::Package : ownedPackages264
java::::ClassFile "1..1" -- "0..1" java::::Package : package109
java::::CompilationUnit "1..1" -- "0..1" java::::Package : package133
java::::AbstractTypeDeclaration "1..1" -- "0..1" java::::Package : package19
java::::Package "1..1" -- "0..1" java::::Package : package268
java::::Package "1..1" -- "1..1" java::::PackageAccess : package272
java::::EnhancedForStatement "1..1" *-- "1..1" java::::SingleVariableDeclaration : parameter151
java::::AbstractMethodDeclaration "1..1" *-- "0..9999" java::::SingleVariableDeclaration : parameters1
java::::MethodRef "1..1" *-- "0..9999" java::::MethodRefParameter : parameters230
java::::MemberRef "1..1" *-- "0..1" java::::TypeAccess : qualifier214
java::::MethodRef "1..1" *-- "0..1" java::::TypeAccess : qualifier228
java::::AbstractTypeQualifiedExpression "1..1" *-- "0..1" java::::TypeAccess : qualifier23
java::::PackageAccess "1..1" *-- "0..1" java::::PackageAccess : qualifier275
java::::Expression "0..1" --* "1..1" java::::SingleVariableAccess : qualifier290
java::::NamespaceAccess "0..1" --* "1..1" java::::TypeAccess : qualifier335
java::::ASTNode "0..1" --* "1..1" java::::UnresolvedItemAccess : qualifier348
java::::MethodDeclaration "1..1" -- "0..1" java::::MethodDeclaration : redefinedMethodDeclaration220
java::::MethodDeclaration "1..1" -- "0..9999" java::::MethodDeclaration : redefinitions222
java::::MethodDeclaration "1..1" *-- "0..1" java::::TypeAccess : returnType217
java::::Assignment "1..1" *-- "1..1" java::::Expression : rightHandSide82
java::::Expression "1..1" --* "1..1" java::::InfixExpression : rightOperand185
java::::InstanceofExpression "1..1" *-- "1..1" java::::TypeAccess : rightOperand195
java::::Modifier "1..1" -- "0..1" java::::SingleVariableDeclaration : singleVariableDeclaration251
java::::Statement "0..9999" --* "1..1" java::::SwitchStatement : statements312
java::::Block "1..1" *-- "0..9999" java::::Statement : statements91
java::::ClassDeclaration "1..1" *-- "0..1" java::::TypeAccess : superClass126
java::::AbstractTypeDeclaration "1..1" *-- "0..9999" java::::TypeAccess : superInterfaces20
java::::Javadoc "1..1" *-- "0..9999" java::::TagElement : tags200
java::::ConditionalExpression "1..1" *-- "1..1" java::::Expression : thenExpression123
java::::IfStatement "1..1" *-- "1..1" java::::Statement : thenStatement178
java::::AbstractMethodDeclaration "1..1" *-- "0..9999" java::::TypeAccess : thrownExceptions2
java::::AbstractTypeDeclaration "0..1" -- "1..1" java::::ClassFile : type103
java::::ClassInstanceCreation "1..1" *-- "1..1" java::::TypeAccess : type115
java::::MethodRefParameter "1..1" *-- "1..1" java::::TypeAccess : type232
java::::AbstractVariablesContainer "1..1" *-- "0..1" java::::TypeAccess : type25
java::::ParameterizedType "1..1" *-- "1..1" java::::TypeAccess : type276
java::::Annotation "1..1" *-- "1..1" java::::TypeAccess : type28
java::::SingleVariableDeclaration "1..1" *-- "1..1" java::::TypeAccess : type295
java::::Type "1..1" -- "1..1" java::::TypeAccess : type334
java::::TypeAccess "1..1" --* "1..1" java::::TypeLiteral : type341
java::::AnnotationTypeMemberDeclaration "1..1" *-- "1..1" java::::TypeAccess : type54
java::::ArrayCreation "1..1" *-- "1..1" java::::TypeAccess : type70
java::::CastExpression "1..1" *-- "1..1" java::::TypeAccess : type96
java::::AbstractMethodInvocation "1..1" *-- "0..9999" java::::TypeAccess : typeArguments11
java::::ParameterizedType "1..1" *-- "0..9999" java::::TypeAccess : typeArguments278
java::::TypeDeclaration "1..1" *-- "0..9999" java::::TypeParameter : typeParameters337
java::::AbstractMethodDeclaration "1..1" *-- "0..9999" java::::TypeParameter : typeParameters4
java::::AbstractTypeDeclaration "0..9999" -- "1..1" java::::CompilationUnit : types136
java::::Model "1..1" *-- "0..9999" java::::UnresolvedItem : unresolvedItems238
java::::Expression "0..9999" --* "1..1" java::::ForStatement : updaters167
java::::SingleVariableAccess "0..9999" -- "1..1" java::::VariableDeclaration : usageInVariableAccess353
java::::AnnotationMemberValuePair "0..9999" -- "1..1" java::::AnnotationTypeMemberDeclaration : usages57
java::::AbstractMethodDeclaration "1..1" -- "0..9999" java::::AbstractMethodInvocation : usages7
java::::BreakStatement "0..9999" -- "1..1" java::::LabeledStatement : usagesInBreakStatements203
java::::ContinueStatement "0..9999" -- "1..1" java::::LabeledStatement : usagesInContinueStatements204
java::::AbstractMethodDeclaration "1..1" -- "0..9999" java::::MethodRef : usagesInDocComments6
java::::ImportDeclaration "0..9999" -- "1..1" java::::NamedElement : usagesInImports258
java::::Package "1..1" -- "0..9999" java::::PackageAccess : usagesInPackageAccess270
java::::Type "1..1" -- "0..9999" java::::TypeAccess : usagesInTypeAccess333
java::::AnnotationMemberValuePair "1..1" *-- "1..1" java::::Expression : value49
java::::Annotation "1..1" *-- "0..9999" java::::AnnotationMemberValuePair : values30
java::::SingleVariableAccess "1..1" -- "1..1" java::::VariableDeclaration : variable289
java::::Modifier "1..1" -- "0..1" java::::VariableDeclarationExpression : variableDeclarationExpression256
java::::Modifier "1..1" -- "0..1" java::::VariableDeclarationStatement : variableDeclarationStatement254
java::::AbstractVariablesContainer "0..1" -- "1..1" java::::VariableDeclarationFragment : variablesContainer358
@enduml