@startuml
class Person {
}
class basicfamily::Family {
  + name : str
}
class basicfamily::Man {
}
abstract class basicfamily::Person {
  + name : str
}
class basicfamily::Woman {
}
Person <|-- basicfamily::Man
Person <|-- basicfamily::Woman
basicfamily::Person "1..1" -- "0..9999" basicfamily::Person : children1
basicfamily::Man "0..1" -- "1..1" basicfamily::Person : father6
basicfamily::Family "1..1" *-- "0..9999" basicfamily::Person : members8
basicfamily::Person "1..1" -- "0..1" basicfamily::Woman : mother5
basicfamily::Person "1..1" -- "0..2" basicfamily::Person : parents3
@enduml