@startuml
class Element2Element {
}
class simplegraph2graph::Edge {
}
class simplegraph2graph::Edge2Edge {
}
abstract class simplegraph2graph::Element2Element {
}
class simplegraph2graph::Graph {
}
class simplegraph2graph::Graph2Graph {
  + name : str
}
class simplegraph2graph::Node {
}
class simplegraph2graph::Node2Node {
  + label : str
}
Element2Element <|-- simplegraph2graph::Node2Node
simplegraph2graph::Edge "0..1" -- "1..1" simplegraph2graph::Edge2Edge : edge16
simplegraph2graph::Edge "0..1" -- "1..1" simplegraph2graph::Edge2Edge : edge27
simplegraph2graph::Element2Element "0..9999" --* "1..1" simplegraph2graph::Graph2Graph : element2Element4
simplegraph2graph::Graph "0..1" -- "1..1" simplegraph2graph::Graph2Graph : graph10
simplegraph2graph::Graph "0..1" -- "1..1" simplegraph2graph::Graph2Graph : graph21
simplegraph2graph::Node "0..1" -- "1..1" simplegraph2graph::Node2Node : node115
simplegraph2graph::Node "0..1" -- "1..1" simplegraph2graph::Node2Node : node217
simplegraph2graph::Element2Element "1..1" -- "0..1" simplegraph2graph::Graph2Graph : owner5
simplegraph2graph::Edge2Edge "1..1" -- "0..1" simplegraph2graph::Node2Node : source12
simplegraph2graph::Edge2Edge "1..1" -- "0..1" simplegraph2graph::Node2Node : target10
@enduml