@startuml
class ComponentLanguageShallow::Component {
}
class ComponentLanguageShallow::Connector {
}
class ComponentLanguageShallow::InPort {
}
class ComponentLanguageShallow::OutPort {
}
class ComponentLanguageShallow::Port {
}
class Port {
}
Port <|-- ComponentLanguageShallow::InPort
Port <|-- ComponentLanguageShallow::OutPort
ComponentLanguageShallow::Connector "1..1" -- "0..9999" ComponentLanguageShallow::Port : in1
ComponentLanguageShallow::Connector "1..1" -- "0..9999" ComponentLanguageShallow::Port : out3
ComponentLanguageShallow::Component "1..1" *-- "0..9999" ComponentLanguageShallow::Port : ports0
@enduml