@startuml
enum Action {
  CASCADE
  NO_ACTION
  RESTRICT
  SET_DEFAULT
  SET_NULL
}
class Constraints {
}
class DataType {
}
enum DeferrableAct {
  DEFFERABLE
  NOT_DEFFERABLE
}
enum DeferredAct {
  INITIALLY_DEFERRED
  INITIALLY_IMMEDIATE
}
class ModelElement {
}
class PKeyAndUnique {
}
enum ReferencingType {
  DEFAULT
  FULL
  PARTIAL
}
class rdbms::CheckCon {
  + checkCondition : str
}
class rdbms::Column {
  + default : str
  + length : int
  + nullable : bool
  + precision : int
}
abstract class rdbms::Constraints {
  + deferrable : str
  + deferred : str
}
abstract class rdbms::DataType {
}
class rdbms::Database {
}
class rdbms::ForeignKey {
  + deleteActionRHS : str
  + inverseReferentialIntegrityCon : bool
  + match : str
  + updateActionRHS : str
}
abstract class rdbms::ModelElement {
  + name : str
}
abstract class rdbms::PKeyAndUnique {
}
class rdbms::PrimaryKeyCon {
}
class rdbms::SystemDataType {
  + predefinedDecPlaces : int
  + predefinedLength : int
}
class rdbms::Table {
}
class rdbms::UniqueCon {
}
class rdbms::UserDefinedDataType {
  + defaultValue : str
  + length : int
  + precision : int
}
Constraints <|-- rdbms::CheckCon
Constraints <|-- rdbms::ForeignKey
Constraints <|-- rdbms::PKeyAndUnique
DataType <|-- rdbms::SystemDataType
DataType <|-- rdbms::UserDefinedDataType
ModelElement <|-- rdbms::Column
ModelElement <|-- rdbms::Constraints
ModelElement <|-- rdbms::DataType
ModelElement <|-- rdbms::Database
ModelElement <|-- rdbms::Table
PKeyAndUnique <|-- rdbms::PrimaryKeyCon
PKeyAndUnique <|-- rdbms::UniqueCon
rdbms::ForeignKey "1..1" -- "1..1" rdbms::Table : FKTable29
rdbms::Column "1..9999" -- "1..1" rdbms::PKeyAndUnique : PKandUQColumns30
rdbms::Column "1..1" -- "1..1" rdbms::DataType : columnDataType18
rdbms::Column "1..1" -- "0..1" rdbms::ForeignKey : columnInFK16
rdbms::Column "1..1" -- "0..1" rdbms::PKeyAndUnique : columnInPKandUQ14
rdbms::Column "1..9999" --* "1..1" rdbms::Table : columns10
rdbms::SystemDataType "1..1" -- "1..1" rdbms::UserDefinedDataType : dataType33
rdbms::Database "1..1" *-- "0..9999" rdbms::SystemDataType : dataTypes3
rdbms::Column "1..9999" -- "1..1" rdbms::ForeignKey : lhsAttr23
rdbms::ForeignKey "1..1" -- "1..1" rdbms::Table : refersTo26
rdbms::ForeignKey "1..1" -- "1..1" rdbms::PKeyAndUnique : rhsKey20
rdbms::CheckCon "0..9999" --* "1..1" rdbms::Table : tableCHs12
rdbms::ForeignKey "0..9999" --* "1..1" rdbms::Table : tableFKs5
rdbms::PrimaryKeyCon "1..1" --* "1..1" rdbms::Table : tablePK6
rdbms::Table "1..1" *-- "0..9999" rdbms::UniqueCon : tableUQ8
rdbms::Database "1..1" *-- "0..9999" rdbms::Table : tables1
rdbms::Database "1..1" *-- "0..9999" rdbms::UserDefinedDataType : userDefinedDataTypes0
@enduml