@startuml
class CMD {
}
class myDsl::CMD {
}
class myDsl::LEFT {
  + amount : int
}
class myDsl::MOVE {
  + amount : int
}
class myDsl::PAPER {
  + paperColour : str
  + sizeX : int
  + sizeY : int
}
class myDsl::PENCOLOUR {
  + colour : str
}
class myDsl::PENSTATE {
  + penState : str
}
class myDsl::PROGRAM {
}
class myDsl::RIGHT {
  + amount : int
}
class myDsl::TURTLE {
  + startPosX : int
  + startPosY : int
}
CMD <|-- myDsl::LEFT
CMD <|-- myDsl::MOVE
CMD <|-- myDsl::PAPER
CMD <|-- myDsl::PENCOLOUR
CMD <|-- myDsl::PENSTATE
CMD <|-- myDsl::RIGHT
CMD <|-- myDsl::TURTLE
myDsl::CMD "0..9999" --* "1..1" myDsl::PROGRAM : commands0
@enduml