@startuml
class AbstractDNode {
}
class AbstractNodeMapping {
}
class AbstractToolDescription {
}
class AdditionalLayer {
}
enum AlignmentKind {
  HORIZONTAL
  SQUARE
  VERTICAL
}
enum ArrangeConstraint {
  KEEP_LOCATION
  KEEP_RATIO
  KEEP_SIZE
}
enum BackgroundStyle {
  GradientLeftToRight
  GradientTopToBottom
  Liquid
}
class BasicLabelStyle {
}
class BasicLabelStyleDescription {
}
class BorderedStyle {
}
enum BundledImageShape {
  dot
  providedShape
  ring
  square
  stroke
  triangle
}
enum CenteringStyle {
  Both
  None
  Source
  Target
}
class CollapseFilter {
}
class ColorDescription {
}
class ConditionalContainerStyleDescription {
}
class ConditionalEdgeStyleDescription {
}
class ConditionalNodeStyleDescription {
}
class ConditionalStyleDescription {
}
enum ContainerLayout {
  FreeForm
  HorizontalStack
  List
  VerticalStack
}
class ContainerMapping {
}
class ContainerModelOperation {
}
enum ContainerShape {
  parallelogram
}
class ContainerStyle {
}
class CreateView {
}
class Customizable {
}
class Customization {
}
class DDiagram {
}
class DDiagramElement {
}
class DDiagramElementContainer {
}
class DRepresentation {
}
class DRepresentationElement {
}
class DSemanticDecorator {
}
class DecorationDescription {
}
class DecorationDescriptionsSet {
}
class DiagramDescription {
}
class DiagramElementMapping {
}
class DocumentedElement {
}
class DragAndDropTarget {
}
enum EdgeArrows {
  Diamond
  FillDiamond
  InputArrow
  InputArrowWithDiamond
  InputArrowWithFillDiamond
  InputClosedArrow
  InputFillClosedArrow
  NoDecoration
  OutputArrow
  OutputClosedArrow
  OutputFillClosedArrow
}
class EdgeMapping {
}
class EdgeMappingImport {
}
enum EdgeRouting {
  manhattan
  straight
  tree
}
class EdgeStyle {
}
class EdgeStyleDescription {
}
class EdgeTarget {
}
class Filter {
}
class FilterDescription {
}
enum FilterKind {
  COLLAPSE
  HIDE
}
enum FoldingStyle {
  NONE
  SOURCE
  TARGET
}
class GraphicalFilter {
}
class HideLabelCapabilityStyle {
}
class IEdgeMapping {
}
class InteractiveVariableDescription {
}
enum LabelPosition {
  border
  node
}
class LabelStyle {
}
class Layer {
}
class Layout {
}
enum LayoutDirection {
  BottomToTop
  LeftToRight
  TopToBottom
}
enum LineStyle {
  dash
  dash_dot
  dot
  solid
}
class MappingBasedToolDescription {
}
class NodeMapping {
}
class NodeStyle {
}
class NodeStyleDescription {
}
enum ReconnectionKind {
  RECONNECT_BOTH
  RECONNECT_SOURCE
  RECONNECT_TARGET
}
class RepresentationCreationDescription {
}
class RepresentationExtensionDescription {
}
class RepresentationNavigationDescription {
}
enum ResizeKind {
  EAST_WEST
  NONE
  NORTH_SOUTH
  NSEW
}
enum Side {
  EAST
  NORTH
  SOUTH
  WEST
}
class Style {
}
class StyleDescription {
}
class ToolEntry {
}
class TypedVariable {
}
class VariableValue {
}
class concern::ConcernDescription {
}
class concern::ConcernSet {
}
class description::AbstractMappingImport {
}
class description::AbstractNodeMapping {
}
class description::AbstractVariable {
}
class description::ContainerMapping {
}
class description::DiagramDescription {
}
class description::DiagramElementMapping {
}
class description::DocumentedElement {
}
class description::DragAndDropTargetDescription {
}
class description::EndUserDocumentedElement {
}
class description::IEdgeMapping {
}
class description::IdentifiedElement {
}
class description::NodeMapping {
}
class description::PasteTargetDescription {
}
class description::RepresentationDescription {
}
class description::RepresentationElementMapping {
}
class description::RepresentationImportDescription {
}
class diagram::AbsoluteBoundsFilter {
  + height : str
  + width : str
  + x : str
  + y : str
}
abstract class diagram::AbstractDNode {
  + arrangeConstraints : str
}
class diagram::AppliedCompositeFilters {
}
class diagram::BeginLabelStyle {
  + getDescription() : str
  + setDescription(description : any) : void
}
class diagram::BorderedStyle {
  + borderColor : str
  + borderLineStyle : str
  + borderSize : str
  + borderSizeComputationExpression : str
}
class diagram::BracketEdgeStyle {
}
class diagram::BundledImage {
  + color : str
  + providedShapeID : str
  + shape : str
}
class diagram::CenterLabelStyle {
  + getDescription() : str
  + setDescription(description : any) : void
}
class diagram::CollapseFilter {
  + height : int
  + width : int
}
class diagram::ComputedStyleDescriptionRegistry {
}
abstract class diagram::ContainerStyle {
}
class diagram::CustomStyle {
  + id : str
}
class diagram::DDiagram {
  + headerHeight : int
  + isInLayoutingMode : bool
  + synchronized : bool
  + getContainersFromMapping(mapping : any) : str
  + getEdgesFromMapping(mapping : any) : str
  + getNodesFromMapping(mapping : any) : str
}
abstract class diagram::DDiagramElement {
  + tooltipText : str
  + visible : bool
  + getParentDiagram() : DDiagram
}
abstract class diagram::DDiagramElementContainer {
  + height : str
  + width : str
  + getContainersFromMapping(mapping : any) : str
  + getNodesFromMapping(mapping : any) : str
}
class diagram::DEdge {
  + arrangeConstraints : str
  + beginLabel : str
  + endLabel : str
  + isFold : bool
  + isMockEdge : bool
  + routingStyle : str
  + size : str
  + isRootFolding() : bool
}
class diagram::DNode {
  + height : str
  + labelPosition : str
  + resizeKind : str
  + width : str
}
class diagram::DNodeContainer {
  + childrenPresentation : str
}
class diagram::DNodeList {
}
class diagram::DNodeListElement {
}
class diagram::DSemanticDiagram {
}
class diagram::Decoration {
}
class diagram::Dot {
  + backgroundColor : str
  + strokeSizeComputationExpression : str
}
class diagram::DragAndDropTarget {
  + getDragAndDropDescription() : str
}
class diagram::EObject {
}
class diagram::EObjectVariableValue {
}
class diagram::EdgeStyle {
  + centered : str
  + foldingStyle : str
  + lineStyle : str
  + routingStyle : str
  + size : str
  + sourceArrow : str
  + strokeColor : str
  + targetArrow : str
}
abstract class diagram::EdgeTarget {
}
class diagram::Ellipse {
  + color : str
  + horizontalDiameter : str
  + verticalDiameter : str
}
class diagram::EndLabelStyle {
  + getDescription() : str
  + setDescription(description : any) : void
}
class diagram::FilterVariableHistory {
}
class diagram::FlatContainerStyle {
  + backgroundColor : str
  + backgroundStyle : str
  + foregroundColor : str
}
class diagram::FoldingFilter {
}
class diagram::FoldingPointFilter {
}
class diagram::GaugeCompositeStyle {
  + alignment : str
}
class diagram::GaugeSection {
  + backgroundColor : str
  + foregroundColor : str
  + label : str
  + max : str
  + min : str
  + value : str
}
abstract class diagram::GraphicalFilter {
}
class diagram::HideFilter {
}
abstract class diagram::HideLabelCapabilityStyle {
  + hideLabelByDefault : bool
}
class diagram::HideLabelFilter {
}
class diagram::IndirectlyCollapseFilter {
}
class diagram::Lozenge {
  + color : str
  + height : str
  + width : str
}
abstract class diagram::NodeStyle {
  + labelPosition : str
}
class diagram::Note {
  + color : str
}
class diagram::ShapeContainerStyle {
  + backgroundColor : str
  + shape : str
}
class diagram::Square {
  + color : str
  + height : str
  + width : str
}
class diagram::Style {
}
class diagram::TypedVariableValue {
  + value : str
}
abstract class diagram::VariableValue {
}
class diagram::WorkspaceImage {
  + workspacePath : str
}
class diagram::concern::ConcernDescription {
}
class diagram::concern::ConcernSet {
}
abstract class diagram::description::AbstractNodeMapping {
  + domainClass : str
  + addDoneNode(node : any) : void
  + clearDNodesDone() : void
  + findDNodeFromEObject(eObject : any) : DDiagramElement
  + getAllBorderedNodeMappings() : str
}
class diagram::description::AdditionalLayer {
  + activeByDefault : bool
  + optional : bool
}
class diagram::description::CompositeLayout {
  + direction : str
  + padding : int
}
class diagram::description::ConditionalContainerStyleDescription {
}
class diagram::description::ConditionalEdgeStyleDescription {
}
class diagram::description::ConditionalNodeStyleDescription {
}
class diagram::description::ContainerMapping {
  + childrenPresentation : str
  + getBestStyle(containerVariable : any, modelElement : any, viewVariable : any) : ContainerStyle
}
class diagram::description::ContainerMappingImport {
}
class diagram::description::DiagramDescription {
  + domainClass : str
  + enablePopupBars : bool
  + preconditionExpression : str
  + rootExpression : str
  + createDiagram() : str
}
abstract class diagram::description::DiagramElementMapping {
  + createElements : bool
  + preconditionExpression : str
  + semanticCandidatesExpression : str
  + semanticElements : str
  + synchronizationLock : bool
  + checkPrecondition(container : any, containerView : any, modelElement : any) : bool
  + getAllMappings() : str
  + isFrom(element : any) : bool
}
class diagram::description::DiagramExtensionDescription {
}
class diagram::description::DiagramImportDescription {
}
abstract class diagram::description::DragAndDropTargetDescription {
}
class diagram::description::EdgeMapping {
  + domainClass : str
  + pathExpression : str
  + sourceFinderExpression : str
  + targetExpression : str
  + targetFinderExpression : str
  + useDomainElement : bool
  + createEdge(container : any, semanticTarget : any, source : any, target : any) : str
  + getBestStyle(containerVariable : any, modelElement : any, viewVariable : any) : EdgeStyle
  + getEdgeSourceCandidates(semanticOrigin : any, viewPoint : any) : str
  + getEdgeTargetCandidates(semanticOrigin : any, viewPoint : any) : str
  + updateEdge(viewEdge : any) : void
}
class diagram::description::EdgeMappingImport {
  + inheritsAncestorFilters : bool
}
abstract class diagram::description::IEdgeMapping {
  + getBestStyle(containerVariable : any, modelElement : any, viewVariable : any) : EdgeStyle
}
class diagram::description::Layer {
  + icon : str
}
abstract class diagram::description::Layout {
}
class diagram::description::MappingBasedDecoration {
}
class diagram::description::NodeMapping {
  + createNode(container : any, modelElement : any, viewPoint : any) : str
  + getNodesCandidates(container : any, containerView : any, semanticOrigin : any) : str
  + updateListElement(listElement : any) : void
  + updateNode(node : any) : void
}
class diagram::description::NodeMappingImport {
}
class diagram::description::OrderedTreeLayout {
  + childrenExpression : str
}
class diagram::filter::CompositeFilterDescription {
}
abstract class diagram::filter::Filter {
  + filterKind : str
  + isVisible(element : any) : bool
}
abstract class diagram::filter::FilterDescription {
  + isVisible(element : any) : bool
}
class diagram::filter::MappingFilter {
  + semanticConditionExpression : str
  + viewConditionExpression : str
}
class diagram::filter::VariableFilter {
  + semanticConditionExpression : str
  + resetVariables() : void
}
class diagram::style::BeginLabelStyleDescription {
}
class diagram::style::BorderedStyleDescription {
  + borderLineStyle : str
  + borderSizeComputationExpression : str
}
class diagram::style::BracketEdgeStyleDescription {
}
class diagram::style::BundledImageDescription {
  + providedShapeID : str
  + shape : str
}
class diagram::style::CenterLabelStyleDescription {
}
abstract class diagram::style::ContainerStyleDescription {
  + roundedCorner : bool
}
class diagram::style::CustomStyleDescription {
  + id : str
}
class diagram::style::DotDescription {
  + strokeSizeComputationExpression : str
}
class diagram::style::EdgeStyleDescription {
  + endsCentering : str
  + foldingStyle : str
  + lineStyle : str
  + routingStyle : str
  + sizeComputationExpression : str
  + sourceArrow : str
  + targetArrow : str
}
class diagram::style::EllipseNodeDescription {
  + horizontalDiameterComputationExpression : str
  + verticalDiameterComputationExpression : str
}
class diagram::style::EndLabelStyleDescription {
}
class diagram::style::FlatContainerStyleDescription {
  + backgroundStyle : str
}
class diagram::style::GaugeCompositeStyleDescription {
  + alignment : str
}
class diagram::style::GaugeSectionDescription {
  + label : str
  + maxValueExpression : str
  + minValueExpression : str
  + valueExpression : str
}
abstract class diagram::style::HideLabelCapabilityStyleDescription {
  + hideLabelByDefault : bool
}
class diagram::style::LozengeNodeDescription {
  + heightComputationExpression : str
  + widthComputationExpression : str
}
abstract class diagram::style::NodeStyleDescription {
  + forbiddenSides : str
  + labelPosition : str
  + resizeKind : str
  + sizeComputationExpression : str
}
class diagram::style::NoteDescription {
}
abstract class diagram::style::RoundedCornerStyleDescription {
  + arcHeight : str
  + arcWidth : str
}
class diagram::style::ShapeContainerStyleDescription {
  + shape : str
}
abstract class diagram::style::SizeComputationContainerStyleDescription {
  + heightComputationExpression : str
  + widthComputationExpression : str
}
class diagram::style::SquareDescription {
  + height : str
  + width : str
}
class diagram::style::WorkspaceImageDescription {
  + workspacePath : str
}
class diagram::tool::BehaviorTool {
  + domainClass : str
}
class diagram::tool::ContainerCreationDescription {
  + iconPath : str
}
class diagram::tool::ContainerDropDescription {
  + dragSource : str
  + moveEdges : bool
  + getBestMapping(droppedElement : any, targetContainer : any) : str
  + getContainers() : str
}
class diagram::tool::CreateEdgeView {
  + sourceExpression : str
  + targetExpression : str
}
class diagram::tool::CreateView {
  + containerViewExpression : str
  + variableName : str
}
class diagram::tool::DeleteElementDescription {
  + getMappings() : str
}
class diagram::tool::DeleteHook {
  + id : str
}
class diagram::tool::DeleteHookParameter {
  + name : str
  + value : str
}
class diagram::tool::DiagramCreationDescription {
}
class diagram::tool::DiagramNavigationDescription {
}
class diagram::tool::DirectEditLabel {
  + inputLabelExpression : str
  + getMapping() : str
}
class diagram::tool::DoubleClickDescription {
}
class diagram::tool::EdgeCreationDescription {
  + connectionStartPrecondition : str
  + iconPath : str
  + getBestMapping(createdElements : any, source : any, target : any) : str
}
class diagram::tool::ElementDoubleClickVariable {
}
class diagram::tool::Navigation {
  + createIfNotExistent : bool
}
class diagram::tool::NodeCreationDescription {
  + iconPath : str
}
class diagram::tool::NodeCreationVariable {
}
class diagram::tool::ReconnectEdgeDescription {
  + reconnectionKind : str
  + getMappings() : str
}
class diagram::tool::RequestDescription {
  + type : str
}
class diagram::tool::SourceEdgeCreationVariable {
}
class diagram::tool::SourceEdgeViewCreationVariable {
}
class diagram::tool::TargetEdgeCreationVariable {
}
class diagram::tool::TargetEdgeViewCreationVariable {
}
class diagram::tool::ToolGroup {
}
class diagram::tool::ToolGroupExtension {
}
class diagram::tool::ToolSection {
  + icon : str
}
class filter::CompositeFilterDescription {
}
class filter::Filter {
}
class filter::FilterDescription {
}
class style::BeginLabelStyleDescription {
}
class style::BorderedStyleDescription {
}
class style::CenterLabelStyleDescription {
}
class style::ContainerStyleDescription {
}
class style::EdgeStyleDescription {
}
class style::EndLabelStyleDescription {
}
class style::GaugeSectionDescription {
}
class style::HideLabelCapabilityStyleDescription {
}
class style::LabelBorderStyleDescription {
}
class style::LabelStyleDescription {
}
class style::NodeStyleDescription {
}
class style::RoundedCornerStyleDescription {
}
class style::SizeComputationContainerStyleDescription {
}
class style::StyleDescription {
}
class style::TooltipStyleDescription {
}
class tool::AbstractToolDescription {
}
class tool::BehaviorTool {
}
class tool::ContainerDropDescription {
}
class tool::ContainerViewVariable {
}
class tool::DeleteElementDescription {
}
class tool::DeleteHook {
}
class tool::DeleteHookParameter {
}
class tool::DirectEditLabel {
}
class tool::DoubleClickDescription {
}
class tool::DropContainerVariable {
}
class tool::EditMaskVariables {
}
class tool::ElementDeleteVariable {
}
class tool::ElementDoubleClickVariable {
}
class tool::ElementDropVariable {
}
class tool::ElementSelectVariable {
}
class tool::InitEdgeCreationOperation {
}
class tool::InitialContainerDropOperation {
}
class tool::InitialNodeCreationOperation {
}
class tool::InitialOperation {
}
class tool::NodeCreationVariable {
}
class tool::PopupMenu {
}
class tool::ReconnectEdgeDescription {
}
class tool::RepresentationCreationDescription {
}
class tool::SelectModelElementVariable {
}
class tool::SourceEdgeCreationVariable {
}
class tool::SourceEdgeViewCreationVariable {
}
class tool::TargetEdgeCreationVariable {
}
class tool::TargetEdgeViewCreationVariable {
}
class tool::ToolEntry {
}
class tool::ToolGroup {
}
class tool::ToolGroupExtension {
}
class tool::ToolSection {
}
class tool::VariableContainer {
}
class validation::ValidationRule {
}
class validation::ValidationSet {
}
AbstractDNode <|-- diagram::DDiagramElementContainer
AbstractDNode <|-- diagram::DNode
AbstractDNode <|-- diagram::DNodeListElement
AbstractToolDescription <|-- diagram::tool::BehaviorTool
AbstractToolDescription <|-- diagram::tool::RequestDescription
BasicLabelStyle <|-- diagram::BeginLabelStyle
BasicLabelStyle <|-- diagram::CenterLabelStyle
BasicLabelStyle <|-- diagram::EndLabelStyle
BasicLabelStyleDescription <|-- diagram::style::BeginLabelStyleDescription
BasicLabelStyleDescription <|-- diagram::style::CenterLabelStyleDescription
BasicLabelStyleDescription <|-- diagram::style::EndLabelStyleDescription
BorderedStyle <|-- diagram::ContainerStyle
BorderedStyle <|-- diagram::NodeStyle
CollapseFilter <|-- diagram::IndirectlyCollapseFilter
ConditionalStyleDescription <|-- diagram::description::ConditionalContainerStyleDescription
ConditionalStyleDescription <|-- diagram::description::ConditionalEdgeStyleDescription
ConditionalStyleDescription <|-- diagram::description::ConditionalNodeStyleDescription
ContainerModelOperation <|-- diagram::tool::CreateView
ContainerModelOperation <|-- diagram::tool::Navigation
ContainerStyle <|-- diagram::FlatContainerStyle
ContainerStyle <|-- diagram::ShapeContainerStyle
ContainerStyle <|-- diagram::WorkspaceImage
CreateView <|-- diagram::tool::CreateEdgeView
Customizable <|-- diagram::GaugeSection
DDiagram <|-- diagram::DSemanticDiagram
DDiagramElement <|-- diagram::AbstractDNode
DDiagramElement <|-- diagram::DEdge
DDiagramElementContainer <|-- diagram::DNodeContainer
DDiagramElementContainer <|-- diagram::DNodeList
DRepresentation <|-- diagram::DDiagram
DRepresentationElement <|-- diagram::DDiagramElement
DSemanticDecorator <|-- diagram::DSemanticDiagram
DecorationDescription <|-- diagram::description::MappingBasedDecoration
DocumentedElement <|-- diagram::concern::ConcernSet
DocumentedElement <|-- diagram::description::Layout
DragAndDropTarget <|-- diagram::DDiagram
DragAndDropTarget <|-- diagram::DDiagramElementContainer
DragAndDropTarget <|-- diagram::DNode
EdgeStyle <|-- diagram::BracketEdgeStyle
EdgeStyleDescription <|-- diagram::style::BracketEdgeStyleDescription
EdgeTarget <|-- diagram::DDiagramElementContainer
EdgeTarget <|-- diagram::DEdge
EdgeTarget <|-- diagram::DNode
Filter <|-- diagram::filter::MappingFilter
Filter <|-- diagram::filter::VariableFilter
FilterDescription <|-- diagram::filter::CompositeFilterDescription
GraphicalFilter <|-- diagram::AbsoluteBoundsFilter
GraphicalFilter <|-- diagram::AppliedCompositeFilters
GraphicalFilter <|-- diagram::CollapseFilter
GraphicalFilter <|-- diagram::FoldingFilter
GraphicalFilter <|-- diagram::FoldingPointFilter
GraphicalFilter <|-- diagram::HideFilter
GraphicalFilter <|-- diagram::HideLabelFilter
HideLabelCapabilityStyle <|-- diagram::ContainerStyle
HideLabelCapabilityStyle <|-- diagram::NodeStyle
LabelStyle <|-- diagram::ContainerStyle
LabelStyle <|-- diagram::NodeStyle
Layer <|-- diagram::description::AdditionalLayer
Layout <|-- diagram::description::CompositeLayout
Layout <|-- diagram::description::OrderedTreeLayout
MappingBasedToolDescription <|-- diagram::tool::ContainerCreationDescription
MappingBasedToolDescription <|-- diagram::tool::ContainerDropDescription
MappingBasedToolDescription <|-- diagram::tool::DeleteElementDescription
MappingBasedToolDescription <|-- diagram::tool::DirectEditLabel
MappingBasedToolDescription <|-- diagram::tool::DoubleClickDescription
MappingBasedToolDescription <|-- diagram::tool::EdgeCreationDescription
MappingBasedToolDescription <|-- diagram::tool::NodeCreationDescription
MappingBasedToolDescription <|-- diagram::tool::ReconnectEdgeDescription
NodeStyle <|-- diagram::BundledImage
NodeStyle <|-- diagram::CustomStyle
NodeStyle <|-- diagram::Dot
NodeStyle <|-- diagram::Ellipse
NodeStyle <|-- diagram::GaugeCompositeStyle
NodeStyle <|-- diagram::Lozenge
NodeStyle <|-- diagram::Note
NodeStyle <|-- diagram::Square
NodeStyle <|-- diagram::WorkspaceImage
NodeStyleDescription <|-- diagram::style::BundledImageDescription
NodeStyleDescription <|-- diagram::style::CustomStyleDescription
NodeStyleDescription <|-- diagram::style::DotDescription
NodeStyleDescription <|-- diagram::style::EllipseNodeDescription
NodeStyleDescription <|-- diagram::style::GaugeCompositeStyleDescription
NodeStyleDescription <|-- diagram::style::LozengeNodeDescription
NodeStyleDescription <|-- diagram::style::NoteDescription
NodeStyleDescription <|-- diagram::style::SquareDescription
RepresentationCreationDescription <|-- diagram::tool::DiagramCreationDescription
RepresentationExtensionDescription <|-- diagram::description::DiagramExtensionDescription
RepresentationNavigationDescription <|-- diagram::tool::DiagramNavigationDescription
Style <|-- diagram::BorderedStyle
Style <|-- diagram::ContainerStyle
Style <|-- diagram::EdgeStyle
Style <|-- diagram::NodeStyle
StyleDescription <|-- diagram::style::BorderedStyleDescription
StyleDescription <|-- diagram::style::EdgeStyleDescription
StyleDescription <|-- diagram::style::RoundedCornerStyleDescription
ToolEntry <|-- diagram::tool::ToolGroup
VariableValue <|-- diagram::EObjectVariableValue
VariableValue <|-- diagram::TypedVariableValue
description::AbstractMappingImport <|-- diagram::description::ContainerMappingImport
description::AbstractMappingImport <|-- diagram::description::NodeMappingImport
description::AbstractNodeMapping <|-- diagram::description::ContainerMapping
description::AbstractNodeMapping <|-- diagram::description::NodeMapping
description::AbstractVariable <|-- diagram::tool::ElementDoubleClickVariable
description::AbstractVariable <|-- diagram::tool::NodeCreationVariable
description::AbstractVariable <|-- diagram::tool::SourceEdgeCreationVariable
description::AbstractVariable <|-- diagram::tool::SourceEdgeViewCreationVariable
description::AbstractVariable <|-- diagram::tool::TargetEdgeCreationVariable
description::AbstractVariable <|-- diagram::tool::TargetEdgeViewCreationVariable
description::ContainerMapping <|-- diagram::description::ContainerMappingImport
description::DiagramDescription <|-- diagram::description::DiagramImportDescription
description::DiagramElementMapping <|-- diagram::description::AbstractNodeMapping
description::DiagramElementMapping <|-- diagram::description::EdgeMapping
description::DocumentedElement <|-- diagram::DDiagram
description::DocumentedElement <|-- diagram::concern::ConcernDescription
description::DocumentedElement <|-- diagram::description::AbstractNodeMapping
description::DocumentedElement <|-- diagram::description::EdgeMapping
description::DocumentedElement <|-- diagram::description::EdgeMappingImport
description::DocumentedElement <|-- diagram::description::Layer
description::DocumentedElement <|-- diagram::filter::FilterDescription
description::DocumentedElement <|-- diagram::tool::ToolSection
description::DragAndDropTargetDescription <|-- diagram::description::ContainerMapping
description::DragAndDropTargetDescription <|-- diagram::description::DiagramDescription
description::DragAndDropTargetDescription <|-- diagram::description::NodeMapping
description::EndUserDocumentedElement <|-- diagram::description::Layer
description::IEdgeMapping <|-- diagram::description::EdgeMapping
description::IEdgeMapping <|-- diagram::description::EdgeMappingImport
description::IdentifiedElement <|-- diagram::concern::ConcernDescription
description::IdentifiedElement <|-- diagram::description::EdgeMappingImport
description::IdentifiedElement <|-- diagram::description::Layer
description::IdentifiedElement <|-- diagram::filter::FilterDescription
description::IdentifiedElement <|-- diagram::tool::ToolSection
description::NodeMapping <|-- diagram::description::NodeMappingImport
description::PasteTargetDescription <|-- diagram::description::DiagramDescription
description::PasteTargetDescription <|-- diagram::description::DiagramElementMapping
description::RepresentationDescription <|-- diagram::description::DiagramDescription
description::RepresentationElementMapping <|-- diagram::description::DiagramElementMapping
description::RepresentationImportDescription <|-- diagram::description::DiagramImportDescription
style::BorderedStyleDescription <|-- diagram::style::ContainerStyleDescription
style::BorderedStyleDescription <|-- diagram::style::NodeStyleDescription
style::ContainerStyleDescription <|-- diagram::style::FlatContainerStyleDescription
style::ContainerStyleDescription <|-- diagram::style::ShapeContainerStyleDescription
style::ContainerStyleDescription <|-- diagram::style::WorkspaceImageDescription
style::HideLabelCapabilityStyleDescription <|-- diagram::style::ContainerStyleDescription
style::HideLabelCapabilityStyleDescription <|-- diagram::style::NodeStyleDescription
style::LabelStyleDescription <|-- diagram::style::ContainerStyleDescription
style::LabelStyleDescription <|-- diagram::style::NodeStyleDescription
style::NodeStyleDescription <|-- diagram::style::WorkspaceImageDescription
style::RoundedCornerStyleDescription <|-- diagram::style::ContainerStyleDescription
style::SizeComputationContainerStyleDescription <|-- diagram::style::FlatContainerStyleDescription
style::SizeComputationContainerStyleDescription <|-- diagram::style::ShapeContainerStyleDescription
style::StyleDescription <|-- diagram::style::NodeStyleDescription
style::TooltipStyleDescription <|-- diagram::style::ContainerStyleDescription
style::TooltipStyleDescription <|-- diagram::style::NodeStyleDescription
tool::VariableContainer <|-- diagram::tool::ElementDoubleClickVariable
tool::VariableContainer <|-- diagram::tool::NodeCreationVariable
tool::VariableContainer <|-- diagram::tool::SourceEdgeCreationVariable
tool::VariableContainer <|-- diagram::tool::SourceEdgeViewCreationVariable
tool::VariableContainer <|-- diagram::tool::TargetEdgeCreationVariable
tool::VariableContainer <|-- diagram::tool::TargetEdgeViewCreationVariable
diagram::DDiagram "1..1" -- "0..9999" tool::BehaviorTool : activateBehaviors25
diagram::DDiagram "1..1" -- "0..9999" filter::FilterDescription : activatedFilters16
Layer "0..9999" -- "1..1" diagram::DDiagram : activatedLayers29
diagram::DDiagram "1..1" -- "0..9999" validation::ValidationRule : activatedRules23
AdditionalLayer "0..9999" -- "1..1" diagram::DDiagram : activatedTransientLayers18
NodeMapping "1..1" -- "1..1" diagram::DNode : actualMapping53
ContainerMapping "1..1" -- "1..1" diagram::DDiagramElementContainer : actualMapping72
NodeMapping "1..1" -- "1..1" diagram::DNodeListElement : actualMapping87
IEdgeMapping "1..1" -- "1..1" diagram::DEdge : actualMapping98
AdditionalLayer "0..9999" --* "1..1" diagram::description::DiagramDescription : additionalLayers150
diagram::description::DiagramDescription "1..1" -- "0..9999" tool::AbstractToolDescription : allActivatedTools156
ContainerMapping "0..9999" -- "1..1" diagram::description::DiagramDescription : allContainerMappings129
ContainerMapping "0..9999" -- "1..1" diagram::description::ContainerMapping : allContainerMappings214
EdgeMapping "0..9999" -- "1..1" diagram::description::DiagramDescription : allEdgeMappings124
EdgeMapping "0..9999" -- "1..1" diagram::description::Layer : allEdgeMappings278
diagram::DDiagram "1..1" -- "0..9999" filter::FilterDescription : allFilters20
Layer "0..9999" -- "1..1" diagram::description::DiagramDescription : allLayers153
NodeMapping "0..9999" -- "1..1" diagram::description::DiagramDescription : allNodeMappings126
NodeMapping "0..9999" -- "1..1" diagram::description::ContainerMapping : allNodeMappings202
diagram::description::DiagramDescription "1..1" -- "0..9999" tool::AbstractToolDescription : allTools136
diagram::description::Layer "1..1" -- "0..9999" tool::AbstractToolDescription : allTools267
ColorDescription "1..1" -- "1..1" diagram::style::DotDescription : backgroundColor295
ColorDescription "1..1" -- "1..1" diagram::style::GaugeSectionDescription : backgroundColor298
ColorDescription "1..1" -- "1..1" diagram::style::FlatContainerStyleDescription : backgroundColor303
ColorDescription "1..1" -- "1..1" diagram::style::ShapeContainerStyleDescription : backgroundColor310
diagram::BeginLabelStyle "0..1" --* "1..1" diagram::EdgeStyle : beginLabelStyle108
diagram::style::EdgeStyleDescription "1..1" *-- "0..1" style::BeginLabelStyleDescription : beginLabelStyleDescription314
diagram::concern::ConcernDescription "1..1" -- "0..9999" tool::BehaviorTool : behaviors467
ColorDescription "1..1" -- "1..1" diagram::style::BorderedStyleDescription : borderColor284
NodeMapping "0..9999" --* "1..1" diagram::description::AbstractNodeMapping : borderedNodeMappings192
NodeMapping "0..9999" -- "1..1" diagram::DNode : candidatesMapping55
ContainerMapping "0..9999" -- "1..1" diagram::DDiagramElementContainer : candidatesMapping74
NodeMapping "0..9999" -- "1..1" diagram::DNodeListElement : candidatesMapping90
diagram::CenterLabelStyle "0..1" --* "1..1" diagram::EdgeStyle : centerLabelStyle110
diagram::style::EdgeStyleDescription "1..1" *-- "0..1" style::CenterLabelStyleDescription : centerLabelStyleDescription316
DiagramElementMapping "0..9999" -- "1..1" diagram::style::EdgeStyleDescription : centeredSourceMappings320
DiagramElementMapping "0..9999" -- "1..1" diagram::style::EdgeStyleDescription : centeredTargetMappings323
ColorDescription "1..1" -- "1..1" diagram::style::SquareDescription : color285
ColorDescription "1..1" -- "1..1" diagram::style::LozengeNodeDescription : color287
ColorDescription "1..1" -- "1..1" diagram::style::EllipseNodeDescription : color289
ColorDescription "1..1" -- "1..1" diagram::style::BundledImageDescription : color291
ColorDescription "1..1" -- "1..1" diagram::style::NoteDescription : color293
diagram::AppliedCompositeFilters "1..1" -- "0..9999" filter::CompositeFilterDescription : compositeFilterDescriptions46
diagram::ComputedStyleDescriptionRegistry "1..1" *-- "0..9999" style::StyleDescription : computedStyleDescriptions117
concern::ConcernSet "0..1" --* "1..1" diagram::description::DiagramDescription : concerns134
concern::ConcernSet "0..1" --* "1..1" diagram::description::DiagramExtensionDescription : concerns185
ConditionalNodeStyleDescription "0..9999" --* "1..1" diagram::description::NodeMapping : conditionnalStyles198
ConditionalContainerStyleDescription "0..9999" --* "1..1" diagram::description::ContainerMapping : conditionnalStyles219
ConditionalEdgeStyleDescription "0..9999" --* "1..1" diagram::description::EdgeMapping : conditionnalStyles232
ConditionalEdgeStyleDescription "0..9999" --* "1..1" diagram::description::EdgeMappingImport : conditionnalStyles240
ContainerMapping "0..9999" --* "1..1" diagram::description::DiagramDescription : containerMappings167
ContainerMapping "0..9999" --* "1..1" diagram::description::Layer : containerMappings261
ContainerMapping "1..9999" -- "1..1" diagram::tool::ContainerCreationDescription : containerMappings372
diagram::tool::DeleteElementDescription "1..1" *-- "1..1" tool::ContainerViewVariable : containerView390
diagram::DDiagram "1..1" -- "0..9999" diagram::DDiagramElementContainer : containers12
diagram::DDiagramElementContainer "0..9999" -- "1..1" diagram::DDiagramElementContainer : containers62
concern::ConcernDescription "0..1" -- "1..1" diagram::DDiagram : currentConcern14
Customization "0..1" --* "1..1" diagram::description::Layer : customization281
DecorationDescriptionsSet "0..1" --* "1..1" diagram::description::Layer : decorationDescriptionsSet276
diagram::DDiagramElement "1..1" *-- "0..9999" diagram::Decoration : decorations37
concern::ConcernDescription "0..1" -- "1..1" diagram::description::DiagramDescription : defaultConcern138
Layer "0..1" --* "1..1" diagram::description::DiagramDescription : defaultLayer147
diagram::description::DiagramElementMapping "1..1" -- "0..1" tool::DeleteElementDescription : deletionDescription188
DiagramDescription "0..1" -- "1..1" diagram::DDiagram : description4
DiagramDescription "1..1" -- "1..1" diagram::tool::Navigation : diagramDescription436
DiagramDescription "1..1" -- "1..1" diagram::tool::DiagramCreationDescription : diagramDescription438
DiagramDescription "1..1" -- "1..1" diagram::tool::DiagramNavigationDescription : diagramDescription440
DiagramElementMapping "0..1" -- "1..1" diagram::DDiagramElement : diagramElementMapping42
diagram::DDiagram "1..1" -- "0..9999" diagram::DDiagramElement : diagramElements1
diagram::description::DiagramDescription "1..1" *-- "0..1" tool::InitialOperation : diagramInitialisation145
diagram::description::DiagramElementMapping "1..1" -- "0..1" tool::DoubleClickDescription : doubleClickDescription191
diagram::description::DragAndDropTargetDescription "1..1" -- "0..9999" tool::ContainerDropDescription : dropDescriptions283
EdgeMappingImport "0..9999" --* "1..1" diagram::description::DiagramDescription : edgeMappingImports165
EdgeMappingImport "0..9999" --* "1..1" diagram::description::Layer : edgeMappingImports258
EdgeMapping "0..9999" --* "1..1" diagram::description::DiagramDescription : edgeMappings162
EdgeMapping "0..9999" --* "1..1" diagram::description::Layer : edgeMappings255
EdgeMapping "1..9999" -- "1..1" diagram::tool::EdgeCreationDescription : edgeMappings354
diagram::tool::ReconnectEdgeDescription "1..1" *-- "1..1" tool::ElementSelectVariable : edgeView425
diagram::DDiagram "1..1" -- "0..9999" diagram::DEdge : edges6
diagram::tool::DeleteElementDescription "1..1" *-- "1..1" tool::ElementDeleteVariable : element386
diagram::tool::DoubleClickDescription "1..1" *-- "1..1" tool::ElementDoubleClickVariable : element401
diagram::tool::ReconnectEdgeDescription "1..1" *-- "1..1" tool::ElementSelectVariable : element420
diagram::tool::ContainerDropDescription "1..1" *-- "1..1" tool::ElementDropVariable : element449
diagram::tool::DeleteElementDescription "1..1" *-- "0..1" tool::ElementDeleteVariable : elementView387
diagram::tool::DoubleClickDescription "1..1" *-- "0..1" tool::ElementDoubleClickVariable : elementView402
diagram::DDiagramElement "0..9999" -- "1..1" diagram::DDiagramElementContainer : elements64
diagram::EdgeStyle "1..1" *-- "0..1" diagram::EndLabelStyle : endLabelStyle112
diagram::style::EdgeStyleDescription "1..1" *-- "0..1" style::EndLabelStyleDescription : endLabelStyleDescription318
AbstractNodeMapping "0..9999" -- "1..1" diagram::tool::NodeCreationDescription : extraMappings351
AbstractNodeMapping "0..9999" -- "1..1" diagram::tool::ContainerCreationDescription : extraMappings383
DiagramElementMapping "0..9999" -- "1..1" diagram::tool::EdgeCreationDescription : extraSourceMappings366
DiagramElementMapping "0..9999" -- "1..1" diagram::tool::EdgeCreationDescription : extraTargetMappings369
diagram::DDiagram "1..1" *-- "1..1" diagram::FilterVariableHistory : filterVariableHistory27
diagram::description::DiagramDescription "1..1" *-- "0..9999" filter::FilterDescription : filters122
diagram::filter::CompositeFilterDescription "1..1" *-- "1..9999" filter::Filter : filters458
diagram::concern::ConcernDescription "1..1" -- "0..9999" filter::FilterDescription : filters462
ColorDescription "1..1" -- "1..1" diagram::style::GaugeSectionDescription : foregroundColor300
ColorDescription "1..1" -- "1..1" diagram::style::FlatContainerStyleDescription : foregroundColor305
diagram::DDiagramElement "1..1" *-- "0..9999" diagram::GraphicalFilter : graphicalFilters44
diagram::tool::ToolGroupExtension "1..1" -- "1..1" tool::ToolGroup : group339
diagram::tool::ToolSection "1..1" *-- "0..9999" tool::ToolGroupExtension : groupExtensions335
diagram::DDiagram "1..1" -- "0..9999" diagram::DDiagramElement : hiddenElements31
diagram::tool::DeleteElementDescription "1..1" *-- "0..1" tool::DeleteHook : hook396
DiagramDescription "0..1" -- "1..1" diagram::description::DiagramImportDescription : importedDiagram178
NodeMapping "1..1" -- "1..1" diagram::description::NodeMappingImport : importedMapping221
ContainerMapping "1..1" -- "1..1" diagram::description::ContainerMappingImport : importedMapping223
IEdgeMapping "1..1" -- "1..1" diagram::description::EdgeMappingImport : importedMapping238
diagram::DEdge "0..9999" -- "1..1" diagram::EdgeTarget : incomingEdges106
diagram::description::DiagramDescription "1..1" -- "0..1" tool::RepresentationCreationDescription : init141
diagram::tool::NodeCreationDescription "1..1" *-- "1..1" tool::InitialNodeCreationOperation : initialOperation349
diagram::tool::EdgeCreationDescription "1..1" *-- "1..1" tool::InitEdgeCreationOperation : initialOperation364
diagram::tool::ContainerCreationDescription "1..1" *-- "1..1" tool::InitialNodeCreationOperation : initialOperation380
diagram::tool::DeleteElementDescription "1..1" *-- "1..1" tool::InitialOperation : initialOperation393
diagram::tool::DoubleClickDescription "1..1" *-- "1..1" tool::InitialOperation : initialOperation405
diagram::tool::ReconnectEdgeDescription "1..1" *-- "1..1" tool::InitialOperation : initialOperation422
diagram::tool::DirectEditLabel "1..1" *-- "1..1" tool::InitialOperation : initialOperation429
diagram::tool::BehaviorTool "1..1" *-- "1..1" tool::InitialOperation : initialOperation432
diagram::tool::ContainerDropDescription "1..1" *-- "1..1" tool::InitialContainerDropOperation : initialOperation454
diagram::style::FlatContainerStyleDescription "1..1" -- "0..1" style::LabelBorderStyleDescription : labelBorderStyle308
diagram::description::DiagramElementMapping "1..1" -- "0..1" tool::DirectEditLabel : labelDirectEdit189
AdditionalLayer "0..9999" --* "1..1" diagram::description::DiagramExtensionDescription : layers180
Layout "0..1" --* "1..1" diagram::description::DiagramDescription : layout143
DiagramElementMapping "1..1" -- "1..1" diagram::tool::CreateView : mapping434
DiagramElementMapping "1..9999" -- "1..1" diagram::description::MappingBasedDecoration : mappings251
DiagramElementMapping "1..9999" -- "1..1" diagram::tool::DoubleClickDescription : mappings398
DiagramElementMapping "0..9999" -- "1..1" diagram::tool::ContainerDropDescription : mappings442
DiagramElementMapping "0..9999" -- "1..1" diagram::filter::MappingFilter : mappings456
diagram::tool::DirectEditLabel "1..1" *-- "1..1" tool::EditMaskVariables : mask428
diagram::EObject "1..1" -- "1..1" diagram::EObjectVariableValue : modelElement120
diagram::tool::ContainerDropDescription "1..1" *-- "1..1" tool::DropContainerVariable : newContainer446
diagram::tool::ContainerDropDescription "1..1" *-- "1..1" tool::ContainerViewVariable : newViewContainer451
diagram::DDiagram "1..1" -- "0..9999" diagram::DNodeListElement : nodeListElements10
AbstractNodeMapping "1..9999" -- "1..1" diagram::description::OrderedTreeLayout : nodeMapping249
NodeMapping "0..9999" --* "1..1" diagram::description::DiagramDescription : nodeMappings159
NodeMapping "0..9999" --* "1..1" diagram::description::Layer : nodeMappings253
NodeMapping "1..9999" -- "1..1" diagram::tool::NodeCreationDescription : nodeMappings343
diagram::DDiagramElementContainer "1..1" -- "0..9999" diagram::DNode : nodes58
diagram::DDiagram "1..1" -- "0..9999" diagram::DNode : nodes8
diagram::tool::ContainerDropDescription "1..1" *-- "1..1" tool::DropContainerVariable : oldContainer444
diagram::DEdge "1..1" -- "0..1" diagram::Style : originalStyle100
diagram::DNode "1..1" -- "0..1" diagram::Style : originalStyle51
diagram::DDiagramElementContainer "1..1" -- "0..1" diagram::Style : originalStyle69
diagram::DNodeListElement "1..1" -- "0..1" diagram::Style : originalStyle84
diagram::DEdge "0..9999" -- "1..1" diagram::EdgeTarget : outgoingEdges105
diagram::AbstractDNode "1..1" *-- "0..9999" diagram::DNode : ownedBorderedNodes47
concern::ConcernDescription "0..9999" --* "1..1" diagram::concern::ConcernSet : ownedConcernDescriptions460
diagram::DDiagram "1..1" *-- "0..9999" diagram::DDiagramElement : ownedDiagramElements0
diagram::DDiagramElement "0..9999" --* "1..1" diagram::DNodeContainer : ownedDiagramElements77
diagram::DNodeList "1..1" *-- "0..9999" diagram::DNodeListElement : ownedElements79
diagram::DNode "1..1" *-- "0..1" diagram::NodeStyle : ownedStyle49
diagram::ContainerStyle "0..1" --* "1..1" diagram::DDiagramElementContainer : ownedStyle67
diagram::DNodeListElement "1..1" *-- "0..1" diagram::NodeStyle : ownedStyle81
diagram::DEdge "1..1" *-- "0..1" diagram::EdgeStyle : ownedStyle93
diagram::tool::ToolSection "1..1" *-- "0..9999" tool::ToolEntry : ownedTools326
diagram::FilterVariableHistory "1..1" *-- "0..9999" diagram::VariableValue : ownedValues115
InteractiveVariableDescription "0..9999" --* "1..1" diagram::filter::VariableFilter : ownedVariables459
diagram::tool::DeleteHook "1..1" *-- "0..9999" tool::DeleteHookParameter : parameters408
Layer "0..9999" -- "1..1" diagram::DDiagramElement : parentLayers34
diagram::DEdge "1..1" -- "0..9999" diagram::EdgeTarget : path103
AbstractNodeMapping "0..9999" -- "1..1" diagram::description::EdgeMapping : pathNodeMapping236
diagram::tool::ToolSection "1..1" -- "0..9999" tool::PopupMenu : popupMenus330
diagram::description::EdgeMapping "1..1" -- "0..9999" tool::ReconnectEdgeDescription : reconnections234
NodeMapping "0..9999" -- "1..1" diagram::description::AbstractNodeMapping : reusedBorderedNodeMappings194
ContainerMapping "0..9999" -- "1..1" diagram::description::ContainerMapping : reusedContainerMappings211
DiagramElementMapping "0..9999" -- "1..1" diagram::description::DiagramDescription : reusedMappings170
DiagramElementMapping "0..9999" -- "1..1" diagram::description::Layer : reusedMappings264
NodeMapping "0..9999" -- "1..1" diagram::description::ContainerMapping : reusedNodeMappings205
diagram::description::DiagramDescription "1..1" -- "0..9999" tool::AbstractToolDescription : reusedTools175
diagram::description::Layer "1..1" -- "0..9999" tool::AbstractToolDescription : reusedTools273
diagram::tool::ToolSection "1..1" -- "0..9999" tool::ToolEntry : reusedTools332
diagram::concern::ConcernDescription "1..1" -- "0..9999" validation::ValidationRule : rules464
diagram::GaugeCompositeStyle "1..1" *-- "0..9999" diagram::GaugeSection : sections114
diagram::style::GaugeCompositeStyleDescription "1..1" *-- "0..9999" style::GaugeSectionDescription : sections297
diagram::tool::ReconnectEdgeDescription "1..1" *-- "1..1" tool::SourceEdgeCreationVariable : source409
DiagramElementMapping "1..9999" -- "1..1" diagram::description::EdgeMapping : sourceMapping225
diagram::DEdge "1..1" -- "1..1" diagram::EdgeTarget : sourceNode95
diagram::tool::EdgeCreationDescription "1..1" *-- "1..1" tool::SourceEdgeCreationVariable : sourceVariable356
diagram::tool::ReconnectEdgeDescription "1..1" *-- "1..1" tool::SourceEdgeViewCreationVariable : sourceView414
diagram::tool::EdgeCreationDescription "1..1" *-- "1..1" tool::SourceEdgeViewCreationVariable : sourceViewVariable360
ColorDescription "1..1" -- "1..1" diagram::style::EdgeStyleDescription : strokeColor312
diagram::description::NodeMapping "1..1" *-- "0..1" style::NodeStyleDescription : style197
diagram::description::ContainerMapping "1..1" *-- "0..1" style::ContainerStyleDescription : style217
diagram::description::EdgeMapping "1..1" *-- "0..1" style::EdgeStyleDescription : style230
diagram::description::ConditionalNodeStyleDescription "1..1" *-- "0..1" style::NodeStyleDescription : style243
diagram::description::ConditionalEdgeStyleDescription "1..1" *-- "0..1" style::EdgeStyleDescription : style245
diagram::description::ConditionalContainerStyleDescription "1..1" *-- "0..1" style::ContainerStyleDescription : style247
ContainerMapping "0..9999" --* "1..1" diagram::description::ContainerMapping : subContainerMappings208
NodeMapping "0..9999" --* "1..1" diagram::description::ContainerMapping : subNodeMappings200
diagram::tool::ToolSection "1..1" *-- "0..9999" tool::ToolSection : subSections327
diagram::tool::ReconnectEdgeDescription "1..1" *-- "1..1" tool::TargetEdgeCreationVariable : target411
DiagramElementMapping "1..9999" -- "1..1" diagram::description::EdgeMapping : targetMapping227
diagram::DEdge "1..1" -- "1..1" diagram::EdgeTarget : targetNode96
diagram::tool::EdgeCreationDescription "1..1" *-- "1..1" tool::TargetEdgeCreationVariable : targetVariable358
diagram::tool::ReconnectEdgeDescription "1..1" *-- "1..1" tool::TargetEdgeViewCreationVariable : targetView417
diagram::tool::EdgeCreationDescription "1..1" *-- "1..1" tool::TargetEdgeViewCreationVariable : targetViewVariable362
diagram::description::DiagramDescription "1..1" *-- "0..1" tool::ToolSection : toolSection173
diagram::description::Layer "1..1" *-- "0..9999" tool::ToolSection : toolSections270
diagram::tool::ToolGroup "1..1" *-- "0..9999" tool::AbstractToolDescription : tools337
diagram::tool::ToolGroupExtension "1..1" *-- "0..9999" tool::AbstractToolDescription : tools340
diagram::DDiagramElement "1..1" *-- "0..9999" diagram::Decoration : transientDecorations39
diagram::description::DiagramDescription "1..1" *-- "0..1" validation::ValidationSet : validationSet132
diagram::description::DiagramExtensionDescription "1..1" *-- "0..1" validation::ValidationSet : validationSet182
diagram::tool::NodeCreationDescription "1..1" *-- "1..1" tool::NodeCreationVariable : variable345
diagram::tool::ContainerCreationDescription "1..1" *-- "1..1" tool::NodeCreationVariable : variable374
TypedVariable "1..1" -- "1..1" diagram::TypedVariableValue : variableDefinition118
diagram::EObjectVariableValue "1..1" -- "1..1" tool::SelectModelElementVariable : variableDefinition119
diagram::tool::NodeCreationDescription "1..1" *-- "1..1" tool::ContainerViewVariable : viewVariable347
diagram::tool::ContainerCreationDescription "1..1" *-- "1..1" tool::ContainerViewVariable : viewVariable377
@enduml