@startuml
class ChangeAction {
}
class Expression {
}
class ExtDeclaration {
}
class stateMachineDsl::Action {
}
class stateMachineDsl::And {
}
class stateMachineDsl::BoolExp {
  + value : str
}
class stateMachineDsl::ChangeAction {
}
class stateMachineDsl::CommandAction {
}
class stateMachineDsl::Comparison {
  + op : str
}
class stateMachineDsl::Condition {
}
class stateMachineDsl::Declaration {
}
class stateMachineDsl::DecrementAction {
}
class stateMachineDsl::DoubleExp {
  + decimal : int
  + negative : str
  + number : int
}
class stateMachineDsl::EObject {
}
class stateMachineDsl::Equality {
  + op : str
}
class stateMachineDsl::Event {
  + name : str
}
class stateMachineDsl::Expression {
}
class stateMachineDsl::ExtDeclaration {
  + name : str
}
class stateMachineDsl::Function {
}
class stateMachineDsl::FunctionUse {
}
class stateMachineDsl::IncrementAction {
}
class stateMachineDsl::Member {
}
class stateMachineDsl::MemberState {
}
class stateMachineDsl::MinusCond {
}
class stateMachineDsl::MulOrDiv {
  + op : str
}
class stateMachineDsl::Not {
}
class stateMachineDsl::NumberExp {
  + negative : str
  + value : int
}
class stateMachineDsl::Or {
}
class stateMachineDsl::Parameter {
}
class stateMachineDsl::ParameterFunction {
  + name : str
}
class stateMachineDsl::Parenthesis {
}
class stateMachineDsl::PlusCond {
}
class stateMachineDsl::Procedure {
  + name : str
}
class stateMachineDsl::ProcedureUse {
}
class stateMachineDsl::ResetAction {
}
class stateMachineDsl::SetAction {
}
class stateMachineDsl::State {
  + name : str
}
class stateMachineDsl::StateMachine {
  + name : str
}
class stateMachineDsl::StringExp {
  + value : str
}
class stateMachineDsl::Transition {
}
class stateMachineDsl::VarParName {
  + name : str
}
class stateMachineDsl::VarRef {
}
class stateMachineDsl::VarType {
  + vt : str
}
class stateMachineDsl::Variable {
}
ChangeAction <|-- stateMachineDsl::DecrementAction
ChangeAction <|-- stateMachineDsl::IncrementAction
ChangeAction <|-- stateMachineDsl::ResetAction
Expression <|-- stateMachineDsl::And
Expression <|-- stateMachineDsl::BoolExp
Expression <|-- stateMachineDsl::Comparison
Expression <|-- stateMachineDsl::DoubleExp
Expression <|-- stateMachineDsl::Equality
Expression <|-- stateMachineDsl::FunctionUse
Expression <|-- stateMachineDsl::MinusCond
Expression <|-- stateMachineDsl::MulOrDiv
Expression <|-- stateMachineDsl::Not
Expression <|-- stateMachineDsl::NumberExp
Expression <|-- stateMachineDsl::Or
Expression <|-- stateMachineDsl::Parenthesis
Expression <|-- stateMachineDsl::PlusCond
Expression <|-- stateMachineDsl::StringExp
Expression <|-- stateMachineDsl::VarRef
ExtDeclaration <|-- stateMachineDsl::CommandAction
ExtDeclaration <|-- stateMachineDsl::Function
stateMachineDsl::Action "0..1" --* "1..1" stateMachineDsl::MemberState : action19
stateMachineDsl::Action "0..1" --* "1..1" stateMachineDsl::Member : action66
stateMachineDsl::Action "1..1" *-- "0..1" stateMachineDsl::EObject : action74
stateMachineDsl::Action "0..9999" --* "1..1" stateMachineDsl::Transition : actions33
stateMachineDsl::Expression "0..9999" --* "1..1" stateMachineDsl::FunctionUse : arguments88
stateMachineDsl::Expression "0..9999" --* "1..1" stateMachineDsl::ProcedureUse : arguments93
stateMachineDsl::CommandAction "0..1" --* "1..1" stateMachineDsl::MemberState : commandaction23
stateMachineDsl::Expression "0..1" --* "1..1" stateMachineDsl::Parenthesis : cond134
stateMachineDsl::Condition "1..1" *-- "0..1" stateMachineDsl::Expression : cond96
stateMachineDsl::Condition "0..1" --* "1..1" stateMachineDsl::Transition : condition31
stateMachineDsl::Condition "0..1" --* "1..1" stateMachineDsl::Event : condition44
stateMachineDsl::Condition "0..1" --* "1..1" stateMachineDsl::Procedure : condition51
stateMachineDsl::Action "1..1" *-- "0..1" stateMachineDsl::Condition : condition76
stateMachineDsl::Declaration "0..9999" --* "1..1" stateMachineDsl::StateMachine : declarations0
stateMachineDsl::Declaration "1..1" *-- "0..1" stateMachineDsl::Event : event10
stateMachineDsl::Event "0..1" -- "1..1" stateMachineDsl::Transition : event28
stateMachineDsl::Expression "0..1" --* "1..1" stateMachineDsl::Not : expression138
stateMachineDsl::Declaration "1..1" *-- "0..1" stateMachineDsl::ExtDeclaration : extdecl8
stateMachineDsl::Function "0..1" -- "1..1" stateMachineDsl::FunctionUse : funct86
stateMachineDsl::State "0..1" -- "1..1" stateMachineDsl::StateMachine : initial3
stateMachineDsl::And "1..1" *-- "0..1" stateMachineDsl::Expression : left104
stateMachineDsl::Equality "1..1" *-- "0..1" stateMachineDsl::Expression : left109
stateMachineDsl::Comparison "1..1" *-- "0..1" stateMachineDsl::Expression : left114
stateMachineDsl::Expression "0..1" --* "1..1" stateMachineDsl::PlusCond : left119
stateMachineDsl::Expression "0..1" --* "1..1" stateMachineDsl::MinusCond : left124
stateMachineDsl::Expression "0..1" --* "1..1" stateMachineDsl::MulOrDiv : left129
stateMachineDsl::Expression "0..1" --* "1..1" stateMachineDsl::Or : left99
stateMachineDsl::MemberState "0..9999" --* "1..1" stateMachineDsl::State : members14
stateMachineDsl::Event "1..1" *-- "0..9999" stateMachineDsl::Member : members47
stateMachineDsl::Member "0..9999" --* "1..1" stateMachineDsl::Procedure : members54
stateMachineDsl::VarParName "0..1" --* "1..1" stateMachineDsl::Variable : n36
stateMachineDsl::Parameter "1..1" *-- "0..1" stateMachineDsl::VarParName : n60
stateMachineDsl::ExtDeclaration "1..1" *-- "0..9999" stateMachineDsl::ParameterFunction : parameters42
stateMachineDsl::Parameter "0..9999" --* "1..1" stateMachineDsl::Procedure : parameters49
stateMachineDsl::Declaration "1..1" *-- "0..1" stateMachineDsl::Procedure : procedure12
stateMachineDsl::Procedure "0..1" -- "1..1" stateMachineDsl::ProcedureUse : procedure91
stateMachineDsl::Function "1..1" *-- "0..1" stateMachineDsl::VarType : returnvalue69
stateMachineDsl::Expression "0..1" --* "1..1" stateMachineDsl::Or : right101
stateMachineDsl::And "1..1" *-- "0..1" stateMachineDsl::Expression : right106
stateMachineDsl::Equality "1..1" *-- "0..1" stateMachineDsl::Expression : right111
stateMachineDsl::Comparison "1..1" *-- "0..1" stateMachineDsl::Expression : right116
stateMachineDsl::Expression "0..1" --* "1..1" stateMachineDsl::PlusCond : right121
stateMachineDsl::Expression "0..1" --* "1..1" stateMachineDsl::MinusCond : right126
stateMachineDsl::Expression "0..1" --* "1..1" stateMachineDsl::MulOrDiv : right131
stateMachineDsl::State "0..9999" --* "1..1" stateMachineDsl::StateMachine : states1
stateMachineDsl::State "0..1" -- "1..1" stateMachineDsl::Transition : to25
stateMachineDsl::MemberState "1..1" *-- "0..1" stateMachineDsl::Transition : transition21
stateMachineDsl::VarType "0..1" --* "1..1" stateMachineDsl::Variable : type38
stateMachineDsl::Parameter "1..1" *-- "0..1" stateMachineDsl::VarType : type57
stateMachineDsl::ParameterFunction "1..1" *-- "0..1" stateMachineDsl::VarType : type71
stateMachineDsl::Expression "0..1" --* "1..1" stateMachineDsl::Variable : value40
stateMachineDsl::Expression "0..1" --* "1..1" stateMachineDsl::SetAction : value81
stateMachineDsl::VarParName "0..1" -- "1..1" stateMachineDsl::VarRef : variable136
stateMachineDsl::MemberState "1..1" *-- "0..1" stateMachineDsl::Variable : variable16
stateMachineDsl::Declaration "1..1" *-- "0..1" stateMachineDsl::Variable : variable6
stateMachineDsl::Member "1..1" *-- "0..1" stateMachineDsl::Variable : variable63
stateMachineDsl::SetAction "1..1" -- "0..1" stateMachineDsl::VarParName : variable79
stateMachineDsl::ChangeAction "1..1" -- "0..1" stateMachineDsl::VarParName : variable84
@enduml