@startuml
class ApplicationComponent {
}
class Architecture {
}
class DataComponent {
}
enum DataEntityCategory {
  InternallyStoredEntity
  Message
}
class Element {
}
enum LifeCycleStatus {
  InDevelopment
  Live
  PhasingOut
  Proposed
  Retired
}
enum PrincipleCategory {
  ApplicationPrinciple
  BusinessPrinciple
  DataPrinciple
  GuidingPrinciple
  IntegrationPrinciple
  TechnologyPrinciple
}
class Service {
}
class Standard {
}
enum StandardsClass {
  NonStandard
  PhasingOut
  Proposed
  Provisional
  Retired
  Standard
}
class StrategicElement {
}
class TechnologyComponent {
}
enum WorkPackageCategory {
  Portofolio
  Program
  Project
  WorkPackage
  WorkStream
}
class contentfwk::Actor {
  + FTEs : str
  + actorGoal : str
  + actorTasks : str
}
class contentfwk::ApplicationArchitecture {
}
abstract class contentfwk::ApplicationComponent {
}
abstract class contentfwk::Architecture {
}
class contentfwk::Assumption {
}
class contentfwk::BusinessArchitecture {
}
class contentfwk::BusinessService {
}
class contentfwk::Capability {
  + businessValue : str
  + increments : str
}
class contentfwk::Constraint {
}
class contentfwk::Container {
  + name : str
}
class contentfwk::Contract {
  + ServiceNameCalled : str
  + ServiceNameCaller : str
  + availabilityQualityCharacteristics : str
  + behaviorCharacteristics : str
  + capacityCharacteristics : str
  + contractControlRequirements : str
  + credibilityCharacteristics : str
  + extensibilityCharacteristics : str
  + growth : str
  + growthPeriod : str
  + integrityCharacteristics : str
  + internationalizationCharacteristics : str
  + interoperabilityCharacteristics : str
  + localizationCharacteristics : str
  + locatabilityCharacteristics : str
  + manageabilityCharacteristics : str
  + peakProfileLongTerm : str
  + peakProfileShortTerm : str
  + performanceCharacteristics : str
  + portabilityCharacteristics : str
  + privacyCharacteristics : str
  + qualityOfInformationRequired : str
  + recoverabilityCharacteristics : str
  + reliabilityCharacteristics : str
  + responseCharacteristics : str
  + resultControlRequirements : str
  + scalabilityCharacteristics : str
  + securityCharacteristics : str
  + serviceQualityCharacteristics : str
  + serviceabilityCharacteristics : str
  + servicesTimes : str
  + throughput : str
  + throughputPeriod : str
}
class contentfwk::Control {
}
class contentfwk::DataArchitecture {
}
abstract class contentfwk::DataComponent {
}
class contentfwk::DataEntity {
  + dataEntityCategory : str
  + privacyClassification : str
  + retentionClassification : str
}
class contentfwk::Driver {
}
class contentfwk::EObject {
}
class contentfwk::Element {
  + ID : str
  + category : str
  + description : str
  + name : str
  + ownerDescr : str
  + sourceDescr : str
}
class contentfwk::EnterpriseArchitecture {
}
class contentfwk::Event {
}
class contentfwk::Function {
}
class contentfwk::Gap {
}
class contentfwk::Goal {
}
class contentfwk::InformationSystemService {
}
class contentfwk::Location {
}
class contentfwk::LogicalApplicationComponent {
}
class contentfwk::LogicalDataComponent {
}
class contentfwk::LogicalTechnologyComponent {
}
class contentfwk::Measure {
}
class contentfwk::Objective {
}
class contentfwk::OrganizationUnit {
  + headcount : str
}
class contentfwk::PhysicalApplicationComponent {
  + availabilityQualityCharacteristics : str
  + capacityCharacteristics : str
  + credibilityCharacteristics : str
  + dateOfLastRelease : date
  + dateOfNextRelease : date
  + extensibilityCharacteristics : str
  + growth : str
  + growthPeriod : str
  + initialLiveDate : date
  + integrityCharacteristics : str
  + internationalizationCharacteristics : str
  + interoperabilityCharacteristics : str
  + lifeCycleStatus : str
  + localizationCharacteristics : str
  + locatabilityCharacteristics : str
  + manageabilityCharacteristics : str
  + peakProfileLongTerm : str
  + peakProfileShortTerm : str
  + performanceCharacteristics : str
  + portabilityCharacteristics : str
  + privacyCharacteristics : str
  + recoverabilityCharacteristics : str
  + reliabilityCharacteristics : str
  + retirementDate : date
  + scalabilityCharacteristics : str
  + securityCharacteristics : str
  + serviceabilityCharacteristics : str
  + servicesTimes : str
  + throughput : str
  + throughputPeriod : str
}
class contentfwk::PhysicalDataComponent {
}
class contentfwk::PhysicalTechnologyComponent {
  + moduleName : str
  + productName : str
  + vendor : str
  + version : str
}
class contentfwk::PlatformService {
}
class contentfwk::Principle {
  + implication : str
  + metric : str
  + principleCategory : str
  + priority : str
  + rationale : str
  + statementOfPrinciple : str
}
class contentfwk::Process {
  + isAutomated : bool
  + processCritiality : str
  + processVolumetrics : str
}
class contentfwk::Product {
}
class contentfwk::Requirement {
  + acceptanceCriteria : str
  + rationale : str
  + statementOfRequirement : str
}
class contentfwk::Role {
  + estimatedFTEs : str
}
abstract class contentfwk::Service {
}
class contentfwk::ServiceQuality {
}
abstract class contentfwk::Standard {
  + lastStandardCreationDate : date
  + nextStandardCreationDate : date
  + retireDate : date
  + standardClass : str
  + standardCreationDate : date
}
class contentfwk::StrategicArchitecture {
}
abstract class contentfwk::StrategicElement {
}
class contentfwk::TechnologyArchitecture {
}
abstract class contentfwk::TechnologyComponent {
}
class contentfwk::WorkPackage {
  + workPackageCategory : str
}
ApplicationComponent <|-- contentfwk::LogicalApplicationComponent
ApplicationComponent <|-- contentfwk::PhysicalApplicationComponent
Architecture <|-- contentfwk::ApplicationArchitecture
Architecture <|-- contentfwk::BusinessArchitecture
Architecture <|-- contentfwk::DataArchitecture
Architecture <|-- contentfwk::StrategicArchitecture
Architecture <|-- contentfwk::TechnologyArchitecture
DataComponent <|-- contentfwk::LogicalDataComponent
DataComponent <|-- contentfwk::PhysicalDataComponent
Element <|-- contentfwk::Actor
Element <|-- contentfwk::BusinessService
Element <|-- contentfwk::Capability
Element <|-- contentfwk::Contract
Element <|-- contentfwk::Control
Element <|-- contentfwk::DataEntity
Element <|-- contentfwk::Driver
Element <|-- contentfwk::Event
Element <|-- contentfwk::Function
Element <|-- contentfwk::Goal
Element <|-- contentfwk::InformationSystemService
Element <|-- contentfwk::Location
Element <|-- contentfwk::LogicalApplicationComponent
Element <|-- contentfwk::LogicalDataComponent
Element <|-- contentfwk::LogicalTechnologyComponent
Element <|-- contentfwk::Measure
Element <|-- contentfwk::Objective
Element <|-- contentfwk::OrganizationUnit
Element <|-- contentfwk::PhysicalApplicationComponent
Element <|-- contentfwk::PhysicalDataComponent
Element <|-- contentfwk::PhysicalTechnologyComponent
Element <|-- contentfwk::PlatformService
Element <|-- contentfwk::Process
Element <|-- contentfwk::Product
Element <|-- contentfwk::Role
Element <|-- contentfwk::ServiceQuality
Element <|-- contentfwk::StrategicElement
Service <|-- contentfwk::BusinessService
Service <|-- contentfwk::InformationSystemService
Service <|-- contentfwk::PlatformService
Standard <|-- contentfwk::ApplicationComponent
Standard <|-- contentfwk::DataComponent
Standard <|-- contentfwk::Function
Standard <|-- contentfwk::Process
Standard <|-- contentfwk::Service
Standard <|-- contentfwk::TechnologyComponent
StrategicElement <|-- contentfwk::Assumption
StrategicElement <|-- contentfwk::Constraint
StrategicElement <|-- contentfwk::Gap
StrategicElement <|-- contentfwk::Principle
StrategicElement <|-- contentfwk::Requirement
StrategicElement <|-- contentfwk::WorkPackage
TechnologyComponent <|-- contentfwk::LogicalTechnologyComponent
TechnologyComponent <|-- contentfwk::PhysicalTechnologyComponent
contentfwk::Function "0..9999" -- "1..1" contentfwk::Role : accessesFunctions95
contentfwk::Actor "0..9999" --* "1..1" contentfwk::BusinessArchitecture : actors12
contentfwk::Driver "0..9999" -- "1..1" contentfwk::Goal : addressesDrivers51
contentfwk::DataEntity "1..1" *-- "0..1" contentfwk::EObject : any117
contentfwk::EObject "0..1" -- "1..1" contentfwk::LogicalApplicationComponent : any130
contentfwk::EObject "0..1" --* "1..1" contentfwk::Process : any187
contentfwk::EObject "0..9999" --* "1..1" contentfwk::EnterpriseArchitecture : any3
contentfwk::EObject "0..1" -- "1..1" contentfwk::InformationSystemService : any346
contentfwk::ApplicationArchitecture "1..1" *-- "0..9999" contentfwk::EObject : anyRef280
contentfwk::Contract "0..9999" -- "1..1" contentfwk::ServiceQuality : appliesToContracts218
contentfwk::Service "0..9999" -- "1..1" contentfwk::ServiceQuality : appliesToServices216
contentfwk::Architecture "0..9999" --* "1..1" contentfwk::EnterpriseArchitecture : architectures0
contentfwk::Actor "1..1" -- "0..1" contentfwk::OrganizationUnit : belongsTo73
contentfwk::Function "1..1" -- "0..9999" contentfwk::Role : canBeAccessedByRoles143
contentfwk::Capability "0..9999" --* "1..1" contentfwk::StrategicArchitecture : capabilities310
contentfwk::Function "0..9999" -- "1..1" contentfwk::Function : communicatedWithFunctions151
contentfwk::LogicalApplicationComponent "1..1" -- "0..9999" contentfwk::LogicalApplicationComponent : communicatesWith126
contentfwk::PhysicalApplicationComponent "0..9999" -- "1..1" contentfwk::PhysicalApplicationComponent : communicatesWith288
contentfwk::DataEntity "0..9999" -- "1..1" contentfwk::Service : consumesEntities320
contentfwk::Actor "1..1" -- "0..9999" contentfwk::DataEntity : consumesEntities71
contentfwk::Service "0..9999" -- "1..1" contentfwk::Service : consumesServices341
contentfwk::Actor "1..1" -- "0..9999" contentfwk::Service : consumesServices80
contentfwk::Container "0..9999" --* "1..1" contentfwk::EnterpriseArchitecture : containers1
contentfwk::Actor "0..9999" -- "1..1" contentfwk::Location : containsActors244
contentfwk::Actor "0..9999" -- "1..1" contentfwk::OrganizationUnit : containsActors63
contentfwk::Location "1..1" -- "0..9999" contentfwk::OrganizationUnit : containsOrganizationUnits246
contentfwk::Location "1..1" -- "0..9999" contentfwk::PhysicalApplicationComponent : containsPhysicalApplicationComponents250
contentfwk::Location "1..1" -- "0..9999" contentfwk::PhysicalDataComponent : containsPhysicalDataComponents249
contentfwk::Location "1..1" -- "0..9999" contentfwk::PhysicalTechnologyComponent : containsPhysicalTechnologyComponents252
contentfwk::BusinessArchitecture "1..1" *-- "0..9999" contentfwk::Contract : contracts30
contentfwk::BusinessArchitecture "1..1" *-- "0..9999" contentfwk::Control : controls22
contentfwk::Driver "1..1" -- "0..9999" contentfwk::Goal : createsGoals46
contentfwk::DataEntity "0..1" -- "1..1" contentfwk::DataEntity : decomposeEntity112
contentfwk::Actor "0..9999" -- "1..1" contentfwk::Actor : decomposesActors91
contentfwk::Driver "0..1" -- "1..1" contentfwk::Driver : decomposesDriver49
contentfwk::Function "0..1" -- "1..1" contentfwk::Function : decomposesFunction148
contentfwk::Function "0..9999" -- "1..1" contentfwk::Process : decomposesFunctions158
contentfwk::Goal "0..1" -- "1..1" contentfwk::Goal : decomposesGoal54
contentfwk::Location "0..1" -- "1..1" contentfwk::Location : decomposesLocation255
contentfwk::LogicalApplicationComponent "0..1" -- "1..1" contentfwk::LogicalApplicationComponent : decomposesLogicalApplicationComponent128
contentfwk::LogicalTechnologyComponent "0..1" -- "1..1" contentfwk::LogicalTechnologyComponent : decomposesLogicalTechnologyComponent305
contentfwk::Measure "0..1" -- "1..1" contentfwk::Measure : decomposesMeasure214
contentfwk::Objective "0..1" -- "1..1" contentfwk::Objective : decomposesObjective60
contentfwk::PhysicalApplicationComponent "0..1" -- "1..1" contentfwk::PhysicalApplicationComponent : decomposesPhysicalApplicationComponent297
contentfwk::PhysicalDataComponent "0..1" -- "1..1" contentfwk::PhysicalDataComponent : decomposesPhysicalDataComponent268
contentfwk::PhysicalTechnologyComponent "0..1" -- "1..1" contentfwk::PhysicalTechnologyComponent : decomposesPhysicalTechnologyComponent198
contentfwk::Process "0..1" -- "1..1" contentfwk::Process : decomposesProcess179
contentfwk::Role "0..1" -- "1..1" contentfwk::Role : decomposesRole98
contentfwk::Process "1..1" -- "0..9999" contentfwk::Service : decomposesServices165
contentfwk::Service "0..9999" -- "1..1" contentfwk::Service : decomposesServices344
contentfwk::Element "1..1" -- "0..9999" contentfwk::Element : delegates238
contentfwk::Capability "0..9999" -- "1..1" contentfwk::WorkPackage : deliversCapabilities258
contentfwk::BusinessArchitecture "1..1" *-- "0..9999" contentfwk::Driver : drivers5
contentfwk::DataEntity "0..9999" -- "1..1" contentfwk::LogicalDataComponent : encapsulatesDataEntities259
contentfwk::PhysicalApplicationComponent "0..9999" -- "1..1" contentfwk::PhysicalDataComponent : encapsulatesPhysicalApplicationComponents270
contentfwk::PhysicalApplicationComponent "1..1" -- "0..9999" contentfwk::PhysicalDataComponent : encapsulatesPhysicalDataComponents290
contentfwk::Control "1..1" -- "0..9999" contentfwk::Process : ensuresCorrectOperationOfProcesses235
contentfwk::DataArchitecture "1..1" *-- "0..9999" contentfwk::DataEntity : entities36
contentfwk::BusinessArchitecture "1..1" *-- "0..9999" contentfwk::Event : events24
contentfwk::LogicalApplicationComponent "0..9999" -- "1..1" contentfwk::PhysicalApplicationComponent : extendsLogicalApplicationComponents283
contentfwk::LogicalDataComponent "0..9999" -- "1..1" contentfwk::PhysicalDataComponent : extendsLogicalDataComponents263
contentfwk::LogicalTechnologyComponent "0..9999" -- "1..1" contentfwk::PhysicalTechnologyComponent : extendsLogicalTechnologyComponents193
contentfwk::Process "1..1" -- "0..9999" contentfwk::Process : followsProcesses185
contentfwk::BusinessArchitecture "1..1" *-- "0..9999" contentfwk::Function : functions16
contentfwk::Event "0..9999" -- "1..1" contentfwk::Process : generatesEvents174
contentfwk::Actor "1..1" -- "0..9999" contentfwk::Event : generatesEvents83
contentfwk::BusinessArchitecture "1..1" *-- "0..9999" contentfwk::Goal : goals6
contentfwk::Contract "1..1" -- "0..9999" contentfwk::Service : governsAndMeasuresBusinessServices219
contentfwk::LogicalApplicationComponent "1..1" -- "0..9999" contentfwk::Service : implementsServices120
contentfwk::ApplicationArchitecture "1..1" *-- "0..9999" contentfwk::InformationSystemService : informationSystemServices278
contentfwk::Actor "1..1" -- "0..9999" contentfwk::Function : interactsWithFunctions75
contentfwk::Actor "0..9999" -- "1..1" contentfwk::Process : involvesActors168
contentfwk::OrganizationUnit "0..9999" -- "1..1" contentfwk::Process : involvesOrganizationUnits160
contentfwk::DataEntity "1..1" -- "0..9999" contentfwk::Service : isAccessedByServices104
contentfwk::Actor "0..9999" -- "1..1" contentfwk::Role : isAssumedByActors93
contentfwk::Function "1..1" -- "0..9999" contentfwk::Service : isBoundedByServices137
contentfwk::Actor "0..9999" -- "1..1" contentfwk::DataEntity : isConsumedByActors102
contentfwk::Element "1..1" -- "0..9999" contentfwk::Element : isDelegatedBy240
contentfwk::Capability "1..1" -- "0..1" contentfwk::WorkPackage : isDeliveredBy257
contentfwk::LogicalTechnologyComponent "0..9999" -- "1..1" contentfwk::LogicalTechnologyComponent : isDependentOnLogicalTechnologyComponents308
contentfwk::PhysicalTechnologyComponent "0..9999" -- "1..1" contentfwk::PhysicalTechnologyComponent : isDependentOnPhysicalTechnologyComponents201
contentfwk::LogicalApplicationComponent "1..1" -- "0..9999" contentfwk::PhysicalApplicationComponent : isExtendedByPhysicalApplicationComponents124
contentfwk::LogicalDataComponent "1..1" -- "0..9999" contentfwk::PhysicalDataComponent : isExtendedByPhysicalDataComponents261
contentfwk::Actor "0..1" -- "1..1" contentfwk::Event : isGeneratedByActors232
contentfwk::Event "1..1" -- "0..9999" contentfwk::Process : isGeneratedByProcesses227
contentfwk::Contract "0..9999" -- "1..1" contentfwk::Service : isGovernedAndMeasuredByContracts322
contentfwk::Control "0..9999" -- "1..1" contentfwk::Process : isGuidedByControls171
contentfwk::Location "0..9999" -- "1..1" contentfwk::PhysicalTechnologyComponent : isHostedInLocation195
contentfwk::Location "0..9999" -- "1..1" contentfwk::PhysicalApplicationComponent : isHostedInLocation285
contentfwk::Location "0..1" -- "1..1" contentfwk::PhysicalDataComponent : isHotedInLocation265
contentfwk::LogicalTechnologyComponent "0..9999" -- "1..1" contentfwk::Service : isImplementedOnLogicalTechnologyComponents326
contentfwk::Driver "0..9999" -- "1..1" contentfwk::OrganizationUnit : isMotivatedByDrivers66
contentfwk::OrganizationUnit "0..9999" -- "1..1" contentfwk::Service : isOwnedAndGovernedByOrganizationUnits330
contentfwk::Function "1..1" -- "0..1" contentfwk::OrganizationUnit : isOwnedByUnit135
contentfwk::Actor "0..9999" -- "1..1" contentfwk::Function : isPerformedByActors133
contentfwk::DataEntity "1..1" -- "0..9999" contentfwk::LogicalApplicationComponent : isProcessesByLogicalApplicationComponents110
contentfwk::OrganizationUnit "0..9999" -- "1..1" contentfwk::Product : isProducedByOrganizationUnits203
contentfwk::Process "0..9999" -- "1..1" contentfwk::Product : isProducedByProcesses205
contentfwk::Actor "0..9999" -- "1..1" contentfwk::Service : isProvidedToActors313
contentfwk::PhysicalApplicationComponent "1..1" -- "0..9999" contentfwk::PhysicalTechnologyComponent : isRealizedByPhysicalTechnologyComponents293
contentfwk::LogicalTechnologyComponent "1..1" -- "0..9999" contentfwk::PhysicalTechnologyComponent : isRealizedByPhysicalTechnologyComponents302
contentfwk::Function "1..1" -- "0..9999" contentfwk::Process : isRealizedByProcesses141
contentfwk::Process "0..9999" -- "1..1" contentfwk::Service : isRealizedByProcesses336
contentfwk::LogicalApplicationComponent "0..9999" -- "1..1" contentfwk::Service : isRealizedThroughLogicalApplicationComponent328
contentfwk::Goal "1..1" -- "0..9999" contentfwk::Objective : isRealizedThroughObjectives52
contentfwk::Actor "0..9999" -- "1..1" contentfwk::Event : isResolvedByActors229
contentfwk::Event "1..1" -- "0..9999" contentfwk::Service : isResolvedByBusinessServices222
contentfwk::Event "1..1" -- "0..9999" contentfwk::Process : isResolvedByProcesses224
contentfwk::Actor "0..9999" -- "1..1" contentfwk::DataEntity : isSuppliedByActors100
contentfwk::LogicalTechnologyComponent "0..9999" -- "1..1" contentfwk::PlatformService : isSuppliedByLogicalTechnologyComponents190
contentfwk::Measure "0..9999" -- "1..1" contentfwk::Service : isTrackedAgainstMeasures332
contentfwk::Measure "0..9999" -- "1..1" contentfwk::Objective : isTrackedAgainstMeasures58
contentfwk::DataEntity "1..1" -- "0..9999" contentfwk::Service : isUpdatedThroughServices107
contentfwk::BusinessArchitecture "1..1" *-- "0..9999" contentfwk::Location : locations26
contentfwk::ApplicationArchitecture "1..1" *-- "0..9999" contentfwk::LogicalApplicationComponent : logicalApplicationComponents273
contentfwk::DataArchitecture "1..1" *-- "0..9999" contentfwk::LogicalDataComponent : logicalComponents37
contentfwk::LogicalTechnologyComponent "0..9999" --* "1..1" contentfwk::TechnologyArchitecture : logicalComponents44
contentfwk::BusinessArchitecture "1..1" *-- "0..9999" contentfwk::Measure : measures32
contentfwk::Service "1..1" -- "0..9999" contentfwk::ServiceQuality : meetsQualities338
contentfwk::Contract "1..1" -- "0..9999" contentfwk::ServiceQuality : meetsServiceQuality221
contentfwk::Driver "1..1" -- "0..9999" contentfwk::OrganizationUnit : motivatesOrganizationUnits47
contentfwk::BusinessArchitecture "1..1" *-- "0..9999" contentfwk::Objective : objectives8
contentfwk::Location "0..1" -- "1..1" contentfwk::OrganizationUnit : operatesInLocation69
contentfwk::Actor "1..1" -- "0..1" contentfwk::Location : operatesInLocation85
contentfwk::DataEntity "0..9999" -- "1..1" contentfwk::LogicalApplicationComponent : operatesOnDataEntities122
contentfwk::Function "0..9999" -- "1..1" contentfwk::Process : orchestratesFunctions156
contentfwk::Process "1..1" -- "0..9999" contentfwk::Service : orchestratesServices162
contentfwk::OrganizationUnit "1..1" -- "0..9999" contentfwk::Service : ownsAndGovernsServices62
contentfwk::Container "1..1" -- "0..9999" contentfwk::Element : ownsElements242
contentfwk::Function "0..9999" -- "1..1" contentfwk::OrganizationUnit : ownsFunctions64
contentfwk::OrganizationUnit "1..1" -- "0..9999" contentfwk::Process : participatesInProcesses65
contentfwk::Actor "1..1" -- "0..9999" contentfwk::Process : participatesInProcesses78
contentfwk::Actor "1..1" -- "0..9999" contentfwk::Function : performsFunctions88
contentfwk::Actor "1..1" -- "0..9999" contentfwk::Role : performsTaskInRoles77
contentfwk::ApplicationArchitecture "1..1" *-- "0..9999" contentfwk::PhysicalApplicationComponent : physicalApplicationComponents275
contentfwk::DataArchitecture "1..1" *-- "0..9999" contentfwk::PhysicalDataComponent : physicalComponents39
contentfwk::PhysicalTechnologyComponent "0..9999" --* "1..1" contentfwk::TechnologyArchitecture : physicalComponents42
contentfwk::PlatformService "0..9999" --* "1..1" contentfwk::TechnologyArchitecture : platformServices41
contentfwk::Process "1..1" -- "0..9999" contentfwk::Process : precedesProcesses182
contentfwk::BusinessArchitecture "1..1" *-- "0..9999" contentfwk::Process : processes20
contentfwk::Process "1..1" -- "0..9999" contentfwk::Product : producesProducts176
contentfwk::OrganizationUnit "1..1" -- "0..9999" contentfwk::Product : producesProducts68
contentfwk::BusinessArchitecture "1..1" *-- "0..9999" contentfwk::Product : products28
contentfwk::DataEntity "0..9999" -- "1..1" contentfwk::Service : providesEntities318
contentfwk::Function "0..9999" -- "1..1" contentfwk::Service : providesGovernedInterfaceToAccessFunctions316
contentfwk::LogicalTechnologyComponent "1..1" -- "0..9999" contentfwk::Service : providesPlatformForServices299
contentfwk::PhysicalApplicationComponent "0..9999" -- "1..1" contentfwk::PhysicalTechnologyComponent : realizesApplicationComponents191
contentfwk::Goal "0..9999" -- "1..1" contentfwk::Objective : realizesGoals56
contentfwk::DataEntity "0..9999" -- "1..1" contentfwk::DataEntity : relatesTo115
contentfwk::DataEntity "1..1" -- "0..1" contentfwk::LogicalDataComponent : residesWithinLogicalDataComponent109
contentfwk::Event "0..9999" -- "1..1" contentfwk::Process : resolvesEvents172
contentfwk::Event "0..9999" -- "1..1" contentfwk::Service : resolvesEvents324
contentfwk::Actor "1..1" -- "0..9999" contentfwk::Event : resolvesEvents82
contentfwk::BusinessArchitecture "1..1" *-- "0..9999" contentfwk::Role : roles14
contentfwk::BusinessArchitecture "1..1" *-- "0..9999" contentfwk::BusinessService : services18
contentfwk::BusinessArchitecture "1..1" *-- "0..9999" contentfwk::ServiceQuality : servicesQuality34
contentfwk::Measure "1..1" -- "0..9999" contentfwk::Objective : setsPerformanceCriteriaForObjectives208
contentfwk::Measure "1..1" -- "0..9999" contentfwk::Service : setsPerformanceCriteriaForServices210
contentfwk::StrategicArchitecture "1..1" *-- "0..9999" contentfwk::StrategicElement : strategicElements311
contentfwk::Actor "1..1" -- "0..9999" contentfwk::DataEntity : suppliesEntities70
contentfwk::LogicalTechnologyComponent "1..1" -- "0..9999" contentfwk::PlatformService : suppliesPlatformServices301
contentfwk::Actor "0..9999" -- "1..1" contentfwk::Function : supportsActors145
contentfwk::BusinessService "1..1" -- "0..9999" contentfwk::Objective : supportsObjective153
contentfwk::Function "1..1" -- "0..9999" contentfwk::Process : supportsProcesses139
contentfwk::Process "0..9999" -- "1..1" contentfwk::Service : supportsProcesses334
contentfwk::BusinessArchitecture "1..1" *-- "0..9999" contentfwk::OrganizationUnit : units10
@enduml