@startuml
enum ANSICharacterTypes {
  CHARACTER
  CHARACTERVARYING
  CHARVARYING
  NATIONALCHAR
  NATIONALCHARACTER
  NATIONALCHARACTERVARYING
  NATIONALCHARVARYING
  NCHARVARYING
  VARCHAR
}
enum ANSINumberTypes {
  DEC
  DECIMAL
  DOUBLEPRECISION
  FLOAT
  INT
  INTEGER
  NUMERIC
  REAL
  SMALLINT
}
class ANSIType {
}
class BasicDataType {
}
enum BuiltInCharacterSemantics {
  BYTE
  CHAR
}
enum BuiltInCharacterTypes {
  CHAR
  NCHAR
  NVARCHAR2
  VARCHAR2
}
enum BuiltInDatetimeTypes {
  DATE
  INTERVALDAYTOSECOND
  INTERVALYEARTOMONTH
  TIMESTAMP
  TIMESTAMPWITHLOCALTIMEZONE
  TIMESTAMPWITHTIMEZONE
}
enum BuiltInLOBType {
  BFILE
  BLOB
  CLOB
  NLOB
}
enum BuiltInLongAndRawTypes {
  LONG
  LONGRAW
  RAW
}
enum BuiltInROWIDType {
  ROWID
  UROWID
}
class BuiltInType {
}
enum BuiltNumberTypes {
  BINARY_DOUBLE
  BINARY_FLOAT
  NUMBER
}
enum CharacterFeatures {
  semantic
  size
}
class Datatype {
}
enum DatetimeFeatures {
  precision
}
class DerivedTable {
}
class Feature {
}
enum IntervalFeatures {
  day_precision
  second_precision
  year_precision
}
enum NumberFeatures {
  precision
  scale
  size
}
enum ONDELETEActions {
  CASCADE
  SETNULL
}
class ORDB4ORA::ANSICharacterType {
  + Descriptor : str
}
class ORDB4ORA::ANSINumberType {
  + Descriptor : str
}
abstract class ORDB4ORA::ANSIType {
}
class ORDB4ORA::AnyType {
  + Descriptor : str
}
class ORDB4ORA::Attribute {
}
abstract class ORDB4ORA::BasicDataType {
}
class ORDB4ORA::BuiltInCharacterType {
  + Descriptor : str
  + Semantic : str
  + Size_Def : int
  + Size_Max : int
  + Size_Min : int
}
class ORDB4ORA::BuiltInNumberType {
  + Descriptor : str
  + Precision_Max : int
  + Precision_Mn : int
  + Scale_Max : int
  + Scale_Min : int
}
abstract class ORDB4ORA::BuiltInType {
}
class ORDB4ORA::CharacterFeature {
  + key : str
  + value : str
}
class ORDB4ORA::Check {
  + Condition : str
}
class ORDB4ORA::Column {
}
abstract class ORDB4ORA::Datatype {
}
class ORDB4ORA::DatetimeFeature {
  + key : str
  + value : str
}
class ORDB4ORA::DatetimeType {
  + DayPrecision_Def : int
  + DayPrecision_Max : int
  + DayPrecision_Min : int
  + Descriptor : str
  + SecondPrecision_Def : int
  + SecondPrecision_Max : int
  + SecondPrecision_Min : int
  + YearPrecision_Def : int
  + YearPrecision_Max : int
  + YearPrecision_Min : int
}
class ORDB4ORA::DerivedTable {
  + query_expression : str
}
abstract class ORDB4ORA::Feature {
}
class ORDB4ORA::ForeignKey {
  + OnDelete : str
}
class ORDB4ORA::Function {
}
class ORDB4ORA::IntervalFeature {
  + key : str
  + value : str
}
class ORDB4ORA::LOBType {
  + Descriptor : str
}
class ORDB4ORA::LongAndRawType {
  + Descriptor : str
  + Size_Max : int
  + Size_Min : int
}
class ORDB4ORA::MediaType {
  + Descriptor : str
}
class ORDB4ORA::Method {
  + Body : str
  + Name : str
}
class ORDB4ORA::MethodParameter {
}
class ORDB4ORA::Model {
  + Name : str
}
class ORDB4ORA::NestedTableType {
  + Name : str
}
class ORDB4ORA::NotNull {
}
class ORDB4ORA::NumberFeature {
  + key : str
  + value : str
}
abstract class ORDB4ORA::Operation {
  + Body : str
  + Name : str
}
class ORDB4ORA::OperationParameter {
  + Mode : str
}
class ORDB4ORA::Package {
  + Name : str
}
class ORDB4ORA::Parameter {
  + Name : str
}
class ORDB4ORA::PrimaryKey {
}
class ORDB4ORA::Procedure {
}
class ORDB4ORA::ROWIDType {
  + Descriptor : str
  + Size_Max : int
  + Size_Min : int
}
class ORDB4ORA::RawFeature {
  + key : str
  + value : str
}
class ORDB4ORA::ReferenceType {
  + Name : str
}
abstract class ORDB4ORA::Restriction {
  + Name : str
  + NameColumns : str
}
class ORDB4ORA::RowFeature {
  + key : str
  + value : str
}
class ORDB4ORA::SpacialType {
  + Descriptor : str
}
class ORDB4ORA::StoredNestedTable {
  + Name : str
}
class ORDB4ORA::StructuralComponent {
  + Name : str
}
class ORDB4ORA::StructuredType {
  + Name : str
  + is_final : bool
  + is_instantiable : bool
}
abstract class ORDB4ORA::SuppliedType {
}
class ORDB4ORA::Table {
  + Name : str
}
class ORDB4ORA::Trigger {
  + Action : str
  + Body : str
  + Event : str
  + Name : str
}
class ORDB4ORA::TypedTable {
}
class ORDB4ORA::Unique {
}
class ORDB4ORA::Varray {
  + Name : str
  + NumElements : int
}
class ORDB4ORA::View {
}
class ORDB4ORA::XMLType {
  + Descriptor : str
}
class Operation {
}
class Parameter {
}
enum ParameterMode {
  IN
  INOUT
  OUT
}
enum RawFeatures {
  size
}
class Restriction {
}
enum RowFeatures {
  size
}
class StructuralComponent {
}
enum SuppliedAnyTypes {
  SYSANYDATA
  SYSANYDATASET
  SYSANYTYPE
}
enum SuppliedMediaTypes {
  ORDAudio
  ORDDoc
  ORDImage
  ORDImageSignature
  ORDVideo
  SI_AVERAGECOLOR
  SI_COLOR
  SI_COLORHISTOGRAM
  SI_FEATURELIST
  SI_POSITIONALCOLOR
  SI_STILLIMAGE
  SI_TEXTURE
}
enum SuppliedSpacialTypes {
  SDO_GEOMETRY
  SDO_RASTER
  SDO_TOPO_GEOMETRY
}
class SuppliedType {
}
enum SuppliedXMLTypes {
  URITYPE
  XMLTYPE
}
class Table {
}
enum TriggerActionTime {
  AFTER
  BEFORE
  INSTEADOF
}
enum TriggerEvent {
  DELETE
  INSERT
  UPDATE
}
ANSIType <|-- ORDB4ORA::ANSICharacterType
ANSIType <|-- ORDB4ORA::ANSINumberType
BasicDataType <|-- ORDB4ORA::ANSIType
BasicDataType <|-- ORDB4ORA::BuiltInType
BasicDataType <|-- ORDB4ORA::SuppliedType
BuiltInType <|-- ORDB4ORA::BuiltInCharacterType
BuiltInType <|-- ORDB4ORA::BuiltInNumberType
BuiltInType <|-- ORDB4ORA::DatetimeType
BuiltInType <|-- ORDB4ORA::LOBType
BuiltInType <|-- ORDB4ORA::LongAndRawType
BuiltInType <|-- ORDB4ORA::ROWIDType
Datatype <|-- ORDB4ORA::BasicDataType
Datatype <|-- ORDB4ORA::NestedTableType
Datatype <|-- ORDB4ORA::ReferenceType
Datatype <|-- ORDB4ORA::StructuredType
Datatype <|-- ORDB4ORA::Varray
DerivedTable <|-- ORDB4ORA::View
Feature <|-- ORDB4ORA::CharacterFeature
Feature <|-- ORDB4ORA::DatetimeFeature
Feature <|-- ORDB4ORA::IntervalFeature
Feature <|-- ORDB4ORA::NumberFeature
Feature <|-- ORDB4ORA::RawFeature
Feature <|-- ORDB4ORA::RowFeature
Operation <|-- ORDB4ORA::Function
Operation <|-- ORDB4ORA::Procedure
Parameter <|-- ORDB4ORA::MethodParameter
Parameter <|-- ORDB4ORA::OperationParameter
Restriction <|-- ORDB4ORA::Check
Restriction <|-- ORDB4ORA::ForeignKey
Restriction <|-- ORDB4ORA::NotNull
Restriction <|-- ORDB4ORA::PrimaryKey
Restriction <|-- ORDB4ORA::Unique
StructuralComponent <|-- ORDB4ORA::Attribute
StructuralComponent <|-- ORDB4ORA::Column
SuppliedType <|-- ORDB4ORA::AnyType
SuppliedType <|-- ORDB4ORA::MediaType
SuppliedType <|-- ORDB4ORA::SpacialType
SuppliedType <|-- ORDB4ORA::XMLType
Table <|-- ORDB4ORA::DerivedTable
Table <|-- ORDB4ORA::TypedTable
ORDB4ORA::Datatype "1..1" -- "1..1" ORDB4ORA::Function : Return12
ORDB4ORA::Datatype "1..1" -- "1..1" ORDB4ORA::NestedTableType : Type23
ORDB4ORA::Datatype "1..1" -- "1..1" ORDB4ORA::Parameter : Type38
ORDB4ORA::ReferenceType "1..1" -- "1..1" ORDB4ORA::StructuredType : Type40
ORDB4ORA::Datatype "1..1" -- "1..1" ORDB4ORA::StructuralComponent : Type46
ORDB4ORA::Datatype "1..1" -- "1..1" ORDB4ORA::Varray : Type79
ORDB4ORA::Attribute "1..1" -- "1..1" ORDB4ORA::StoredNestedTable : attribute44
ORDB4ORA::Attribute "0..9999" --* "1..1" ORDB4ORA::StructuredType : attribute51
ORDB4ORA::Restriction "1..1" -- "1..9999" ORDB4ORA::StructuralComponent : attributes41
ORDB4ORA::Column "0..9999" --* "1..1" ORDB4ORA::Table : columns63
ORDB4ORA::StructuralComponent "1..9999" -- "1..1" ORDB4ORA::View : components83
ORDB4ORA::Datatype "1..9999" --* "1..1" ORDB4ORA::Model : datatype0
ORDB4ORA::Feature "0..9999" --* "1..1" ORDB4ORA::StructuralComponent : features48
ORDB4ORA::Method "0..1" -- "1..1" ORDB4ORA::MethodParameter : method22
ORDB4ORA::Method "0..9999" --* "1..1" ORDB4ORA::StructuredType : method52
ORDB4ORA::Datatype "1..1" -- "1..1" ORDB4ORA::Model : model10
ORDB4ORA::Model "0..1" -- "1..1" ORDB4ORA::Operation : model26
ORDB4ORA::Model "1..1" -- "1..1" ORDB4ORA::Package : model35
ORDB4ORA::Model "0..1" -- "1..1" ORDB4ORA::Table : model65
ORDB4ORA::Model "1..1" *-- "0..9999" ORDB4ORA::Operation : operation3
ORDB4ORA::Operation "0..1" -- "1..1" ORDB4ORA::OperationParameter : operation31
ORDB4ORA::Operation "1..1" *-- "0..9999" ORDB4ORA::OperationParameter : operationParameters25
ORDB4ORA::Operation "0..9999" --* "1..1" ORDB4ORA::Package : operations33
ORDB4ORA::Method "1..1" -- "0..1" ORDB4ORA::Method : override14
ORDB4ORA::Operation "1..1" -- "0..1" ORDB4ORA::Package : package29
ORDB4ORA::Model "1..1" *-- "0..9999" ORDB4ORA::Package : package5
ORDB4ORA::Method "1..1" *-- "0..9999" ORDB4ORA::MethodParameter : parameters17
ORDB4ORA::ForeignKey "1..1" -- "1..1" ORDB4ORA::Table : reference11
ORDB4ORA::Restriction "0..9999" --* "1..1" ORDB4ORA::Table : restriction61
ORDB4ORA::Restriction "0..9999" -- "1..1" ORDB4ORA::StructuralComponent : restrictions50
ORDB4ORA::Datatype "1..1" -- "1..1" ORDB4ORA::Method : returnType19
ORDB4ORA::StoredNestedTable "0..9999" --* "1..1" ORDB4ORA::TypedTable : storedNested75
ORDB4ORA::Method "1..1" -- "0..1" ORDB4ORA::StructuredType : structured15
ORDB4ORA::Attribute "1..1" -- "0..1" ORDB4ORA::StructuredType : structured7
ORDB4ORA::StructuredType "1..1" -- "1..1" ORDB4ORA::TypedTable : structured76
ORDB4ORA::StructuredType "0..1" -- "1..1" ORDB4ORA::StructuredType : supertype56
ORDB4ORA::Model "1..1" *-- "0..9999" ORDB4ORA::Table : table1
ORDB4ORA::Restriction "1..1" -- "1..1" ORDB4ORA::Table : table42
ORDB4ORA::Table "1..1" -- "1..1" ORDB4ORA::Trigger : table73
ORDB4ORA::Column "1..1" -- "1..1" ORDB4ORA::Table : table8
ORDB4ORA::Table "1..9999" -- "1..1" ORDB4ORA::View : tables81
ORDB4ORA::Table "1..1" *-- "0..9999" ORDB4ORA::Trigger : triggers68
ORDB4ORA::StoredNestedTable "1..1" -- "0..1" ORDB4ORA::TypedTable : typed45
ORDB4ORA::StructuredType "1..1" -- "0..9999" ORDB4ORA::TypedTable : typed58
ORDB4ORA::StructuralComponent "0..9999" -- "1..1" ORDB4ORA::Trigger : updateColumns71
ORDB4ORA::Table "1..1" -- "0..9999" ORDB4ORA::View : views70
@enduml