@startuml
class GenericPlace {
}
abstract class petriNet::GenericPlace {
  + name : str
  + numberOfTokens : int
}
class petriNet::InputArc {
  + weight : int
}
class petriNet::OutputArc {
  + weight : int
}
class petriNet::PetriNet {
  + name : str
}
class petriNet::Place {
  + capacity : int
}
class petriNet::Resource {
}
class petriNet::Transition {
  + name : str
}
GenericPlace <|-- petriNet::Place
GenericPlace <|-- petriNet::Resource
petriNet::GenericPlace "0..1" -- "1..1" petriNet::InputArc : InputArcFromPlace7
petriNet::InputArc "1..1" -- "0..1" petriNet::Transition : InputArcToTransition10
petriNet::OutputArc "1..1" -- "0..1" petriNet::Transition : OutputArcFromTransition13
petriNet::GenericPlace "0..1" -- "1..1" petriNet::OutputArc : OutputArcToPlace16
petriNet::GenericPlace "0..9999" --* "1..1" petriNet::PetriNet : containsGenericPlaces0
petriNet::InputArc "0..9999" --* "1..1" petriNet::PetriNet : containsInputArcs3
petriNet::OutputArc "0..9999" --* "1..1" petriNet::PetriNet : containsOutputArcs5
petriNet::PetriNet "1..1" *-- "0..9999" petriNet::Transition : containsTransitions1
@enduml