@startuml
class Families::Family {
  + lastName : str
}
class Families::Member {
  + firstName : str
}
Families::Family "1..1" *-- "0..9999" Families::Member : daughters5
Families::Family "0..1" -- "1..1" Families::Member : familyDaughter10
Families::Family "0..1" -- "1..1" Families::Member : familyFather7
Families::Family "0..1" -- "1..1" Families::Member : familyMother12
Families::Family "0..1" -- "1..1" Families::Member : familySon8
Families::Family "1..1" *-- "0..1" Families::Member : father0
Families::Family "1..1" *-- "0..1" Families::Member : mother1
Families::Family "1..1" *-- "0..9999" Families::Member : sons3
@enduml