@startuml
class AbstractAssignment {
}
class Access {
}
enum ArithmeticOperator {
  ADDITION
  DIVISION
  MODULUS
  MULTIPLICATION
  SUBTRACTION
  UNDEFINED
}
enum AssignmentOperator {
  ANY
  ASSIGN
  PLUS_ASSIGN
}
class AtomicFilter {
}
class Block {
}
enum BooleanOperator {
  AND
  ANY
  EQUAL_TO
  GREATER_THAN
  GREATER_THAN_OR_EQUAL_TO
  LESS_THAN
  LESS_THAN_OR_EQUAL_TO
  NOT
  NOT_EQUAL_TO
  OR
}
class CcslBooleanFunction {
}
class CcslFunction {
}
class CcslNumberFunction {
}
enum CollectionKind {
  ANY
  EXACT
  IMMEDIATE
  SEQUENCE
}
class ComplexType {
}
class Context {
}
class ControlFlow {
}
class DataType {
}
class DeclaredType {
}
class Element {
}
enum EquationOperator {
  PLUS
}
class Filter {
}
enum Inheritance {
  ABSTRACT
  ANY
  FINAL
  NONE
}
class InitializableVariable {
}
class InjectionAction {
}
class InjectionStrategy {
}
class Invocation {
}
class LiteralValue {
}
enum LogicOperator {
  AND
  IF_THEN
  OR
}
class NamedElement {
}
class ObjectType {
}
class OperatorExpression {
}
class PrimitiveType {
}
class Root {
}
class Rule {
}
class SimpleMethod {
}
class SimpleMethodInvocation {
}
class Statement {
}
class TemplateFilter {
}
class UnaryAssignment {
}
enum UnaryAssignmentOperator {
  ANY
  DECREMENT
  INCREMENT
}
class Variable {
}
enum Visibility {
  ANY
  PACKAGE
  PRIVATE
  PROTECTED
  PUBLIC
}
class action::ArithmeticOperatorMap {
}
class annotation::AnnotableElement {
}
class annotation::Annotation {
}
class ccsl::AtomicRule {
}
class ccsl::CompositeRule {
  + operator : str
}
class ccsl::FaultTypeDescription {
  + name : str
}
abstract class ccsl::Root {
}
abstract class ccsl::Rule {
  + negated : str
}
class ccsl::action::ArithmeticOperatorMap {
  + newArithmeticOperator : str
  + oldArithmeticOperator : str
}
class ccsl::action::ChangeLiteralValueAction {
}
class ccsl::action::DeleteAction {
}
class ccsl::action::DeleteInfixOperatorAction {
}
class ccsl::action::DeleteRandomStatementAction {
}
class ccsl::action::MoveScopeUpAction {
}
class ccsl::action::ReplaceArithmeticOperatorAction {
}
class ccsl::action::ReplaceVariableAccessAction {
}
class ccsl::annotation::AnnotableElement {
  + annotationsKind : str
}
class ccsl::annotation::Annotation {
}
class ccsl::assignment::AbstractAssignment {
}
class ccsl::assignment::Assignment {
  + operator : str
}
class ccsl::assignment::PostfixUnaryAssignment {
}
class ccsl::assignment::PrefixUnaryAssignment {
}
class ccsl::assignment::UnaryAssignment {
  + operator : str
}
abstract class ccsl::booleanFunctions::CcslBooleanFunction {
}
class ccsl::complexType::AnnotationType {
}
class ccsl::complexType::AnonymousClass {
}
class ccsl::complexType::ComplexType {
}
class ccsl::complexType::DeclaredType {
  + static : str
  + visibility : str
}
class ccsl::complexType::JClass {
  + inheritance : str
}
class ccsl::complexType::JInterface {
}
class ccsl::context::Context {
}
class ccsl::controlFlow::IfStatement {
}
class ccsl::controlFlow::LoopStatement {
}
class ccsl::controlFlow::SwitchCaseBlock {
  + default : str
}
class ccsl::controlFlow::SwitchStatement {
}
class ccsl::datatype::ArrayType {
  + dimensions : str
}
class ccsl::datatype::BooleanPrimitiveType {
}
class ccsl::datatype::DataType {
}
class ccsl::datatype::GenericType {
}
class ccsl::datatype::IntPrimitiveType {
}
class ccsl::datatype::ObjectType {
}
class ccsl::datatype::ParameterizedType {
}
class ccsl::datatype::PrimitiveType {
}
class ccsl::datatype::ShortPrimitiveType {
}
class ccsl::datatype::StringPrimitiveType {
}
class ccsl::datatype::VoidType {
}
class ccsl::elements::Element {
  + uniqueName : str
}
class ccsl::expressions::ArithmeticExpression {
  + arithmeticOperator : str
}
class ccsl::expressions::BooleanExpression {
  + booleanOperator : str
}
class ccsl::expressions::InfixExpression {
}
class ccsl::expressions::OperatorExpression {
}
class ccsl::expressions::ParenthesizedExpression {
}
class ccsl::expressions::StringConcatenation {
}
abstract class ccsl::faultTypeDescription::InjectionAction {
}
abstract class ccsl::faultTypeDescription::InjectionStrategy {
}
class ccsl::filters::AtomicFilter {
}
class ccsl::filters::BlockLastStatementFilter {
}
class ccsl::filters::ChildClosureComplexTypeFilter {
}
class ccsl::filters::CompositeFilter {
  + operator : str
}
class ccsl::filters::CountFilter {
  + max : str
  + min : str
}
class ccsl::filters::EquationFilter {
  + operator : str
}
abstract class ccsl::filters::Filter {
  + negated : str
}
class ccsl::filters::FromClosureFilter {
}
class ccsl::filters::HasSameReferenceFilter {
}
class ccsl::filters::ImplicityContainerFilter {
}
class ccsl::filters::ImplicityOperandFilter {
}
class ccsl::filters::IsKindOfFilter {
}
class ccsl::filters::IsStringFilter {
}
class ccsl::filters::IsTypeOfFilter {
}
class ccsl::filters::PropertyFilter {
}
class ccsl::filters::RegexMatch {
  + regex : str
}
class ccsl::filters::SameNameFilter {
  + ignoreCase : str
}
class ccsl::filters::SuperClassClosureFilter {
  + includesSubClass : str
}
class ccsl::filters::SuperMethodClosureFilter {
}
class ccsl::filters::TemplateFilter {
}
abstract class ccsl::functions::CcslFunction {
}
class ccsl::import::ImportStatement {
}
class ccsl::import::ImportableElement {
}
class ccsl::invocation::ConstructorInvocation {
}
class ccsl::invocation::Invocation {
  + argsKind : str
}
class ccsl::invocation::MethodInvocation {
}
class ccsl::invocation::SimpleMethodInvocation {
}
class ccsl::invocation::SuperMethodInvocation {
}
class ccsl::literalValues::BooleanLiteral {
}
class ccsl::literalValues::CharacterLiteral {
}
class ccsl::literalValues::LiteralValue {
  + value : str
}
class ccsl::literalValues::NullLiteral {
}
class ccsl::literalValues::NumberLiteral {
}
class ccsl::literalValues::StringLiteral {
}
class ccsl::method::Constructor {
  + avaliableInSourceCode : str
}
class ccsl::method::Method {
  + abstract : str
  + final : str
  + inheritance : str
  + static : str
}
class ccsl::method::SimpleMethod {
  + paramsKind : str
  + visibility : str
}
class ccsl::namedElements::NamedElement {
  + avaliableInSourceCode : str
  + name : str
}
class ccsl::namedElements::Package {
}
class ccsl::numberFunctions::CcslIntegerLiteral {
  + value : str
}
abstract class ccsl::numberFunctions::CcslNumberFunction {
}
class ccsl::numberFunctions::GetIndexOf {
}
class ccsl::statements::Access {
}
class ccsl::statements::ArrayCreation {
}
class ccsl::statements::Block {
  + statementsKind : str
}
class ccsl::statements::BreakStatement {
}
class ccsl::statements::ContinueStatement {
}
class ccsl::statements::ControlFlow {
}
class ccsl::statements::DataTypeAccess {
}
class ccsl::statements::EmptyStatement {
}
class ccsl::statements::InstanceCreation {
  + argsKind : str
}
class ccsl::statements::InstanceOf {
}
class ccsl::statements::NamedElementAccess {
}
class ccsl::statements::ReturnStatement {
}
class ccsl::statements::Statement {
}
class ccsl::statements::SynchronizedBlock {
}
class ccsl::statements::ThisStatement {
}
class ccsl::statements::ThrowStatement {
}
class ccsl::statements::VarDeclaration {
}
class ccsl::statements::VariableAccess {
}
class ccsl::strategy::AllStrategy {
}
class ccsl::tryCatch::CatchClause {
}
class ccsl::tryCatch::TryStatement {
}
class ccsl::variable::FieldVariable {
  + static : str
  + visibility : str
}
class ccsl::variable::InitializableVariable {
}
class ccsl::variable::LocalVariable {
}
class ccsl::variable::ParameterVariable {
}
class ccsl::variable::Variable {
  + final : str
}
class complexType::AnnotationType {
}
class complexType::ComplexType {
}
class complexType::DeclaredType {
}
class complexType::JClass {
}
class complexType::JInterface {
}
class controlFlow::SwitchCaseBlock {
}
class datatype::DataType {
}
class datatype::ObjectType {
}
class elements::Element {
}
class expressions::OperatorExpression {
}
class filters::Filter {
}
class import::ImportStatement {
}
class import::ImportableElement {
}
class method::Constructor {
}
class method::Method {
}
class method::SimpleMethod {
}
class namedElements::NamedElement {
}
class numberFunctions::CcslNumberFunction {
}
class statements::Access {
}
class statements::Block {
}
class statements::Statement {
}
class tryCatch::CatchClause {
}
class variable::FieldVariable {
}
class variable::InitializableVariable {
}
class variable::ParameterVariable {
}
class variable::Variable {
}
AbstractAssignment <|-- ccsl::assignment::Assignment
AbstractAssignment <|-- ccsl::assignment::UnaryAssignment
Access <|-- ccsl::statements::DataTypeAccess
Access <|-- ccsl::statements::VariableAccess
AtomicFilter <|-- ccsl::filters::BlockLastStatementFilter
AtomicFilter <|-- ccsl::filters::ChildClosureComplexTypeFilter
AtomicFilter <|-- ccsl::filters::CountFilter
AtomicFilter <|-- ccsl::filters::FromClosureFilter
AtomicFilter <|-- ccsl::filters::HasSameReferenceFilter
AtomicFilter <|-- ccsl::filters::ImplicityContainerFilter
AtomicFilter <|-- ccsl::filters::IsKindOfFilter
AtomicFilter <|-- ccsl::filters::IsStringFilter
AtomicFilter <|-- ccsl::filters::IsTypeOfFilter
AtomicFilter <|-- ccsl::filters::PropertyFilter
AtomicFilter <|-- ccsl::filters::RegexMatch
AtomicFilter <|-- ccsl::filters::SameNameFilter
AtomicFilter <|-- ccsl::filters::SuperClassClosureFilter
AtomicFilter <|-- ccsl::filters::SuperMethodClosureFilter
AtomicFilter <|-- ccsl::filters::TemplateFilter
Block <|-- ccsl::controlFlow::SwitchCaseBlock
CcslBooleanFunction <|-- ccsl::filters::Filter
CcslFunction <|-- ccsl::booleanFunctions::CcslBooleanFunction
CcslFunction <|-- ccsl::numberFunctions::CcslNumberFunction
CcslNumberFunction <|-- ccsl::numberFunctions::CcslIntegerLiteral
CcslNumberFunction <|-- ccsl::numberFunctions::GetIndexOf
ComplexType <|-- ccsl::complexType::AnonymousClass
ComplexType <|-- ccsl::datatype::GenericType
ControlFlow <|-- ccsl::controlFlow::IfStatement
ControlFlow <|-- ccsl::controlFlow::LoopStatement
ControlFlow <|-- ccsl::controlFlow::SwitchStatement
DataType <|-- ccsl::datatype::ObjectType
DataType <|-- ccsl::datatype::PrimitiveType
DeclaredType <|-- ccsl::complexType::AnnotationType
Element <|-- ccsl::annotation::AnnotableElement
Element <|-- ccsl::complexType::ComplexType
Element <|-- ccsl::datatype::DataType
Element <|-- ccsl::import::ImportableElement
Element <|-- ccsl::namedElements::NamedElement
Element <|-- ccsl::statements::Statement
Filter <|-- ccsl::filters::AtomicFilter
Filter <|-- ccsl::filters::CompositeFilter
InitializableVariable <|-- ccsl::variable::LocalVariable
InjectionAction <|-- ccsl::action::ChangeLiteralValueAction
InjectionAction <|-- ccsl::action::DeleteAction
InjectionAction <|-- ccsl::action::DeleteInfixOperatorAction
InjectionAction <|-- ccsl::action::DeleteRandomStatementAction
InjectionAction <|-- ccsl::action::MoveScopeUpAction
InjectionAction <|-- ccsl::action::ReplaceArithmeticOperatorAction
InjectionAction <|-- ccsl::action::ReplaceVariableAccessAction
InjectionStrategy <|-- ccsl::strategy::AllStrategy
Invocation <|-- ccsl::invocation::ConstructorInvocation
Invocation <|-- ccsl::invocation::SimpleMethodInvocation
LiteralValue <|-- ccsl::literalValues::BooleanLiteral
LiteralValue <|-- ccsl::literalValues::CharacterLiteral
LiteralValue <|-- ccsl::literalValues::NullLiteral
LiteralValue <|-- ccsl::literalValues::NumberLiteral
LiteralValue <|-- ccsl::literalValues::StringLiteral
NamedElement <|-- ccsl::variable::Variable
ObjectType <|-- ccsl::datatype::ArrayType
ObjectType <|-- ccsl::datatype::ParameterizedType
OperatorExpression <|-- ccsl::expressions::ArithmeticExpression
OperatorExpression <|-- ccsl::expressions::BooleanExpression
OperatorExpression <|-- ccsl::expressions::InfixExpression
OperatorExpression <|-- ccsl::expressions::StringConcatenation
PrimitiveType <|-- ccsl::datatype::BooleanPrimitiveType
PrimitiveType <|-- ccsl::datatype::IntPrimitiveType
PrimitiveType <|-- ccsl::datatype::ShortPrimitiveType
PrimitiveType <|-- ccsl::datatype::StringPrimitiveType
PrimitiveType <|-- ccsl::datatype::VoidType
Root <|-- ccsl::FaultTypeDescription
Root <|-- ccsl::Rule
Rule <|-- ccsl::AtomicRule
Rule <|-- ccsl::CompositeRule
SimpleMethod <|-- ccsl::method::Constructor
SimpleMethodInvocation <|-- ccsl::invocation::MethodInvocation
SimpleMethodInvocation <|-- ccsl::invocation::SuperMethodInvocation
Statement <|-- ccsl::annotation::Annotation
Statement <|-- ccsl::assignment::AbstractAssignment
Statement <|-- ccsl::expressions::OperatorExpression
Statement <|-- ccsl::expressions::ParenthesizedExpression
Statement <|-- ccsl::import::ImportStatement
Statement <|-- ccsl::invocation::Invocation
Statement <|-- ccsl::literalValues::LiteralValue
Statement <|-- ccsl::statements::Access
Statement <|-- ccsl::statements::ArrayCreation
Statement <|-- ccsl::statements::Block
Statement <|-- ccsl::statements::BreakStatement
Statement <|-- ccsl::statements::ContinueStatement
Statement <|-- ccsl::statements::ControlFlow
Statement <|-- ccsl::statements::EmptyStatement
Statement <|-- ccsl::statements::InstanceCreation
Statement <|-- ccsl::statements::InstanceOf
Statement <|-- ccsl::statements::NamedElementAccess
Statement <|-- ccsl::statements::ReturnStatement
Statement <|-- ccsl::statements::SynchronizedBlock
Statement <|-- ccsl::statements::ThisStatement
Statement <|-- ccsl::statements::VarDeclaration
Statement <|-- ccsl::tryCatch::CatchClause
Statement <|-- ccsl::tryCatch::TryStatement
TemplateFilter <|-- ccsl::filters::ImplicityOperandFilter
UnaryAssignment <|-- ccsl::assignment::PostfixUnaryAssignment
UnaryAssignment <|-- ccsl::assignment::PrefixUnaryAssignment
Variable <|-- ccsl::variable::InitializableVariable
annotation::AnnotableElement <|-- ccsl::complexType::JClass
annotation::AnnotableElement <|-- ccsl::complexType::JInterface
annotation::AnnotableElement <|-- ccsl::method::SimpleMethod
annotation::AnnotableElement <|-- ccsl::variable::FieldVariable
annotation::AnnotableElement <|-- ccsl::variable::ParameterVariable
complexType::ComplexType <|-- ccsl::complexType::JClass
complexType::ComplexType <|-- ccsl::complexType::JInterface
complexType::DeclaredType <|-- ccsl::complexType::JClass
complexType::DeclaredType <|-- ccsl::complexType::JInterface
datatype::ObjectType <|-- ccsl::complexType::DeclaredType
elements::Element <|-- ccsl::method::SimpleMethod
import::ImportableElement <|-- ccsl::complexType::DeclaredType
import::ImportableElement <|-- ccsl::namedElements::Package
method::SimpleMethod <|-- ccsl::method::Method
namedElements::NamedElement <|-- ccsl::complexType::DeclaredType
namedElements::NamedElement <|-- ccsl::method::Method
namedElements::NamedElement <|-- ccsl::namedElements::Package
variable::InitializableVariable <|-- ccsl::variable::FieldVariable
variable::Variable <|-- ccsl::variable::ParameterVariable
ccsl::filters::FromClosureFilter "1..1" -- "1..1" statements::Access : access173
InjectionAction "1..9999" --* "1..1" ccsl::FaultTypeDescription : actions6
annotation::Annotation "0..9999" --* "1..1" ccsl::annotation::AnnotableElement : annotations102
ccsl::statements::InstanceCreation "1..1" *-- "0..9999" statements::Statement : args41
ccsl::invocation::Invocation "1..1" *-- "0..9999" statements::Statement : args94
ccsl::controlFlow::LoopStatement "1..1" *-- "0..1" statements::Statement : body75
ccsl::tryCatch::CatchClause "1..1" *-- "0..1" statements::Block : body80
ccsl::statements::SynchronizedBlock "1..1" *-- "0..9999" statements::Statement : bodyStatements51
ccsl::controlFlow::SwitchStatement "1..1" *-- "0..9999" controlFlow::SwitchCaseBlock : cases69
ccsl::tryCatch::TryStatement "1..1" *-- "0..9999" tryCatch::CatchClause : catchClauses77
ccsl::filters::ChildClosureComplexTypeFilter "1..1" -- "1..1" complexType::ComplexType : childComplexType163
ccsl::statements::ControlFlow "1..1" *-- "0..1" statements::Statement : condition31
ccsl::statements::InstanceCreation "1..1" *-- "0..1" method::Constructor : constructor38
ccsl::invocation::ConstructorInvocation "1..1" -- "0..1" method::Constructor : constructor96
ccsl::complexType::JClass "1..1" *-- "0..9999" method::Constructor : constructors14
Element "0..1" -- "1..1" ccsl::filters::CountFilter : container129
Element "1..1" -- "1..1" ccsl::numberFunctions::GetIndexOf : container193
Context "1..1" --* "1..1" ccsl::filters::TemplateFilter : context123
Context "1..9999" --* "1..1" ccsl::filters::CountFilter : context127
Context "1..1" --* "1..1" ccsl::filters::ImplicityContainerFilter : context144
Context "1..1" --* "1..1" ccsl::filters::IsKindOfFilter : context147
Context "1..1" --* "1..1" ccsl::filters::SuperMethodClosureFilter : context152
Context "1..1" --* "1..1" ccsl::filters::IsTypeOfFilter : context157
Context "1..1" --* "1..1" ccsl::filters::ChildClosureComplexTypeFilter : context166
Context "0..1" --* "1..1" ccsl::filters::FromClosureFilter : context177
Context "0..1" --* "1..1" ccsl::filters::SuperClassClosureFilter : context185
Context "0..1" --* "1..1" ccsl::filters::BlockLastStatementFilter : context190
Context "1..1" --* "1..1" ccsl::AtomicRule : context2
Element "0..9999" --* "1..1" ccsl::context::Context : contextElements110
ccsl::namedElements::Package "1..1" *-- "0..9999" complexType::DeclaredType : declaredTypes10
Element "0..1" -- "1..1" ccsl::statements::Access : elementAccessed44
ccsl::filters::SameNameFilter "1..1" -- "0..9999" namedElements::NamedElement : elements126
ccsl::controlFlow::IfStatement "1..1" *-- "0..1" statements::Statement : elseStatement72
ccsl::statements::ThrowStatement "1..1" *-- "0..9999" statements::Statement : expression56
ccsl::expressions::ParenthesizedExpression "1..1" *-- "0..1" statements::Statement : expression67
Element "1..1" -- "1..1" ccsl::filters::CountFilter : field132
Element "1..1" -- "1..1" ccsl::numberFunctions::GetIndexOf : field195
ccsl::complexType::ComplexType "1..1" *-- "0..9999" variable::FieldVariable : fields23
ccsl::context::Context "1..1" *-- "0..9999" filters::Filter : filters112
ccsl::filters::CompositeFilter "1..1" *-- "1..9999" filters::Filter : filters119
ccsl::tryCatch::TryStatement "1..1" *-- "0..1" statements::Block : finallyBlock78
ccsl::filters::FromClosureFilter "1..1" -- "1..1" statements::Statement : from174
ccsl::statements::NamedElementAccess "1..1" -- "0..1" statements::Statement : from29
ccsl::statements::Access "1..1" *-- "0..1" statements::Statement : from46
ccsl::invocation::MethodInvocation "1..1" *-- "0..1" statements::Statement : from92
ccsl::tryCatch::CatchClause "1..1" -- "0..9999" complexType::JClass : handledExceptions85
Element "1..1" -- "1..1" ccsl::filters::ImplicityContainerFilter : implicityContainer139
Element "1..1" -- "1..1" ccsl::filters::ImplicityContainerFilter : implicityField141
Element "1..1" -- "1..1" ccsl::filters::ImplicityOperandFilter : implicityOperand135
ccsl::import::ImportStatement "1..1" -- "0..1" import::ImportableElement : importedElement100
ccsl::complexType::DeclaredType "1..1" *-- "0..9999" import::ImportStatement : imports18
ccsl::variable::InitializableVariable "1..1" *-- "0..1" statements::Statement : initialValue12
ccsl::statements::SynchronizedBlock "1..1" *-- "0..1" statements::Statement : key53
ccsl::filters::BlockLastStatementFilter "1..1" -- "0..1" statements::Statement : lastStatement188
ccsl::filters::EquationFilter "1..1" *-- "1..9999" numberFunctions::CcslNumberFunction : leftHandSide169
ccsl::assignment::AbstractAssignment "1..1" *-- "0..1" statements::Statement : leftHandSide88
ccsl::statements::InstanceOf "1..1" *-- "0..1" statements::Statement : leftOperand58
ccsl::invocation::SimpleMethodInvocation "1..1" -- "0..1" method::Method : method98
ccsl::complexType::ComplexType "1..1" *-- "0..9999" method::Method : methods24
ccsl::complexType::DeclaredType "1..1" *-- "0..9999" complexType::DeclaredType : nestedTypes20
ccsl::expressions::OperatorExpression "1..1" *-- "0..9999" statements::Statement : operands65
ccsl::filters::ImplicityOperandFilter "1..1" -- "1..1" expressions::OperatorExpression : operatorExpression137
ccsl::method::SimpleMethod "1..1" *-- "0..9999" variable::ParameterVariable : params26
action::ArithmeticOperatorMap "1..9999" --* "1..1" ccsl::action::ReplaceArithmeticOperatorAction : replaceMap116
ccsl::method::Method "1..1" -- "0..1" datatype::DataType : returnType27
ccsl::filters::EquationFilter "1..1" *-- "1..9999" numberFunctions::CcslNumberFunction : rightHandSide170
ccsl::assignment::Assignment "1..1" *-- "0..1" statements::Statement : rightHandSide90
ccsl::statements::InstanceOf "1..1" *-- "0..1" statements::Statement : rightOperand60
ccsl::AtomicRule "1..1" --* "1..1" ccsl::FaultTypeDescription : rule4
ccsl::CompositeRule "1..1" *-- "2..9999" ccsl::Rule : rules0
ccsl::statements::ReturnStatement "1..1" *-- "0..1" statements::Statement : statement63
ccsl::statements::Block "1..1" *-- "0..9999" statements::Statement : statements33
InjectionStrategy "1..1" --* "1..1" ccsl::FaultTypeDescription : strategy8
ccsl::filters::SuperClassClosureFilter "1..1" -- "0..1" complexType::JClass : subClass182
Element "1..1" -- "1..1" ccsl::AtomicRule : subject1
ccsl::complexType::JClass "1..1" -- "0..1" complexType::JClass : superClass15
ccsl::filters::SuperClassClosureFilter "1..1" -- "0..1" complexType::JClass : superClass180
ccsl::filters::ChildClosureComplexTypeFilter "1..1" -- "1..1" complexType::ComplexType : superComplexType162
ccsl::complexType::DeclaredType "1..1" -- "0..9999" complexType::JInterface : superInterfaces17
ccsl::filters::SuperMethodClosureFilter "1..1" -- "1..1" method::Method : superMethod154
Element "0..1" -- "1..1" ccsl::faultTypeDescription::InjectionAction : target114
Element "1..1" -- "1..1" ccsl::filters::TemplateFilter : targetTemplate121
Element "1..9999" -- "1..1" ccsl::filters::AtomicFilter : targets117
ccsl::controlFlow::IfStatement "1..1" *-- "0..1" statements::Statement : thenStatement70
ccsl::annotation::Annotation "1..1" -- "0..1" complexType::AnnotationType : type101
ccsl::datatype::ParameterizedType "1..1" -- "0..1" complexType::DeclaredType : type105
ccsl::datatype::ArrayType "1..1" -- "0..1" datatype::DataType : type108
ccsl::variable::Variable "1..1" -- "0..1" datatype::DataType : type11
ccsl::complexType::AnonymousClass "1..1" -- "0..1" datatype::ObjectType : type13
ccsl::filters::IsKindOfFilter "1..1" -- "1..1" datatype::DataType : type149
ccsl::filters::IsTypeOfFilter "1..1" -- "1..1" datatype::DataType : type159
ccsl::statements::InstanceCreation "1..1" -- "0..1" datatype::ObjectType : type36
ccsl::statements::ArrayCreation "1..1" -- "0..1" datatype::ObjectType : type49
ccsl::datatype::ParameterizedType "1..1" -- "0..9999" datatype::ObjectType : typeArguments103
ccsl::statements::VarDeclaration "1..1" *-- "0..1" variable::Variable : variable35
ccsl::tryCatch::CatchClause "1..1" *-- "0..1" variable::ParameterVariable : variable82
@enduml