@startuml
enum Alignment {
  BOTTOM
  CENTER
  LEFT
  RIGHT
  TOP
}
class Child {
}
class Container {
}
class Cursor {
}
class Figure {
}
enum GridAlignment {
  BEGINNING
  CENTER
  END
  FILL
}
enum Orientation {
  EAST
  NORTH
  SOUTH
  WEST
}
class Primitive {
}
class Shape {
}
enum SystemCursorType {
  ARROW
  HAND
}
class VisualInterface::Arc {
  + length : int
  + start : int
}
class VisualInterface::BorderChild {
  + alignment : str
}
class VisualInterface::BorderContainer {
  + horizontalSpacing : int
  + verticalSpacing : int
}
class VisualInterface::Child {
  + name : str
}
class VisualInterface::Connection {
}
abstract class VisualInterface::Container {
}
abstract class VisualInterface::Cursor {
}
class VisualInterface::Dimension {
  + height : float
  + width : float
}
class VisualInterface::Ellipse {
}
abstract class VisualInterface::Figure {
  + backgroundColor : str
  + border : str
  + foregroundColor : str
  + onClick : str
  + onDoubleClick : str
  + opaque : str
  + toolTip : str
  + visible : bool
}
class VisualInterface::FigureContainer {
}
class VisualInterface::GridChild {
  + grabHorizontalSpace : bool
  + grabVerticalSpace : bool
  + heightHint : str
  + horizontalAlignment : str
  + spanCols : int
  + spanRows : str
  + verticalAlignment : str
  + widthHint : str
}
class VisualInterface::GridContainer {
  + columns : int
  + equalWidth : bool
  + horizontalSpacing : int
  + marginHeight : int
  + marginWidth : int
  + verticalSpacing : int
}
class VisualInterface::Image {
  + uri : str
}
class VisualInterface::Line {
}
class VisualInterface::Position {
  + x : float
  + y : float
}
abstract class VisualInterface::Primitive {
  + name : str
}
class VisualInterface::Rectangle {
}
abstract class VisualInterface::Shape {
  + alpha : str
  + antialias : str
  + fill : bool
  + lineWidth : float
  + outline : bool
}
class VisualInterface::StackContainer {
}
class VisualInterface::StringToStringMap {
  + key : str
  + value : str
}
class VisualInterface::Symbol {
  + backgroundColor : str
  + onDispose : str
  + onInit : str
  + onUpdate : str
  + scriptModules : str
}
class VisualInterface::SymbolReference {
  + onCreateProperties : str
  + uri : str
  + zoom : str
}
class VisualInterface::SystemCursor {
  + type : str
}
class VisualInterface::Text {
  + fontBold : bool
  + fontItalic : bool
  + fontName : str
  + fontSize : int
  + iconAlignment : str
  + labelAlignment : str
  + text : str
  + textAlignment : str
  + textPlacement : str
}
class VisualInterface::XYChild {
}
class VisualInterface::XYContainer {
}
Child <|-- VisualInterface::BorderChild
Child <|-- VisualInterface::GridChild
Child <|-- VisualInterface::XYChild
Container <|-- VisualInterface::BorderContainer
Container <|-- VisualInterface::GridContainer
Container <|-- VisualInterface::StackContainer
Container <|-- VisualInterface::XYContainer
Cursor <|-- VisualInterface::SystemCursor
Figure <|-- VisualInterface::FigureContainer
Figure <|-- VisualInterface::Image
Figure <|-- VisualInterface::Shape
Figure <|-- VisualInterface::Text
Primitive <|-- VisualInterface::Container
Primitive <|-- VisualInterface::Figure
Primitive <|-- VisualInterface::SymbolReference
Shape <|-- VisualInterface::Arc
Shape <|-- VisualInterface::Ellipse
Shape <|-- VisualInterface::Line
Shape <|-- VisualInterface::Rectangle
VisualInterface::XYChild "0..9999" --* "1..1" VisualInterface::XYContainer : children15
VisualInterface::GridChild "0..9999" --* "1..1" VisualInterface::GridContainer : children26
VisualInterface::BorderChild "0..9999" --* "1..1" VisualInterface::BorderContainer : children27
VisualInterface::Primitive "0..9999" --* "1..1" VisualInterface::StackContainer : children36
VisualInterface::Connection "0..9999" --* "1..1" VisualInterface::Symbol : connections7
VisualInterface::FigureContainer "1..1" *-- "0..1" VisualInterface::Primitive : content28
VisualInterface::Cursor "0..1" -- "1..1" VisualInterface::Figure : cursor21
VisualInterface::Cursor "0..1" --* "1..1" VisualInterface::Symbol : cursors3
VisualInterface::Dimension "0..1" --* "1..1" VisualInterface::Symbol : designSize5
VisualInterface::Dimension "0..1" --* "1..1" VisualInterface::XYChild : dimension12
VisualInterface::Child "1..1" *-- "0..1" VisualInterface::Primitive : element9
VisualInterface::Connection "1..1" -- "1..1" VisualInterface::Primitive : end33
VisualInterface::Line "1..1" *-- "0..9999" VisualInterface::Position : points17
VisualInterface::Position "1..1" --* "1..1" VisualInterface::XYChild : position11
VisualInterface::StringToStringMap "0..9999" --* "1..1" VisualInterface::Symbol : properties1
VisualInterface::StringToStringMap "0..9999" --* "1..1" VisualInterface::SymbolReference : properties24
VisualInterface::Primitive "0..1" --* "1..1" VisualInterface::Symbol : root0
VisualInterface::Dimension "0..1" --* "1..1" VisualInterface::Figure : size19
VisualInterface::Connection "1..1" -- "1..1" VisualInterface::Primitive : start30
@enduml