@startuml
class SrcEClassifier {
}
class SrcEDataType {
}
class SrcENamedElement {
}
class SrcEStructuralFeature {
}
class SrcETypedElement {
}
class TrgCondition {
}
class TrgEquationalCond {
}
class TrgMaudeTopEl {
}
class TrgModElement {
}
class TrgModExpression {
}
class TrgModule {
}
class TrgRenMapping {
}
class TrgStatement {
}
class TrgTerm {
}
class TrgTheory {
}
class TrgType {
}
class TrgViewMapping {
}
class jointPackage::Ecore2Maude::JointMM {
}
class jointPackage::Ecore2Maude::SrcEAttribute {
  + iD : bool
}
class jointPackage::Ecore2Maude::SrcEClass {
  + abstract : bool
  + interface : bool
  + getEStructuralFeature(featureName : any) : SrcEStructuralFeature
  + getFeatureCount() : int
  + getFeatureID(feature : any) : int
  + isSuperTypeOf(someClass : any) : bool
}
abstract class jointPackage::Ecore2Maude::SrcEClassifier {
  + instanceClassName : str
  + instanceTypeName : str
  + getClassifierID() : int
}
class jointPackage::Ecore2Maude::SrcEDataType {
  + serializable : bool
}
class jointPackage::Ecore2Maude::SrcEEnum {
  + getEEnumLiteral(value : any) : str
  + getEEnumLiteralByLiteral(literal : any) : str
}
class jointPackage::Ecore2Maude::SrcEEnumLiteral {
  + literal : str
  + value : int
}
abstract class jointPackage::Ecore2Maude::SrcENamedElement {
  + name : str
}
class jointPackage::Ecore2Maude::SrcEOperation {
}
class jointPackage::Ecore2Maude::SrcEPackage {
  + nsPrefix : str
  + nsURI : str
  + getEClassifier(name : any) : SrcEClassifier
}
class jointPackage::Ecore2Maude::SrcEParameter {
}
class jointPackage::Ecore2Maude::SrcEReference {
  + container : bool
  + containment : bool
  + resolveProxies : bool
}
class jointPackage::Ecore2Maude::SrcEStringToStringMapEntry {
  + key : str
  + value : str
}
abstract class jointPackage::Ecore2Maude::SrcEStructuralFeature {
  + changeable : bool
  + defaultValueLiteral : str
  + derived : bool
  + transient : bool
  + unsettable : bool
  + volatile : bool
  + getFeatureID() : int
}
abstract class jointPackage::Ecore2Maude::SrcETypedElement {
  + lowerBound : int
  + many : bool
  + ordered : bool
  + required : bool
  + unique : bool
  + upperBound : int
}
class jointPackage::Ecore2Maude::TrgBooleanCond {
}
class jointPackage::Ecore2Maude::TrgCompModExp {
}
abstract class jointPackage::Ecore2Maude::TrgCondition {
}
class jointPackage::Ecore2Maude::TrgConstant {
  + op : str
}
class jointPackage::Ecore2Maude::TrgEqualCond {
}
class jointPackage::Ecore2Maude::TrgEquation {
}
abstract class jointPackage::Ecore2Maude::TrgEquationalCond {
}
class jointPackage::Ecore2Maude::TrgFModule {
}
class jointPackage::Ecore2Maude::TrgFTheory {
}
class jointPackage::Ecore2Maude::TrgInstModExp {
}
class jointPackage::Ecore2Maude::TrgKind {
}
class jointPackage::Ecore2Maude::TrgLabelMapping {
  + from : str
  + to : str
}
class jointPackage::Ecore2Maude::TrgMatchingCond {
}
class jointPackage::Ecore2Maude::TrgMaudeSpec {
}
abstract class jointPackage::Ecore2Maude::TrgMaudeTopEl {
  + name : str
}
class jointPackage::Ecore2Maude::TrgMembership {
}
class jointPackage::Ecore2Maude::TrgMembershipCond {
}
abstract class jointPackage::Ecore2Maude::TrgModElement {
}
abstract class jointPackage::Ecore2Maude::TrgModExpression {
}
class jointPackage::Ecore2Maude::TrgModImportation {
}
abstract class jointPackage::Ecore2Maude::TrgModule {
}
class jointPackage::Ecore2Maude::TrgModuleIdModExp {
}
class jointPackage::Ecore2Maude::TrgOpMapping {
  + to : str
}
class jointPackage::Ecore2Maude::TrgOpTypedMapping {
  + atts : str
  + to : str
}
class jointPackage::Ecore2Maude::TrgOperation {
  + atts : str
  + name : str
}
class jointPackage::Ecore2Maude::TrgParameter {
  + label : str
}
class jointPackage::Ecore2Maude::TrgRecTerm {
  + op : str
}
abstract class jointPackage::Ecore2Maude::TrgRenMapping {
}
class jointPackage::Ecore2Maude::TrgRenModExp {
}
class jointPackage::Ecore2Maude::TrgRewriteCond {
}
class jointPackage::Ecore2Maude::TrgRule {
}
class jointPackage::Ecore2Maude::TrgSModule {
}
class jointPackage::Ecore2Maude::TrgSTheory {
}
class jointPackage::Ecore2Maude::TrgSort {
}
class jointPackage::Ecore2Maude::TrgSortMapping {
  + to : str
}
abstract class jointPackage::Ecore2Maude::TrgStatement {
  + atts : str
  + label : str
}
class jointPackage::Ecore2Maude::TrgSubsortRel {
}
abstract class jointPackage::Ecore2Maude::TrgTerm {
}
class jointPackage::Ecore2Maude::TrgTermMapping {
}
abstract class jointPackage::Ecore2Maude::TrgTheory {
}
class jointPackage::Ecore2Maude::TrgTheoryIdModExp {
}
abstract class jointPackage::Ecore2Maude::TrgType {
  + name : str
}
class jointPackage::Ecore2Maude::TrgVariable {
  + name : str
}
class jointPackage::Ecore2Maude::TrgView {
}
abstract class jointPackage::Ecore2Maude::TrgViewMapping {
}
SrcEClassifier <|-- jointPackage::Ecore2Maude::SrcEClass
SrcEClassifier <|-- jointPackage::Ecore2Maude::SrcEDataType
SrcEDataType <|-- jointPackage::Ecore2Maude::SrcEEnum
SrcENamedElement <|-- jointPackage::Ecore2Maude::SrcEClassifier
SrcENamedElement <|-- jointPackage::Ecore2Maude::SrcEEnumLiteral
SrcENamedElement <|-- jointPackage::Ecore2Maude::SrcEPackage
SrcENamedElement <|-- jointPackage::Ecore2Maude::SrcETypedElement
SrcEStructuralFeature <|-- jointPackage::Ecore2Maude::SrcEAttribute
SrcEStructuralFeature <|-- jointPackage::Ecore2Maude::SrcEReference
SrcETypedElement <|-- jointPackage::Ecore2Maude::SrcEOperation
SrcETypedElement <|-- jointPackage::Ecore2Maude::SrcEParameter
SrcETypedElement <|-- jointPackage::Ecore2Maude::SrcEStructuralFeature
TrgCondition <|-- jointPackage::Ecore2Maude::TrgEquationalCond
TrgCondition <|-- jointPackage::Ecore2Maude::TrgRewriteCond
TrgEquationalCond <|-- jointPackage::Ecore2Maude::TrgBooleanCond
TrgEquationalCond <|-- jointPackage::Ecore2Maude::TrgEqualCond
TrgEquationalCond <|-- jointPackage::Ecore2Maude::TrgMatchingCond
TrgEquationalCond <|-- jointPackage::Ecore2Maude::TrgMembershipCond
TrgMaudeTopEl <|-- jointPackage::Ecore2Maude::TrgModule
TrgMaudeTopEl <|-- jointPackage::Ecore2Maude::TrgTheory
TrgMaudeTopEl <|-- jointPackage::Ecore2Maude::TrgView
TrgModElement <|-- jointPackage::Ecore2Maude::TrgModImportation
TrgModElement <|-- jointPackage::Ecore2Maude::TrgOperation
TrgModElement <|-- jointPackage::Ecore2Maude::TrgSort
TrgModElement <|-- jointPackage::Ecore2Maude::TrgStatement
TrgModElement <|-- jointPackage::Ecore2Maude::TrgSubsortRel
TrgModExpression <|-- jointPackage::Ecore2Maude::TrgCompModExp
TrgModExpression <|-- jointPackage::Ecore2Maude::TrgInstModExp
TrgModExpression <|-- jointPackage::Ecore2Maude::TrgModuleIdModExp
TrgModExpression <|-- jointPackage::Ecore2Maude::TrgParameter
TrgModExpression <|-- jointPackage::Ecore2Maude::TrgRenModExp
TrgModExpression <|-- jointPackage::Ecore2Maude::TrgTheoryIdModExp
TrgModule <|-- jointPackage::Ecore2Maude::TrgFModule
TrgModule <|-- jointPackage::Ecore2Maude::TrgSModule
TrgRenMapping <|-- jointPackage::Ecore2Maude::TrgLabelMapping
TrgRenMapping <|-- jointPackage::Ecore2Maude::TrgOpMapping
TrgRenMapping <|-- jointPackage::Ecore2Maude::TrgOpTypedMapping
TrgRenMapping <|-- jointPackage::Ecore2Maude::TrgSortMapping
TrgStatement <|-- jointPackage::Ecore2Maude::TrgEquation
TrgStatement <|-- jointPackage::Ecore2Maude::TrgMembership
TrgStatement <|-- jointPackage::Ecore2Maude::TrgRule
TrgTerm <|-- jointPackage::Ecore2Maude::TrgConstant
TrgTerm <|-- jointPackage::Ecore2Maude::TrgRecTerm
TrgTerm <|-- jointPackage::Ecore2Maude::TrgVariable
TrgTheory <|-- jointPackage::Ecore2Maude::TrgFTheory
TrgTheory <|-- jointPackage::Ecore2Maude::TrgSTheory
TrgType <|-- jointPackage::Ecore2Maude::TrgKind
TrgType <|-- jointPackage::Ecore2Maude::TrgSort
TrgViewMapping <|-- jointPackage::Ecore2Maude::TrgRenMapping
TrgViewMapping <|-- jointPackage::Ecore2Maude::TrgTermMapping
jointPackage::Ecore2Maude::TrgRecTerm "1..1" *-- "1..9999" jointPackage::Ecore2Maude::TrgTerm : args132
jointPackage::Ecore2Maude::TrgOperation "1..1" -- "0..9999" jointPackage::Ecore2Maude::TrgType : arity120
jointPackage::Ecore2Maude::TrgOperation "1..1" -- "0..1" jointPackage::Ecore2Maude::TrgType : coarity119
jointPackage::Ecore2Maude::TrgCondition "0..9999" --* "1..1" jointPackage::Ecore2Maude::TrgStatement : conds123
jointPackage::Ecore2Maude::SrcEAttribute "0..9999" -- "1..1" jointPackage::Ecore2Maude::SrcEClass : eAllAttributes7
jointPackage::Ecore2Maude::SrcEClass "1..1" -- "0..9999" jointPackage::Ecore2Maude::SrcEReference : eAllContainments18
jointPackage::Ecore2Maude::SrcEClass "1..1" -- "0..9999" jointPackage::Ecore2Maude::SrcEOperation : eAllOperations21
jointPackage::Ecore2Maude::SrcEClass "1..1" -- "0..9999" jointPackage::Ecore2Maude::SrcEReference : eAllReferences10
jointPackage::Ecore2Maude::SrcEClass "1..1" -- "0..9999" jointPackage::Ecore2Maude::SrcEStructuralFeature : eAllStructuralFeatures23
jointPackage::Ecore2Maude::SrcEClass "0..9999" -- "1..1" jointPackage::Ecore2Maude::SrcEClass : eAllSuperTypes26
jointPackage::Ecore2Maude::SrcEAttribute "1..1" -- "0..1" jointPackage::Ecore2Maude::SrcEDataType : eAttributeType3
jointPackage::Ecore2Maude::SrcEAttribute "0..9999" -- "1..1" jointPackage::Ecore2Maude::SrcEClass : eAttributes15
jointPackage::Ecore2Maude::SrcEClassifier "0..9999" --* "1..1" jointPackage::Ecore2Maude::SrcEPackage : eClassifiers40
jointPackage::Ecore2Maude::SrcEClass "0..1" -- "1..1" jointPackage::Ecore2Maude::SrcEOperation : eContainingClass36
jointPackage::Ecore2Maude::SrcEClass "0..1" -- "1..1" jointPackage::Ecore2Maude::SrcEStructuralFeature : eContainingClass58
jointPackage::Ecore2Maude::SrcEEnum "0..1" -- "1..1" jointPackage::Ecore2Maude::SrcEEnumLiteral : eEnum35
jointPackage::Ecore2Maude::SrcEClassifier "0..9999" -- "1..1" jointPackage::Ecore2Maude::SrcEOperation : eExceptions38
jointPackage::Ecore2Maude::SrcEAttribute "0..1" -- "1..1" jointPackage::Ecore2Maude::SrcEClass : eIDAttribute28
jointPackage::Ecore2Maude::SrcEAttribute "0..9999" -- "1..1" jointPackage::Ecore2Maude::SrcEReference : eKeys55
jointPackage::Ecore2Maude::SrcEEnum "1..1" *-- "0..9999" jointPackage::Ecore2Maude::SrcEEnumLiteral : eLiterals34
jointPackage::Ecore2Maude::SrcEOperation "0..1" -- "1..1" jointPackage::Ecore2Maude::SrcEParameter : eOperation47
jointPackage::Ecore2Maude::SrcEClass "1..1" *-- "0..9999" jointPackage::Ecore2Maude::SrcEOperation : eOperations6
jointPackage::Ecore2Maude::SrcEReference "0..1" -- "1..1" jointPackage::Ecore2Maude::SrcEReference : eOpposite50
jointPackage::Ecore2Maude::SrcEClassifier "1..1" -- "0..1" jointPackage::Ecore2Maude::SrcEPackage : ePackage33
jointPackage::Ecore2Maude::SrcEOperation "1..1" *-- "0..9999" jointPackage::Ecore2Maude::SrcEParameter : eParameters37
jointPackage::Ecore2Maude::SrcEClass "0..1" -- "1..1" jointPackage::Ecore2Maude::SrcEReference : eReferenceType52
jointPackage::Ecore2Maude::SrcEClass "1..1" -- "0..9999" jointPackage::Ecore2Maude::SrcEReference : eReferences12
jointPackage::Ecore2Maude::SrcEClass "1..1" *-- "0..9999" jointPackage::Ecore2Maude::SrcEStructuralFeature : eStructuralFeatures31
jointPackage::Ecore2Maude::SrcEPackage "1..1" *-- "0..9999" jointPackage::Ecore2Maude::SrcEPackage : eSubpackages42
jointPackage::Ecore2Maude::SrcEPackage "1..1" -- "0..1" jointPackage::Ecore2Maude::SrcEPackage : eSuperPackage45
jointPackage::Ecore2Maude::SrcEClass "1..1" -- "0..9999" jointPackage::Ecore2Maude::SrcEClass : eSuperTypes5
jointPackage::Ecore2Maude::SrcEClassifier "0..1" -- "1..1" jointPackage::Ecore2Maude::SrcETypedElement : eType60
jointPackage::Ecore2Maude::TrgModElement "0..9999" --* "1..1" jointPackage::Ecore2Maude::TrgModule : els100
jointPackage::Ecore2Maude::TrgView "1..1" *-- "0..9999" jointPackage::Ecore2Maude::TrgViewMapping : els140
jointPackage::Ecore2Maude::TrgMaudeSpec "1..1" *-- "0..9999" jointPackage::Ecore2Maude::TrgMaudeTopEl : els62
jointPackage::Ecore2Maude::TrgModElement "0..9999" --* "1..1" jointPackage::Ecore2Maude::TrgTheory : els99
jointPackage::Ecore2Maude::TrgModExpression "1..1" --* "1..1" jointPackage::Ecore2Maude::TrgView : from134
jointPackage::Ecore2Maude::TrgTerm "1..1" --* "1..1" jointPackage::Ecore2Maude::TrgTermMapping : from142
jointPackage::Ecore2Maude::TrgSort "1..1" -- "1..1" jointPackage::Ecore2Maude::TrgSortMapping : from147
jointPackage::Ecore2Maude::TrgOpTypedMapping "1..1" -- "1..1" jointPackage::Ecore2Maude::TrgOperation : from149
jointPackage::Ecore2Maude::TrgOpMapping "1..1" -- "1..1" jointPackage::Ecore2Maude::TrgOperation : from151
jointPackage::Ecore2Maude::TrgModExpression "1..1" --* "1..1" jointPackage::Ecore2Maude::TrgModImportation : imports108
jointPackage::Ecore2Maude::TrgKind "1..1" -- "1..1" jointPackage::Ecore2Maude::TrgSort : kind113
jointPackage::Ecore2Maude::TrgCondition "1..1" *-- "1..1" jointPackage::Ecore2Maude::TrgTerm : lhs124
jointPackage::Ecore2Maude::TrgEquation "1..1" *-- "1..1" jointPackage::Ecore2Maude::TrgTerm : lhs69
jointPackage::Ecore2Maude::TrgRule "1..1" *-- "0..1" jointPackage::Ecore2Maude::TrgTerm : lhs74
jointPackage::Ecore2Maude::TrgInstModExp "1..1" *-- "1..1" jointPackage::Ecore2Maude::TrgModExpression : modExp86
jointPackage::Ecore2Maude::TrgModExpression "1..1" --* "1..1" jointPackage::Ecore2Maude::TrgRenModExp : modExp89
jointPackage::Ecore2Maude::TrgModExpression "1..1" --* "1..1" jointPackage::Ecore2Maude::TrgParameter : modExp97
jointPackage::Ecore2Maude::TrgCompModExp "1..1" *-- "2..9999" jointPackage::Ecore2Maude::TrgModExpression : modExps93
jointPackage::Ecore2Maude::TrgModElement "1..1" -- "0..1" jointPackage::Ecore2Maude::TrgModule : module105
jointPackage::Ecore2Maude::TrgModule "1..1" -- "1..1" jointPackage::Ecore2Maude::TrgModuleIdModExp : module95
jointPackage::Ecore2Maude::TrgModule "1..1" *-- "0..9999" jointPackage::Ecore2Maude::TrgParameter : params102
jointPackage::Ecore2Maude::TrgMaudeSpec "1..1" -- "0..9999" jointPackage::Ecore2Maude::TrgMaudeTopEl : printableEls63
jointPackage::Ecore2Maude::TrgRenMapping "1..9999" --* "1..1" jointPackage::Ecore2Maude::TrgRenModExp : renamings91
jointPackage::Ecore2Maude::TrgRewriteCond "1..1" *-- "1..1" jointPackage::Ecore2Maude::TrgTerm : rhs127
jointPackage::Ecore2Maude::TrgEquation "1..1" *-- "1..1" jointPackage::Ecore2Maude::TrgTerm : rhs71
jointPackage::Ecore2Maude::TrgRule "1..1" *-- "0..1" jointPackage::Ecore2Maude::TrgTerm : rhs76
jointPackage::Ecore2Maude::TrgMembershipCond "1..1" -- "1..1" jointPackage::Ecore2Maude::TrgSort : rhs79
jointPackage::Ecore2Maude::TrgMatchingCond "1..1" *-- "1..1" jointPackage::Ecore2Maude::TrgTerm : rhs81
jointPackage::Ecore2Maude::TrgEqualCond "1..1" *-- "1..1" jointPackage::Ecore2Maude::TrgTerm : rhs83
jointPackage::Ecore2Maude::TrgMembership "1..1" -- "1..1" jointPackage::Ecore2Maude::TrgSort : sort67
jointPackage::Ecore2Maude::TrgKind "1..1" -- "1..9999" jointPackage::Ecore2Maude::TrgSort : sorts114
jointPackage::Ecore2Maude::JointMM "1..1" *-- "1..1" jointPackage::Ecore2Maude::SrcEStringToStringMapEntry : sourceRoot0
jointPackage::Ecore2Maude::TrgSort "1..1" -- "0..9999" jointPackage::Ecore2Maude::TrgSubsortRel : subsortRels110
jointPackage::Ecore2Maude::TrgSort "1..9999" -- "1..1" jointPackage::Ecore2Maude::TrgSubsortRel : subsorts115
jointPackage::Ecore2Maude::TrgSort "1..1" -- "0..9999" jointPackage::Ecore2Maude::TrgSubsortRel : supersortRels111
jointPackage::Ecore2Maude::TrgSort "1..9999" -- "1..1" jointPackage::Ecore2Maude::TrgSubsortRel : supersorts117
jointPackage::Ecore2Maude::JointMM "1..1" *-- "1..1" jointPackage::Ecore2Maude::TrgEqualCond : targetRoot1
jointPackage::Ecore2Maude::TrgMembership "1..1" *-- "1..1" jointPackage::Ecore2Maude::TrgTerm : term66
jointPackage::Ecore2Maude::TrgModElement "1..1" -- "0..1" jointPackage::Ecore2Maude::TrgTheory : theory106
jointPackage::Ecore2Maude::TrgTheory "1..1" -- "1..1" jointPackage::Ecore2Maude::TrgTheoryIdModExp : theory96
jointPackage::Ecore2Maude::TrgModExpression "1..1" --* "1..1" jointPackage::Ecore2Maude::TrgView : to137
jointPackage::Ecore2Maude::TrgTerm "1..1" --* "1..1" jointPackage::Ecore2Maude::TrgTermMapping : to144
jointPackage::Ecore2Maude::TrgTerm "1..1" -- "1..1" jointPackage::Ecore2Maude::TrgType : type129
jointPackage::Ecore2Maude::TrgInstModExp "1..1" -- "1..9999" jointPackage::Ecore2Maude::TrgView : views87
@enduml