@startuml
class simpleClass::Attribute {
  + isPublic : bool
  + name : str
}
class simpleClass::Class {
  + name : str
}
class simpleClass::Model {
}
simpleClass::Attribute "0..9999" --* "1..1" simpleClass::Class : attributes4
simpleClass::Class "0..9999" --* "1..1" simpleClass::Model : classes0
simpleClass::Class "0..9999" -- "1..1" simpleClass::Class : superclasses2
simpleClass::Attribute "1..1" -- "1..1" simpleClass::Class : type6
@enduml